Ubuntu-CondensedThinItalic.ufo
<glyph name="exclam" format="2">
  <advance width="211.25"/>
  <unicode hex="0021"/>
  <outline>
    <contour>
      <point x="135" y="181" type="curve"/>
      <point x="158" y="181" type="line"/>
      <point x="189" y="291"/>
      <point x="213" y="388"/>
      <point x="239" y="494" type="curve" smooth="yes"/>
      <point x="286" y="693" type="line"/>
      <point x="255" y="693" type="line"/>
      <point x="207" y="494" type="line" smooth="yes"/>
      <point x="182" y="388"/>
      <point x="158" y="291"/>
    </contour>
    <contour>
      <point x="109" y="-5" type="curve" smooth="yes"/>
      <point x="124" y="-5"/>
      <point x="136" y="9"/>
      <point x="136" y="28" type="curve" smooth="yes"/>
      <point x="136" y="42"/>
      <point x="127" y="55"/>
      <point x="113" y="55" type="curve" smooth="yes"/>
      <point x="94" y="55"/>
      <point x="84" y="37"/>
      <point x="84" y="21" type="curve" smooth="yes"/>
      <point x="84" y="8"/>
      <point x="96" y="-5"/>
    </contour>
  </outline>
</glyph>
<glyph name="numbersign" format="2">
  <advance width="485"/>
  <unicode hex="0023"/>
  <outline>
    <contour>
      <point x="90" y="0" type="line"/>
      <point x="119" y="0" type="line"/>
      <point x="193" y="195" type="line"/>
      <point x="348" y="195" type="line"/>
      <point x="274" y="0" type="line"/>
      <point x="303" y="0" type="line"/>
      <point x="377" y="195" type="line"/>
      <point x="500" y="195" type="line"/>
      <point x="506" y="222" type="line"/>
      <point x="387" y="222" type="line"/>
      <point x="481" y="469" type="line"/>
      <point x="566" y="469" type="line"/>
      <point x="572" y="498" type="line"/>
      <point x="492" y="498" type="line"/>
      <point x="566" y="693" type="line"/>
      <point x="536" y="693" type="line"/>
      <point x="462" y="498" type="line"/>
      <point x="308" y="498" type="line"/>
      <point x="382" y="693" type="line"/>
      <point x="352" y="693" type="line"/>
      <point x="278" y="498" type="line"/>
      <point x="152" y="498" type="line"/>
      <point x="145" y="469" type="line"/>
      <point x="267" y="469" type="line"/>
      <point x="174" y="222" type="line"/>
      <point x="85" y="222" type="line"/>
      <point x="79" y="195" type="line"/>
      <point x="164" y="195" type="line"/>
    </contour>
    <contour>
      <point x="203" y="222" type="line"/>
      <point x="297" y="469" type="line"/>
      <point x="451" y="469" type="line"/>
      <point x="358" y="222" type="line"/>
    </contour>
  </outline>
</glyph>
<glyph name="dollar" format="2">
  <advance width="430"/>
  <unicode hex="0024"/>
  <outline>
    <contour>
      <point x="178" y="-109" type="line"/>
      <point x="213" y="-109" type="line"/>
      <point x="245" y="27" type="line"/>
      <point x="341" y="41"/>
      <point x="410" y="110"/>
      <point x="410" y="205" type="curve" smooth="yes"/>
      <point x="410" y="276"/>
      <point x="392" y="306"/>
      <point x="323" y="359" type="curve" smooth="yes"/>
      <point x="254" y="409"/>
      <point x="232" y="436"/>
      <point x="232" y="491" type="curve" smooth="yes"/>
      <point x="232" y="570"/>
      <point x="295" y="622"/>
      <point x="382" y="622" type="curve" smooth="yes"/>
      <point x="415" y="622"/>
      <point x="451" y="614"/>
      <point x="481" y="601" type="curve"/>
      <point x="491" y="632" type="line"/>
      <point x="466" y="644"/>
      <point x="438" y="652"/>
      <point x="406" y="654" type="curve"/>
      <point x="435" y="776" type="line"/>
      <point x="400" y="776" type="line"/>
      <point x="371" y="653" type="line"/>
      <point x="269" y="646"/>
      <point x="198" y="580"/>
      <point x="198" y="488" type="curve" smooth="yes"/>
      <point x="198" y="416"/>
      <point x="224" y="386"/>
      <point x="296" y="334" type="curve" smooth="yes"/>
      <point x="359" y="287"/>
      <point x="376" y="257"/>
      <point x="376" y="201" type="curve" smooth="yes"/>
      <point x="376" y="115"/>
      <point x="310" y="57"/>
      <point x="212" y="57" type="curve" smooth="yes"/>
      <point x="175" y="57"/>
      <point x="130" y="67"/>
      <point x="89" y="84" type="curve"/>
      <point x="79" y="51" type="line"/>
      <point x="122" y="32"/>
      <point x="175" y="25"/>
      <point x="210" y="25" type="curve"/>
    </contour>
  </outline>
</glyph>
<glyph name="percent" format="2">
  <advance width="590"/>
  <unicode hex="0025"/>
  <outline>
    <contour>
      <point x="146" y="0" type="line"/>
      <point x="178" y="0" type="line"/>
      <point x="609" y="693" type="line"/>
      <point x="577" y="693" type="line"/>
    </contour>
    <contour>
      <point x="227" y="362" type="curve" smooth="yes"/>
      <point x="308" y="362"/>
      <point x="382" y="490"/>
      <point x="382" y="624" type="curve" smooth="yes"/>
      <point x="382" y="680"/>
      <point x="360" y="707"/>
      <point x="316" y="707" type="curve" smooth="yes"/>
      <point x="234" y="707"/>
      <point x="161" y="582"/>
      <point x="161" y="448" type="curve" smooth="yes"/>
      <point x="161" y="390"/>
      <point x="183" y="362"/>
    </contour>
    <contour>
      <point x="229" y="390" type="curve" smooth="yes"/>
      <point x="206" y="390"/>
      <point x="193" y="409"/>
      <point x="193" y="451" type="curve" smooth="yes"/>
      <point x="193" y="562"/>
      <point x="250" y="679"/>
      <point x="313" y="679" type="curve" smooth="yes"/>
      <point x="338" y="679"/>
      <point x="350" y="662"/>
      <point x="350" y="620" type="curve" smooth="yes"/>
      <point x="350" y="510"/>
      <point x="291" y="390"/>
    </contour>
    <contour>
      <point x="442" y="-10" type="curve" smooth="yes"/>
      <point x="523" y="-10"/>
      <point x="597" y="118"/>
      <point x="597" y="252" type="curve" smooth="yes"/>
      <point x="597" y="308"/>
      <point x="575" y="335"/>
      <point x="531" y="335" type="curve" smooth="yes"/>
      <point x="449" y="335"/>
      <point x="376" y="210"/>
      <point x="376" y="76" type="curve" smooth="yes"/>
      <point x="376" y="18"/>
      <point x="398" y="-10"/>
    </contour>
    <contour>
      <point x="444" y="18" type="curve" smooth="yes"/>
      <point x="421" y="18"/>
      <point x="408" y="37"/>
      <point x="408" y="79" type="curve" smooth="yes"/>
      <point x="408" y="190"/>
      <point x="465" y="307"/>
      <point x="528" y="307" type="curve" smooth="yes"/>
      <point x="553" y="307"/>
      <point x="565" y="290"/>
      <point x="565" y="248" type="curve" smooth="yes"/>
      <point x="565" y="138"/>
      <point x="506" y="18"/>
    </contour>
  </outline>
</glyph>
<glyph name="ampersand" format="2">
  <advance width="470"/>
  <unicode hex="0026"/>
  <outline>
    <contour>
      <point x="197" y="-9" type="curve" smooth="yes"/>
      <point x="269" y="-9"/>
      <point x="331" y="33"/>
      <point x="384" y="99" type="curve"/>
      <point x="400" y="67"/>
      <point x="415" y="31"/>
      <point x="426" y="0" type="curve"/>
      <point x="459" y="0" type="line"/>
      <point x="444" y="38"/>
      <point x="425" y="85"/>
      <point x="403" y="125" type="curve"/>
      <point x="439" y="185"/>
      <point x="474" y="265"/>
      <point x="490" y="345" type="curve"/>
      <point x="461" y="348" type="line"/>
      <point x="445" y="276"/>
      <point x="417" y="207"/>
      <point x="389" y="153" type="curve"/>
      <point x="285" y="370" type="line"/>
      <point x="291" y="374" type="line"/>
      <point x="380" y="433"/>
      <point x="454" y="512"/>
      <point x="454" y="602" type="curve" smooth="yes"/>
      <point x="454" y="660"/>
      <point x="427" y="705"/>
      <point x="355" y="705" type="curve" smooth="yes"/>
      <point x="273" y="705"/>
      <point x="208" y="623"/>
      <point x="208" y="516" type="curve" smooth="yes"/>
      <point x="208" y="465"/>
      <point x="225" y="419"/>
      <point x="246" y="378" type="curve"/>
      <point x="241" y="375" type="line"/>
      <point x="149" y="319"/>
      <point x="82" y="247"/>
      <point x="82" y="128" type="curve" smooth="yes"/>
      <point x="82" y="58"/>
      <point x="118" y="-9"/>
    </contour>
    <contour>
      <point x="202" y="21" type="curve" smooth="yes"/>
      <point x="145" y="21"/>
      <point x="114" y="67"/>
      <point x="114" y="130" type="curve" smooth="yes"/>
      <point x="114" y="222"/>
      <point x="164" y="298"/>
      <point x="253" y="352" type="curve"/>
      <point x="258" y="355" type="line"/>
      <point x="370" y="123" type="line"/>
      <point x="325" y="63"/>
      <point x="268" y="21"/>
    </contour>
    <contour>
      <point x="274" y="392" type="line"/>
      <point x="254" y="431"/>
      <point x="240" y="475"/>
      <point x="240" y="519" type="curve" smooth="yes"/>
      <point x="240" y="606"/>
      <point x="284" y="675"/>
      <point x="350" y="675" type="curve" smooth="yes"/>
      <point x="396" y="675"/>
      <point x="421" y="648"/>
      <point x="421" y="596" type="curve" smooth="yes"/>
      <point x="421" y="522"/>
      <point x="359" y="446"/>
      <point x="279" y="395" type="curve"/>
    </contour>
  </outline>
</glyph>
<glyph name="quotesingle" format="2">
  <advance width="143.05"/>
  <unicode hex="0027"/>
  <outline>
    <contour>
      <point x="189" y="534" type="curve"/>
      <point x="209" y="534" type="line"/>
      <point x="228" y="599"/>
      <point x="241" y="645"/>
      <point x="256" y="710" type="curve" smooth="yes"/>
      <point x="268" y="760" type="line"/>
      <point x="238" y="760" type="line"/>
      <point x="227" y="710" type="line" smooth="yes"/>
      <point x="213" y="646"/>
      <point x="201" y="599"/>
    </contour>
  </outline>
</glyph>
<glyph name="parenleft" format="2">
  <advance width="223.5"/>
  <unicode hex="0028"/>
  <outline>
    <contour>
      <point x="154" y="-187" type="curve"/>
      <point x="178" y="-179" type="line"/>
      <point x="155" y="-90"/>
      <point x="145" y="-4"/>
      <point x="145" y="77" type="curve" smooth="yes"/>
      <point x="145" y="321"/>
      <point x="228" y="541"/>
      <point x="408" y="774" type="curve"/>
      <point x="386" y="785" type="line"/>
      <point x="201" y="547"/>
      <point x="115" y="323"/>
      <point x="115" y="77" type="curve" smooth="yes"/>
      <point x="115" y="-10"/>
      <point x="130" y="-96"/>
    </contour>
  </outline>
</glyph>
<glyph name="parenright" format="2">
  <advance width="223.5"/>
  <unicode hex="0029"/>
  <outline>
    <contour>
      <point x="-19" y="-187" type="line"/>
      <point x="166" y="51"/>
      <point x="251" y="275"/>
      <point x="251" y="522" type="curve" smooth="yes"/>
      <point x="251" y="608"/>
      <point x="237" y="694"/>
      <point x="213" y="785" type="curve"/>
      <point x="189" y="777" type="line"/>
      <point x="211" y="688"/>
      <point x="222" y="602"/>
      <point x="222" y="521" type="curve" smooth="yes"/>
      <point x="222" y="277"/>
      <point x="139" y="57"/>
      <point x="-41" y="-176" type="curve"/>
    </contour>
  </outline>
</glyph>
<glyph name="asterisk" format="2">
  <advance width="374"/>
  <unicode hex="002A"/>
  <outline>
    <contour>
      <point x="243" y="423" type="line"/>
      <point x="277" y="470"/>
      <point x="297" y="507"/>
      <point x="314" y="535" type="curve"/>
      <point x="331" y="507"/>
      <point x="351" y="470"/>
      <point x="385" y="423" type="curve"/>
      <point x="410" y="441" type="line"/>
      <point x="379" y="491"/>
      <point x="351" y="524"/>
      <point x="330" y="549" type="curve"/>
      <point x="361" y="556"/>
      <point x="401" y="565"/>
      <point x="455" y="586" type="curve"/>
      <point x="445" y="615" type="line"/>
      <point x="392" y="598"/>
      <point x="354" y="581"/>
      <point x="325" y="569" type="curve"/>
      <point x="328" y="602"/>
      <point x="333" y="645"/>
      <point x="331" y="707" type="curve"/>
      <point x="300" y="707" type="line"/>
      <point x="298" y="646"/>
      <point x="303" y="601"/>
      <point x="306" y="568" type="curve"/>
      <point x="276" y="581"/>
      <point x="238" y="598"/>
      <point x="184" y="615" type="curve"/>
      <point x="174" y="586" type="line"/>
      <point x="227" y="566"/>
      <point x="267" y="556"/>
      <point x="298" y="549" type="curve"/>
      <point x="278" y="524"/>
      <point x="249" y="491"/>
      <point x="218" y="441" type="curve"/>
    </contour>
  </outline>
</glyph>
<glyph name="plus" format="2">
  <advance width="425"/>
  <unicode hex="002B"/>
  <outline>
    <contour>
      <point x="225" y="120" type="line"/>
      <point x="257" y="120" type="line"/>
      <point x="296" y="285" type="line"/>
      <point x="445" y="285" type="line"/>
      <point x="453" y="314" type="line"/>
      <point x="303" y="314" type="line"/>
      <point x="343" y="480" type="line"/>
      <point x="311" y="480" type="line"/>
      <point x="271" y="314" type="line"/>
      <point x="123" y="314" type="line"/>
      <point x="115" y="285" type="line"/>
      <point x="264" y="285" type="line"/>
    </contour>
  </outline>
</glyph>
<glyph name="comma" format="2">
  <advance width="182.55"/>
  <unicode hex="002C"/>
  <outline>
    <contour>
      <point x="40" y="-131" type="line"/>
      <point x="87" y="-75"/>
      <point x="127" y="-1"/>
      <point x="134" y="67" type="curve"/>
      <point x="99" y="67" type="line"/>
      <point x="94" y="13"/>
      <point x="61" y="-66"/>
      <point x="24" y="-121" type="curve"/>
    </contour>
  </outline>
</glyph>
<glyph name="hyphen" format="2">
  <advance width="216"/>
  <unicode hex="002D"/>
  <outline>
    <contour>
      <point x="92" y="265.0" type="line"/>
      <point x="251" y="265.0" type="line"/>
      <point x="259" y="295.0" type="line"/>
      <point x="100" y="295.0" type="line"/>
    </contour>
  </outline>
</glyph>
<glyph name="period" format="2">
  <advance width="182.55"/>
  <unicode hex="002E"/>
  <outline>
    <contour>
      <point x="95" y="-5" type="curve" smooth="yes"/>
      <point x="111" y="-5"/>
      <point x="124" y="10"/>
      <point x="124" y="28" type="curve" smooth="yes"/>
      <point x="124" y="43"/>
      <point x="114" y="54"/>
      <point x="100" y="54" type="curve" smooth="yes"/>
      <point x="82" y="54"/>
      <point x="70" y="36"/>
      <point x="70" y="22" type="curve" smooth="yes"/>
      <point x="70" y="8"/>
      <point x="82" y="-5"/>
    </contour>
  </outline>
</glyph>
<glyph name="slash" format="2">
  <advance width="244.4"/>
  <unicode hex="002F"/>
  <outline>
    <contour>
      <point x="-65" y="-185" type="line"/>
      <point x="-37" y="-185" type="line"/>
      <point x="429" y="783" type="line"/>
      <point x="401" y="783" type="line"/>
    </contour>
  </outline>
</glyph>
<glyph name="zero" format="2">
  <advance width="434.1"/>
  <unicode hex="0030"/>
  <outline>
    <contour>
      <point x="220" y="-10" type="curve" smooth="yes"/>
      <point x="349" y="-10"/>
      <point x="475" y="260"/>
      <point x="475" y="544" type="curve" smooth="yes"/>
      <point x="475" y="654"/>
      <point x="447" y="707"/>
      <point x="385" y="707" type="curve" smooth="yes"/>
      <point x="253" y="707"/>
      <point x="127" y="445"/>
      <point x="127" y="161" type="curve" smooth="yes"/>
      <point x="127" y="47"/>
      <point x="158" y="-10"/>
    </contour>
    <contour>
      <point x="225" y="17" type="curve" smooth="yes"/>
      <point x="179" y="17"/>
      <point x="157" y="61"/>
      <point x="157" y="166" type="curve" smooth="yes"/>
      <point x="157" y="420"/>
      <point x="273" y="681"/>
      <point x="380" y="681" type="curve" smooth="yes"/>
      <point x="425" y="681"/>
      <point x="445" y="636"/>
      <point x="445" y="537" type="curve" smooth="yes"/>
      <point x="445" y="283"/>
      <point x="330" y="17"/>
    </contour>
  </outline>
</glyph>
<glyph name="one" format="2">
  <advance width="434.1"/>
  <unicode hex="0031"/>
  <outline>
    <contour>
      <point x="245" y="0" type="line"/>
      <point x="273" y="0" type="line"/>
      <point x="439" y="693" type="line"/>
      <point x="414" y="693" type="line"/>
      <point x="366" y="623"/>
      <point x="305" y="583"/>
      <point x="253" y="557" type="curve"/>
      <point x="263" y="533" type="line"/>
      <point x="309" y="555"/>
      <point x="362" y="592"/>
      <point x="397" y="637" type="curve"/>
    </contour>
  </outline>
</glyph>
<glyph name="two" format="2">
  <advance width="434.1"/>
  <unicode hex="0032"/>
  <outline>
    <contour>
      <point x="117" y="0" type="curve"/>
      <point x="389" y="0" type="line"/>
      <point x="396" y="30" type="line"/>
      <point x="148" y="30" type="line"/>
      <point x="166" y="122"/>
      <point x="234" y="224"/>
      <point x="319" y="306" type="curve" smooth="yes"/>
      <point x="418" y="398"/>
      <point x="469" y="488"/>
      <point x="469" y="575" type="curve" smooth="yes"/>
      <point x="469" y="661"/>
      <point x="428" y="707"/>
      <point x="354" y="707" type="curve" smooth="yes"/>
      <point x="303" y="707"/>
      <point x="257" y="689"/>
      <point x="220" y="655" type="curve"/>
      <point x="233" y="634" type="line"/>
      <point x="270" y="664"/>
      <point x="310" y="680"/>
      <point x="351" y="680" type="curve" smooth="yes"/>
      <point x="408" y="680"/>
      <point x="439" y="642"/>
      <point x="439" y="570" type="curve" smooth="yes"/>
      <point x="439" y="491"/>
      <point x="391" y="406"/>
      <point x="292" y="314" type="curve" smooth="yes"/>
      <point x="199" y="228"/>
      <point x="130" y="113"/>
    </contour>
  </outline>
</glyph>
<glyph name="three" format="2">
  <advance width="425"/>
  <unicode hex="0033"/>
  <outline>
    <contour>
      <point x="190" y="-15" type="curve" smooth="yes"/>
      <point x="308" y="-15"/>
      <point x="399" y="97"/>
      <point x="399" y="225" type="curve" smooth="yes"/>
      <point x="399" y="294"/>
      <point x="374" y="343"/>
      <point x="316" y="370" type="curve"/>
      <point x="422" y="410"/>
      <point x="459" y="504"/>
      <point x="459" y="578" type="curve" smooth="yes"/>
      <point x="459" y="658"/>
      <point x="418" y="706"/>
      <point x="339" y="706" type="curve" smooth="yes"/>
      <point x="296" y="706"/>
      <point x="243" y="689"/>
      <point x="209" y="662" type="curve"/>
      <point x="226" y="638" type="line"/>
      <point x="256" y="660"/>
      <point x="299" y="676"/>
      <point x="333" y="676" type="curve" smooth="yes"/>
      <point x="394" y="676"/>
      <point x="424" y="637"/>
      <point x="424" y="573" type="curve" smooth="yes"/>
      <point x="424" y="502"/>
      <point x="378" y="387"/>
      <point x="249" y="387" type="curve" smooth="yes"/>
      <point x="224" y="387" type="line"/>
      <point x="218" y="354" type="line"/>
      <point x="243" y="354" type="line" smooth="yes"/>
      <point x="322" y="354"/>
      <point x="365" y="308"/>
      <point x="365" y="223" type="curve" smooth="yes"/>
      <point x="365" y="100"/>
      <point x="276" y="15"/>
      <point x="195" y="15" type="curve" smooth="yes"/>
      <point x="156" y="15"/>
      <point x="124" y="23"/>
      <point x="90" y="44" type="curve"/>
      <point x="74" y="16" type="line"/>
      <point x="108" y="-5"/>
      <point x="149" y="-15"/>
    </contour>
  </outline>
</glyph>
<glyph name="four" format="2">
  <advance width="420"/>
  <unicode hex="0034"/>
  <outline>
    <contour>
      <point x="219" y="0" type="line"/>
      <point x="247" y="0" type="line"/>
      <point x="292" y="184" type="line"/>
      <point x="364" y="184" type="line"/>
      <point x="369" y="212" type="line"/>
      <point x="299" y="212" type="line"/>
      <point x="413" y="693" type="line"/>
      <point x="383" y="693" type="line"/>
      <point x="275" y="563"/>
      <point x="146" y="398"/>
      <point x="45" y="206" type="curve"/>
      <point x="40" y="184" type="line"/>
      <point x="264" y="184" type="line"/>
    </contour>
    <contour>
      <point x="76" y="212" type="line"/>
      <point x="162" y="368"/>
      <point x="259" y="503"/>
      <point x="372" y="642" type="curve"/>
      <point x="270" y="212" type="line"/>
    </contour>
  </outline>
</glyph>
<glyph name="five" format="2">
  <advance width="425"/>
  <unicode hex="0035"/>
  <outline>
    <contour>
      <point x="188" y="-15" type="curve" smooth="yes"/>
      <point x="307" y="-15"/>
      <point x="403" y="96"/>
      <point x="403" y="242" type="curve" smooth="yes"/>
      <point x="403" y="331"/>
      <point x="355" y="385"/>
      <point x="236" y="406" type="curve"/>
      <point x="265" y="494"/>
      <point x="287" y="568"/>
      <point x="310" y="661" type="curve"/>
      <point x="495" y="661" type="line"/>
      <point x="504" y="693" type="line"/>
      <point x="288" y="693" type="line"/>
      <point x="268" y="612"/>
      <point x="233" y="491"/>
      <point x="195" y="379" type="curve"/>
      <point x="310" y="372"/>
      <point x="368" y="323"/>
      <point x="368" y="236" type="curve" smooth="yes"/>
      <point x="368" y="119"/>
      <point x="289" y="15"/>
      <point x="195" y="15" type="curve" smooth="yes"/>
      <point x="165" y="15"/>
      <point x="122" y="24"/>
      <point x="93" y="44" type="curve"/>
      <point x="77" y="16" type="line"/>
      <point x="115" y="-6"/>
      <point x="150" y="-15"/>
    </contour>
  </outline>
</glyph>
<glyph name="six" format="2">
  <advance width="420"/>
  <unicode hex="0036"/>
  <outline>
    <contour>
      <point x="165" y="-10" type="curve" smooth="yes"/>
      <point x="266" y="-10"/>
      <point x="354" y="123"/>
      <point x="354" y="283" type="curve" smooth="yes"/>
      <point x="354" y="369"/>
      <point x="316" y="418"/>
      <point x="243" y="418" type="curve" smooth="yes"/>
      <point x="202" y="418"/>
      <point x="165" y="406"/>
      <point x="124" y="386" type="curve"/>
      <point x="172" y="532"/>
      <point x="263" y="663"/>
      <point x="418" y="675" type="curve"/>
      <point x="422" y="699" type="line"/>
      <point x="115" y="681"/>
      <point x="63" y="293"/>
      <point x="63" y="151" type="curve" smooth="yes"/>
      <point x="63" y="47"/>
      <point x="99" y="-10"/>
    </contour>
    <contour>
      <point x="169" y="17" type="curve" smooth="yes"/>
      <point x="117" y="17"/>
      <point x="89" y="61"/>
      <point x="89" y="153" type="curve" smooth="yes"/>
      <point x="89" y="214"/>
      <point x="98" y="285"/>
      <point x="116" y="351" type="curve"/>
      <point x="154" y="378"/>
      <point x="196" y="392"/>
      <point x="239" y="392" type="curve" smooth="yes"/>
      <point x="295" y="392"/>
      <point x="325" y="351"/>
      <point x="325" y="276" type="curve" smooth="yes"/>
      <point x="325" y="135"/>
      <point x="253" y="17"/>
    </contour>
  </outline>
</glyph>
<glyph name="seven" format="2">
  <advance width="420"/>
  <unicode hex="0037"/>
  <outline>
    <contour>
      <point x="92" y="0" type="curve"/>
      <point x="124" y="0" type="line"/>
      <point x="183" y="210"/>
      <point x="329" y="508"/>
      <point x="466" y="674" type="curve"/>
      <point x="469" y="693" type="line"/>
      <point x="185" y="693" type="line"/>
      <point x="180" y="665" type="line"/>
      <point x="425" y="665" type="line"/>
      <point x="286" y="477"/>
      <point x="144" y="186"/>
    </contour>
  </outline>
</glyph>
<glyph name="eight" format="2">
  <advance width="425"/>
  <unicode hex="0038"/>
  <outline>
    <contour>
      <point x="223" y="-10" type="curve" smooth="yes"/>
      <point x="309" y="-10"/>
      <point x="404" y="67"/>
      <point x="404" y="194" type="curve" smooth="yes"/>
      <point x="404" y="261"/>
      <point x="369" y="304"/>
      <point x="330" y="344" type="curve"/>
      <point x="403" y="397"/>
      <point x="476" y="477"/>
      <point x="476" y="583" type="curve" smooth="yes"/>
      <point x="476" y="668"/>
      <point x="427" y="706"/>
      <point x="365" y="706" type="curve" smooth="yes"/>
      <point x="289" y="706"/>
      <point x="200" y="646"/>
      <point x="200" y="513" type="curve" smooth="yes"/>
      <point x="200" y="450"/>
      <point x="227" y="407"/>
      <point x="260" y="370" type="curve"/>
      <point x="163" y="315"/>
      <point x="100" y="248"/>
      <point x="100" y="133" type="curve" smooth="yes"/>
      <point x="100" y="48"/>
      <point x="147" y="-10"/>
    </contour>
    <contour>
      <point x="230" y="20" type="curve" smooth="yes"/>
      <point x="169" y="20"/>
      <point x="134" y="65"/>
      <point x="134" y="135" type="curve" smooth="yes"/>
      <point x="134" y="243"/>
      <point x="191" y="301"/>
      <point x="278" y="351" type="curve"/>
      <point x="323" y="304"/>
      <point x="371" y="262"/>
      <point x="371" y="190" type="curve" smooth="yes"/>
      <point x="371" y="85"/>
      <point x="298" y="20"/>
    </contour>
    <contour>
      <point x="312" y="363" type="curve"/>
      <point x="272" y="405"/>
      <point x="234" y="448"/>
      <point x="234" y="519" type="curve" smooth="yes"/>
      <point x="234" y="639"/>
      <point x="312" y="676"/>
      <point x="361" y="676" type="curve" smooth="yes"/>
      <point x="408" y="676"/>
      <point x="442" y="651"/>
      <point x="442" y="581" type="curve" smooth="yes"/>
      <point x="442" y="487"/>
      <point x="393" y="422"/>
    </contour>
  </outline>
</glyph>
<glyph name="nine" format="2">
  <advance width="425"/>
  <unicode hex="0039"/>
  <outline>
    <contour>
      <point x="91" y="-3" type="curve" smooth="yes"/>
      <point x="403" y="1"/>
      <point x="469" y="396"/>
      <point x="469" y="544" type="curve" smooth="yes"/>
      <point x="469" y="649"/>
      <point x="432" y="706"/>
      <point x="364" y="706" type="curve" smooth="yes"/>
      <point x="259" y="706"/>
      <point x="171" y="572"/>
      <point x="171" y="412" type="curve" smooth="yes"/>
      <point x="171" y="324"/>
      <point x="211" y="275"/>
      <point x="284" y="275" type="curve" smooth="yes"/>
      <point x="325" y="275"/>
      <point x="360" y="284"/>
      <point x="397" y="305" type="curve"/>
      <point x="347" y="151"/>
      <point x="252" y="28"/>
      <point x="89" y="26" type="curve"/>
      <point x="84" y="-3" type="line"/>
      <point x="86" y="-3"/>
      <point x="89" y="-3"/>
    </contour>
    <contour>
      <point x="291" y="304" type="curve" smooth="yes"/>
      <point x="235" y="304"/>
      <point x="205" y="344"/>
      <point x="205" y="420" type="curve" smooth="yes"/>
      <point x="205" y="558"/>
      <point x="276" y="676"/>
      <point x="360" y="676" type="curve" smooth="yes"/>
      <point x="411" y="676"/>
      <point x="437" y="632"/>
      <point x="437" y="543" type="curve" smooth="yes"/>
      <point x="437" y="480"/>
      <point x="428" y="410"/>
      <point x="409" y="341" type="curve"/>
      <point x="370" y="316"/>
      <point x="332" y="304"/>
    </contour>
  </outline>
</glyph>
<glyph name="less" format="2">
  <advance width="420"/>
  <unicode hex="003C"/>
  <outline>
    <contour>
      <point x="303" y="107" type="line"/>
      <point x="319" y="132" type="line"/>
      <point x="87" y="293" type="line"/>
      <point x="401" y="458" type="line"/>
      <point x="400" y="488" type="line"/>
      <point x="65" y="313" type="line"/>
      <point x="53" y="282" type="line"/>
    </contour>
  </outline>
</glyph>
<glyph name="equal" format="2">
  <advance width="434.1"/>
  <unicode hex="003D"/>
  <outline>
    <contour>
      <point x="144" y="380" type="line"/>
      <point x="473" y="380" type="line"/>
      <point x="480" y="407" type="line"/>
      <point x="151" y="407" type="line"/>
    </contour>
    <contour>
      <point x="99" y="191" type="line"/>
      <point x="428" y="191" type="line"/>
      <point x="435" y="218" type="line"/>
      <point x="107" y="218" type="line"/>
    </contour>
  </outline>
</glyph>
<glyph name="greater" format="2">
  <advance width="425"/>
  <unicode hex="003E"/>
  <outline>
    <contour>
      <point x="86" y="105" type="line"/>
      <point x="422" y="280" type="line"/>
      <point x="433" y="314" type="line"/>
      <point x="183" y="490" type="line"/>
      <point x="165" y="462" type="line"/>
      <point x="395" y="302" type="line"/>
      <point x="83" y="138" type="line"/>
    </contour>
  </outline>
</glyph>
<glyph name="question" format="2">
  <advance width="270"/>
  <unicode hex="003F"/>
  <outline>
    <contour>
      <point x="131" y="183" type="curve"/>
      <point x="162" y="183" type="line"/>
      <point x="162" y="307"/>
      <point x="227" y="361"/>
      <point x="290" y="419" type="curve" smooth="yes"/>
      <point x="341" y="465"/>
      <point x="387" y="520"/>
      <point x="387" y="601" type="curve" smooth="yes"/>
      <point x="387" y="661"/>
      <point x="350" y="705"/>
      <point x="277" y="705" type="curve" smooth="yes"/>
      <point x="236" y="705"/>
      <point x="201" y="695"/>
      <point x="168" y="675" type="curve"/>
      <point x="179" y="647" type="line"/>
      <point x="204" y="663"/>
      <point x="235" y="674"/>
      <point x="272" y="674" type="curve" smooth="yes"/>
      <point x="320" y="674"/>
      <point x="352" y="645"/>
      <point x="352" y="594" type="curve" smooth="yes"/>
      <point x="352" y="533"/>
      <point x="313" y="478"/>
      <point x="268" y="438" type="curve" smooth="yes"/>
      <point x="215" y="389"/>
      <point x="131" y="328"/>
    </contour>
    <contour>
      <point x="123" y="-5" type="curve" smooth="yes"/>
      <point x="140" y="-5"/>
      <point x="154" y="10"/>
      <point x="154" y="31" type="curve" smooth="yes"/>
      <point x="154" y="46"/>
      <point x="143" y="59"/>
      <point x="128" y="59" type="curve" smooth="yes"/>
      <point x="108" y="59"/>
      <point x="96" y="40"/>
      <point x="96" y="23" type="curve" smooth="yes"/>
      <point x="96" y="8"/>
      <point x="108" y="-5"/>
    </contour>
  </outline>
</glyph>
<glyph name="at" format="2">
  <advance width="778"/>
  <unicode hex="0040"/>
  <outline>
    <contour>
      <point x="398" y="-148" type="curve" smooth="yes"/>
      <point x="440" y="-148"/>
      <point x="479" y="-143"/>
      <point x="509" y="-133" type="curve"/>
      <point x="511" y="-103" type="line"/>
      <point x="476" y="-113"/>
      <point x="439" y="-118"/>
      <point x="404" y="-118" type="curve" smooth="yes"/>
      <point x="250" y="-118"/>
      <point x="170" y="-8"/>
      <point x="170" y="193" type="curve" smooth="yes"/>
      <point x="170" y="453"/>
      <point x="337" y="672"/>
      <point x="535" y="672" type="curve" smooth="yes"/>
      <point x="679" y="672"/>
      <point x="750" y="585"/>
      <point x="750" y="405" type="curve" smooth="yes"/>
      <point x="750" y="236"/>
      <point x="688" y="96"/>
      <point x="609" y="96" type="curve" smooth="yes"/>
      <point x="581" y="96"/>
      <point x="551" y="117"/>
      <point x="551" y="167" type="curve" smooth="yes"/>
      <point x="551" y="178"/>
      <point x="553" y="190"/>
      <point x="556" y="204" type="curve" smooth="yes"/>
      <point x="622" y="479" type="line"/>
      <point x="596" y="491"/>
      <point x="556" y="498"/>
      <point x="529" y="498" type="curve" smooth="yes"/>
      <point x="409" y="498"/>
      <point x="315" y="359"/>
      <point x="315" y="189" type="curve" smooth="yes"/>
      <point x="315" y="106"/>
      <point x="348" y="65"/>
      <point x="415" y="65" type="curve" smooth="yes"/>
      <point x="451" y="65"/>
      <point x="491" y="82"/>
      <point x="528" y="118" type="curve"/>
      <point x="545" y="78"/>
      <point x="583" y="68"/>
      <point x="606" y="68" type="curve" smooth="yes"/>
      <point x="708" y="68"/>
      <point x="783" y="214"/>
      <point x="783" y="412" type="curve" smooth="yes"/>
      <point x="783" y="598"/>
      <point x="697" y="702"/>
      <point x="541" y="702" type="curve" smooth="yes"/>
      <point x="320" y="702"/>
      <point x="137" y="468"/>
      <point x="137" y="185" type="curve" smooth="yes"/>
      <point x="137" y="-29"/>
      <point x="229" y="-148"/>
    </contour>
    <contour>
      <point x="418" y="96" type="curve" smooth="yes"/>
      <point x="369" y="96"/>
      <point x="348" y="124"/>
      <point x="348" y="190" type="curve" smooth="yes"/>
      <point x="348" y="338"/>
      <point x="428" y="467"/>
      <point x="521" y="467" type="curve" smooth="yes"/>
      <point x="539" y="467"/>
      <point x="555" y="466"/>
      <point x="583" y="456" type="curve"/>
      <point x="526" y="218" type="line" smooth="yes"/>
      <point x="519" y="190"/>
      <point x="518" y="168"/>
      <point x="520" y="149" type="curve"/>
      <point x="486" y="114"/>
      <point x="449" y="96"/>
    </contour>
  </outline>
</glyph>
<glyph name="A" format="2">
  <advance width="452.55"/>
  <unicode hex="0041"/>
  <outline>
    <contour>
      <point x="29" y="0" type="curve"/>
      <point x="58" y="0" type="line"/>
      <point x="80" y="62"/>
      <point x="110" y="131"/>
      <point x="142" y="203" type="curve"/>
      <point x="401" y="203" type="line"/>
      <point x="400" y="131"/>
      <point x="398" y="65"/>
      <point x="396" y="0" type="curve"/>
      <point x="426" y="0" type="line"/>
      <point x="435" y="212"/>
      <point x="428" y="445"/>
      <point x="403" y="693" type="curve"/>
      <point x="366" y="693" type="line"/>
      <point x="241" y="479"/>
      <point x="106" y="211"/>
    </contour>
    <contour>
      <point x="155" y="231" type="line"/>
      <point x="220" y="375"/>
      <point x="301" y="529"/>
      <point x="379" y="661" type="curve"/>
      <point x="393" y="509"/>
      <point x="398" y="365"/>
      <point x="401" y="231" type="curve"/>
    </contour>
  </outline>
</glyph>
<glyph name="B" format="2">
  <advance width="479"/>
  <unicode hex="0042"/>
  <outline>
    <contour>
      <point x="218" y="-2" type="curve" smooth="yes"/>
      <point x="392" y="-2"/>
      <point x="478" y="90"/>
      <point x="478" y="220" type="curve" smooth="yes"/>
      <point x="478" y="284"/>
      <point x="446" y="334"/>
      <point x="374" y="357" type="curve"/>
      <point x="503" y="390"/>
      <point x="538" y="489"/>
      <point x="538" y="567" type="curve" smooth="yes"/>
      <point x="538" y="653"/>
      <point x="479" y="697"/>
      <point x="365" y="697" type="curve" smooth="yes"/>
      <point x="326" y="697"/>
      <point x="282" y="692"/>
      <point x="246" y="683" type="curve"/>
      <point x="86" y="12" type="line"/>
      <point x="124" y="3"/>
      <point x="172" y="-2"/>
    </contour>
    <contour>
      <point x="220" y="30" type="curve" smooth="yes"/>
      <point x="189" y="30"/>
      <point x="151" y="34"/>
      <point x="126" y="39" type="curve"/>
      <point x="199" y="344" type="line"/>
      <point x="287" y="344" type="line" smooth="yes"/>
      <point x="389" y="344"/>
      <point x="441" y="299"/>
      <point x="441" y="216" type="curve" smooth="yes"/>
      <point x="441" y="99"/>
      <point x="368" y="30"/>
    </contour>
    <contour>
      <point x="207" y="376" type="line"/>
      <point x="274" y="657" type="line"/>
      <point x="296" y="662"/>
      <point x="328" y="665"/>
      <point x="358" y="665" type="curve" smooth="yes"/>
      <point x="456" y="665"/>
      <point x="502" y="635"/>
      <point x="502" y="563" type="curve" smooth="yes"/>
      <point x="502" y="475"/>
      <point x="452" y="376"/>
      <point x="306" y="376" type="curve" smooth="yes"/>
    </contour>
  </outline>
</glyph>
<glyph name="C" format="2">
  <advance width="461.3"/>
  <unicode hex="0043"/>
  <anchor x="269" y="0" name="bottom"/>
  <anchor x="469" y="672" name="top"/>
  <outline>
    <contour>
      <point x="298" y="-8" type="curve" smooth="yes"/>
      <point x="349" y="-8"/>
      <point x="394" y="5"/>
      <point x="443" y="37" type="curve"/>
      <point x="435" y="67" type="line"/>
      <point x="390" y="34"/>
      <point x="347" y="18"/>
      <point x="304" y="18" type="curve" smooth="yes"/>
      <point x="210" y="18"/>
      <point x="167" y="76"/>
      <point x="167" y="197" type="curve" smooth="yes"/>
      <point x="167" y="444"/>
      <point x="301" y="676"/>
      <point x="473" y="676" type="curve" smooth="yes"/>
      <point x="502" y="676"/>
      <point x="539" y="669"/>
      <point x="564" y="655" type="curve"/>
      <point x="577" y="682" type="line"/>
      <point x="549" y="695"/>
      <point x="516" y="703"/>
      <point x="476" y="703" type="curve" smooth="yes"/>
      <point x="283" y="703"/>
      <point x="135" y="470"/>
      <point x="135" y="191" type="curve" smooth="yes"/>
      <point x="135" y="64"/>
      <point x="193" y="-8"/>
    </contour>
  </outline>
</glyph>
<glyph name="D" format="2">
  <advance width="525"/>
  <unicode hex="0044"/>
  <outline>
    <contour>
      <point x="197" y="-2" type="curve" smooth="yes"/>
      <point x="410" y="-2"/>
      <point x="563" y="216"/>
      <point x="563" y="479" type="curve" smooth="yes"/>
      <point x="563" y="619"/>
      <point x="502" y="697"/>
      <point x="373" y="697" type="curve" smooth="yes"/>
      <point x="332" y="697"/>
      <point x="291" y="695"/>
      <point x="243" y="683" type="curve"/>
      <point x="83" y="12" type="line"/>
      <point x="109" y="5"/>
      <point x="158" y="-2"/>
    </contour>
    <contour>
      <point x="203" y="30" type="curve" smooth="yes"/>
      <point x="185" y="30"/>
      <point x="156" y="32"/>
      <point x="123" y="38" type="curve"/>
      <point x="271" y="656" type="line"/>
      <point x="303" y="663"/>
      <point x="335" y="665"/>
      <point x="365" y="665" type="curve" smooth="yes"/>
      <point x="481" y="665"/>
      <point x="527" y="603"/>
      <point x="527" y="472" type="curve" smooth="yes"/>
      <point x="527" y="236"/>
      <point x="390" y="30"/>
    </contour>
  </outline>
</glyph>
<glyph name="E" format="2">
  <advance width="395"/>
  <unicode hex="0045"/>
  <outline>
    <contour>
      <point x="82" y="0" type="line"/>
      <point x="372" y="0" type="line"/>
      <point x="379" y="31" type="line"/>
      <point x="123" y="31" type="line"/>
      <point x="200" y="350" type="line"/>
      <point x="411" y="350" type="line"/>
      <point x="418" y="381" type="line"/>
      <point x="207" y="381" type="line"/>
      <point x="275" y="662" type="line"/>
      <point x="513" y="662" type="line"/>
      <point x="520" y="693" type="line"/>
      <point x="248" y="693" type="line"/>
    </contour>
  </outline>
</glyph>
<glyph name="F" format="2">
  <advance width="365"/>
  <unicode hex="0046"/>
  <outline>
    <contour>
      <point x="79" y="0" type="line"/>
      <point x="113" y="0" type="line"/>
      <point x="197" y="349" type="line"/>
      <point x="404" y="349" type="line"/>
      <point x="411" y="380" type="line"/>
      <point x="204" y="380" type="line"/>
      <point x="272" y="662" type="line"/>
      <point x="506" y="662" type="line"/>
      <point x="513" y="693" type="line"/>
      <point x="245" y="693" type="line"/>
    </contour>
  </outline>
</glyph>
<glyph name="G" format="2">
  <advance width="482"/>
  <unicode hex="0047"/>
  <outline>
    <contour>
      <point x="297" y="-9" type="curve" smooth="yes"/>
      <point x="348" y="-9"/>
      <point x="387" y="1"/>
      <point x="432" y="22" type="curve"/>
      <point x="504" y="320" type="line"/>
      <point x="470" y="320" type="line"/>
      <point x="403" y="43" type="line"/>
      <point x="372" y="28"/>
      <point x="343" y="22"/>
      <point x="301" y="22" type="curve" smooth="yes"/>
      <point x="204" y="22"/>
      <point x="164" y="82"/>
      <point x="164" y="205" type="curve" smooth="yes"/>
      <point x="164" y="447"/>
      <point x="303" y="672"/>
      <point x="466" y="672" type="curve" smooth="yes"/>
      <point x="503" y="672"/>
      <point x="540" y="662"/>
      <point x="570" y="645" type="curve"/>
      <point x="584" y="676" type="line"/>
      <point x="552" y="692"/>
      <point x="517" y="703"/>
      <point x="469" y="703" type="curve" smooth="yes"/>
      <point x="275" y="703"/>
      <point x="128" y="467"/>
      <point x="128" y="199" type="curve" smooth="yes"/>
      <point x="128" y="64"/>
      <point x="182" y="-9"/>
    </contour>
  </outline>
</glyph>
<glyph name="H" format="2">
  <advance width="525"/>
  <unicode hex="0048"/>
  <outline>
    <contour>
      <point x="82" y="0" type="line"/>
      <point x="116" y="0" type="line"/>
      <point x="199" y="347" type="line"/>
      <point x="492" y="347" type="line"/>
      <point x="409" y="0" type="line"/>
      <point x="443" y="0" type="line"/>
      <point x="609" y="693" type="line"/>
      <point x="575" y="693" type="line"/>
      <point x="500" y="379" type="line"/>
      <point x="207" y="379" type="line"/>
      <point x="282" y="693" type="line"/>
      <point x="248" y="693" type="line"/>
    </contour>
  </outline>
</glyph>
<glyph name="I" format="2">
  <advance width="205.3"/>
  <unicode hex="0049"/>
  <outline>
    <contour>
      <point x="89" y="0" type="line"/>
      <point x="118" y="0" type="line"/>
      <point x="284" y="693" type="line"/>
      <point x="255" y="693" type="line"/>
    </contour>
  </outline>
</glyph>
<glyph name="J" format="2">
  <advance width="328"/>
  <unicode hex="004A"/>
  <outline>
    <contour>
      <point x="119" y="-7.0" type="curve" smooth="yes"/>
      <point x="206" y="-7.0"/>
      <point x="261" y="29"/>
      <point x="297" y="179.0" type="curve" smooth="yes"/>
      <point x="420" y="693.0" type="line"/>
      <point x="386" y="693.0" type="line"/>
      <point x="262" y="178.0" type="line" smooth="yes"/>
      <point x="236" y="68"/>
      <point x="199" y="24"/>
      <point x="125" y="24.0" type="curve" smooth="yes"/>
      <point x="92" y="24"/>
      <point x="61" y="33"/>
      <point x="35" y="49.0" type="curve"/>
      <point x="20" y="20.0" type="line"/>
      <point x="53" y="2"/>
      <point x="86" y="-7"/>
    </contour>
  </outline>
</glyph>
<glyph name="K" format="2">
  <advance width="444.1"/>
  <unicode hex="004B"/>
  <outline>
    <contour>
      <point x="86" y="0" type="line"/>
      <point x="116" y="0" type="line"/>
      <point x="200" y="349" type="line"/>
      <point x="290" y="263"/>
      <point x="354" y="123"/>
      <point x="387" y="0" type="curve"/>
      <point x="421" y="0" type="line"/>
      <point x="392" y="118"/>
      <point x="327" y="251"/>
      <point x="233" y="359" type="curve"/>
      <point x="357" y="467"/>
      <point x="450" y="568"/>
      <point x="563" y="693" type="curve"/>
      <point x="530" y="693" type="line"/>
      <point x="427" y="579"/>
      <point x="324" y="473"/>
      <point x="204" y="368" type="curve"/>
      <point x="282" y="693" type="line"/>
      <point x="252" y="693" type="line"/>
    </contour>
  </outline>
</glyph>
<glyph name="L" format="2">
  <advance width="354"/>
  <unicode hex="004C"/>
  <outline>
    <contour>
      <point x="79" y="0" type="line"/>
      <point x="342" y="0" type="line"/>
      <point x="350" y="32" type="line"/>
      <point x="120" y="32" type="line"/>
      <point x="279" y="693" type="line"/>
      <point x="245" y="693" type="line"/>
    </contour>
  </outline>
</glyph>
<glyph name="M" format="2">
  <advance width="657"/>
  <unicode hex="004D"/>
  <outline>
    <contour>
      <point x="70" y="0" type="curve"/>
      <point x="104" y="0" type="line"/>
      <point x="159" y="210"/>
      <point x="218" y="429"/>
      <point x="285" y="649" type="curve"/>
      <point x="319" y="453"/>
      <point x="324" y="279"/>
      <point x="334" y="103" type="curve"/>
      <point x="374" y="103" type="line"/>
      <point x="466" y="274"/>
      <point x="559" y="449"/>
      <point x="682" y="640" type="curve"/>
      <point x="643" y="423"/>
      <point x="599" y="208"/>
      <point x="553" y="0" type="curve"/>
      <point x="587" y="0" type="line"/>
      <point x="639" y="243"/>
      <point x="688" y="480"/>
      <point x="721" y="693" type="curve"/>
      <point x="683" y="693" type="line"/>
      <point x="575" y="533"/>
      <point x="478" y="353"/>
      <point x="361" y="135" type="curve"/>
      <point x="350" y="355"/>
      <point x="337" y="532"/>
      <point x="306" y="693" type="curve"/>
      <point x="268" y="693" type="line"/>
      <point x="199" y="480"/>
      <point x="134" y="243"/>
    </contour>
  </outline>
</glyph>
<glyph name="N" format="2">
  <advance width="542"/>
  <unicode hex="004E"/>
  <anchor x="219" y="0" name="bottom"/>
  <anchor x="359" y="672" name="top"/>
  <outline>
    <contour>
      <point x="26" y="0" type="line"/>
      <point x="56" y="0" type="line"/>
      <point x="210" y="646" type="line"/>
      <point x="268" y="453"/>
      <point x="320" y="227"/>
      <point x="361" y="0" type="curve"/>
      <point x="392" y="0" type="line"/>
      <point x="558" y="693" type="line"/>
      <point x="528" y="693" type="line"/>
      <point x="379" y="71" type="line"/>
      <point x="337" y="297"/>
      <point x="281" y="521"/>
      <point x="227" y="693" type="curve"/>
      <point x="192" y="693" type="line"/>
    </contour>
  </outline>
</glyph>
<glyph name="O" format="2">
  <advance width="570.05"/>
  <unicode hex="004F"/>
  <anchor x="288" y="0" name="bottom"/>
  <anchor x="371" y="347" name="center"/>
  <anchor x="453" y="10" name="ogonek"/>
  <anchor x="452" y="672" name="top"/>
  <anchor x="124" y="693" name="topleft"/>
  <anchor x="654" y="693" name="topright"/>
  <outline>
    <contour>
      <point x="288" y="-9" type="curve" smooth="yes"/>
      <point x="454" y="-9"/>
      <point x="601" y="222"/>
      <point x="601" y="501" type="curve" smooth="yes"/>
      <point x="601" y="632"/>
      <point x="549" y="703"/>
      <point x="450" y="703" type="curve" smooth="yes"/>
      <point x="285" y="703"/>
      <point x="138" y="476"/>
      <point x="138" y="199" type="curve" smooth="yes"/>
      <point x="138" y="64"/>
      <point x="189" y="-9"/>
    </contour>
    <contour>
      <point x="293" y="18" type="curve" smooth="yes"/>
      <point x="205" y="18"/>
      <point x="169" y="75"/>
      <point x="169" y="206" type="curve" smooth="yes"/>
      <point x="169" y="460"/>
      <point x="301" y="676"/>
      <point x="447" y="676" type="curve" smooth="yes"/>
      <point x="530" y="676"/>
      <point x="570" y="619"/>
      <point x="570" y="493" type="curve" smooth="yes"/>
      <point x="570" y="235"/>
      <point x="437" y="18"/>
    </contour>
  </outline>
</glyph>
<glyph name="P" format="2">
  <advance width="433"/>
  <unicode hex="0050"/>
  <outline>
    <contour>
      <point x="79" y="0" type="line"/>
      <point x="113" y="0" type="line"/>
      <point x="180" y="278" type="line"/>
      <point x="243" y="278" type="line" smooth="yes"/>
      <point x="420" y="278"/>
      <point x="531" y="396"/>
      <point x="531" y="546" type="curve" smooth="yes"/>
      <point x="531" y="650"/>
      <point x="474" y="697"/>
      <point x="367" y="697" type="curve" smooth="yes"/>
      <point x="332" y="697"/>
      <point x="284" y="694"/>
      <point x="243" y="683" type="curve"/>
    </contour>
    <contour>
      <point x="188" y="310" type="line"/>
      <point x="271" y="657" type="line"/>
      <point x="300" y="664"/>
      <point x="336" y="665"/>
      <point x="362" y="665" type="curve" smooth="yes"/>
      <point x="450" y="665"/>
      <point x="496" y="632"/>
      <point x="496" y="542" type="curve" smooth="yes"/>
      <point x="496" y="413"/>
      <point x="408" y="310"/>
      <point x="252" y="310" type="curve" smooth="yes"/>
    </contour>
  </outline>
</glyph>
<glyph name="Q" format="2">
  <advance width="562"/>
  <unicode hex="0051"/>
  <outline>
    <contour>
      <point x="460" y="-162" type="curve"/>
      <point x="473" y="-129" type="line"/>
      <point x="386" y="-117"/>
      <point x="317" y="-76"/>
      <point x="317" y="-13" type="curve" smooth="yes"/>
      <point x="317" y="-10"/>
      <point x="317" y="-8"/>
      <point x="317" y="-6" type="curve"/>
      <point x="470" y="21"/>
      <point x="598" y="240"/>
      <point x="598" y="500" type="curve" smooth="yes"/>
      <point x="598" y="631"/>
      <point x="546" y="703"/>
      <point x="446" y="703" type="curve" smooth="yes"/>
      <point x="278" y="703"/>
      <point x="132" y="475"/>
      <point x="132" y="201" type="curve" smooth="yes"/>
      <point x="132" y="64"/>
      <point x="184" y="-9"/>
      <point x="284" y="-9" type="curve"/>
      <point x="284" y="-12"/>
      <point x="284" y="-15"/>
      <point x="284" y="-18" type="curve" smooth="yes"/>
      <point x="284" y="-102"/>
      <point x="363" y="-145"/>
    </contour>
    <contour>
      <point x="290" y="22" type="curve" smooth="yes"/>
      <point x="204" y="22"/>
      <point x="168" y="78"/>
      <point x="168" y="207" type="curve" smooth="yes"/>
      <point x="168" y="455"/>
      <point x="297" y="672"/>
      <point x="441" y="672" type="curve" smooth="yes"/>
      <point x="524" y="672"/>
      <point x="562" y="616"/>
      <point x="562" y="493" type="curve" smooth="yes"/>
      <point x="562" y="241"/>
      <point x="433" y="22"/>
    </contour>
  </outline>
</glyph>
<glyph name="R" format="2">
  <advance width="469"/>
  <unicode hex="0052"/>
  <anchor x="191" y="0" name="bottom"/>
  <anchor x="311" y="667" name="top"/>
  <outline>
    <contour>
      <point x="26" y="0" type="line"/>
      <point x="56" y="0" type="line"/>
      <point x="124" y="286" type="line"/>
      <point x="198" y="286" type="line" smooth="yes"/>
      <point x="213" y="286"/>
      <point x="229" y="288"/>
      <point x="256" y="291" type="curve"/>
      <point x="289" y="211"/>
      <point x="326" y="91"/>
      <point x="342" y="0" type="curve"/>
      <point x="376" y="0" type="line"/>
      <point x="345" y="140"/>
      <point x="314" y="226"/>
      <point x="285" y="301" type="curve"/>
      <point x="404" y="340"/>
      <point x="470" y="427"/>
      <point x="470" y="544" type="curve" smooth="yes"/>
      <point x="470" y="642"/>
      <point x="414" y="697"/>
      <point x="310" y="697" type="curve" smooth="yes"/>
      <point x="272" y="697"/>
      <point x="224" y="691"/>
      <point x="190" y="683" type="curve"/>
    </contour>
    <contour>
      <point x="130" y="315" type="line"/>
      <point x="214" y="660" type="line"/>
      <point x="240" y="665"/>
      <point x="275" y="669"/>
      <point x="301" y="669" type="curve" smooth="yes"/>
      <point x="394" y="669"/>
      <point x="440" y="627"/>
      <point x="440" y="544" type="curve" smooth="yes"/>
      <point x="440" y="411"/>
      <point x="351" y="315"/>
      <point x="207" y="315" type="curve" smooth="yes"/>
    </contour>
  </outline>
</glyph>
<glyph name="S" format="2">
  <advance width="346"/>
  <unicode hex="0053"/>
  <outline>
    <contour>
      <point x="163" y="-10" type="curve" smooth="yes"/>
      <point x="281" y="-10"/>
      <point x="367" y="78"/>
      <point x="367" y="204" type="curve" smooth="yes"/>
      <point x="367" y="278"/>
      <point x="350" y="312"/>
      <point x="280" y="366" type="curve" smooth="yes"/>
      <point x="210" y="417"/>
      <point x="189" y="447"/>
      <point x="189" y="505" type="curve" smooth="yes"/>
      <point x="189" y="605"/>
      <point x="252" y="671"/>
      <point x="339" y="671" type="curve" smooth="yes"/>
      <point x="372" y="671"/>
      <point x="408" y="663"/>
      <point x="438" y="650" type="curve"/>
      <point x="448" y="681" type="line"/>
      <point x="419" y="695"/>
      <point x="386" y="703"/>
      <point x="346" y="703" type="curve" smooth="yes"/>
      <point x="235" y="703"/>
      <point x="155" y="619"/>
      <point x="155" y="502" type="curve" smooth="yes"/>
      <point x="155" y="427"/>
      <point x="180" y="394"/>
      <point x="253" y="341" type="curve" smooth="yes"/>
      <point x="317" y="293"/>
      <point x="333" y="259"/>
      <point x="333" y="200" type="curve" smooth="yes"/>
      <point x="333" y="94"/>
      <point x="267" y="22"/>
      <point x="169" y="22" type="curve" smooth="yes"/>
      <point x="132" y="22"/>
      <point x="87" y="32"/>
      <point x="46" y="49" type="curve"/>
      <point x="36" y="16" type="line"/>
      <point x="79" y="-3"/>
      <point x="128" y="-10"/>
    </contour>
  </outline>
</glyph>
<glyph name="T" format="2">
  <advance width="381"/>
  <unicode hex="0054"/>
  <outline>
    <contour>
      <point x="173" y="0.0" type="line"/>
      <point x="207" y="0.0" type="line"/>
      <point x="366" y="661.0" type="line"/>
      <point x="525" y="661.0" type="line"/>
      <point x="532" y="693.0" type="line"/>
      <point x="181" y="693.0" type="line"/>
      <point x="174" y="661.0" type="line"/>
      <point x="332" y="661.0" type="line"/>
    </contour>
  </outline>
</glyph>
<glyph name="U" format="2">
  <advance width="514.6"/>
  <unicode hex="0055"/>
  <outline>
    <contour>
      <point x="268" y="-8" type="curve" smooth="yes"/>
      <point x="387" y="-8"/>
      <point x="447" y="64"/>
      <point x="483" y="211" type="curve" smooth="yes"/>
      <point x="597" y="693" type="line"/>
      <point x="567" y="693" type="line"/>
      <point x="452" y="210" type="line" smooth="yes"/>
      <point x="421" y="82"/>
      <point x="370" y="20"/>
      <point x="271" y="20" type="curve" smooth="yes"/>
      <point x="191" y="20"/>
      <point x="152" y="56"/>
      <point x="152" y="130" type="curve" smooth="yes"/>
      <point x="152" y="153"/>
      <point x="156" y="179"/>
      <point x="163" y="209" type="curve" smooth="yes"/>
      <point x="280" y="693" type="line"/>
      <point x="250" y="693" type="line"/>
      <point x="133" y="208" type="line" smooth="yes"/>
      <point x="126" y="177"/>
      <point x="123" y="148"/>
      <point x="123" y="124" type="curve" smooth="yes"/>
      <point x="123" y="33"/>
      <point x="173" y="-8"/>
    </contour>
  </outline>
</glyph>
<glyph name="V" format="2">
  <advance width="431"/>
  <unicode hex="0056"/>
  <outline>
    <contour>
      <point x="202" y="0" type="curve"/>
      <point x="243" y="0" type="line"/>
      <point x="384" y="254"/>
      <point x="495" y="479"/>
      <point x="574" y="693" type="curve"/>
      <point x="540" y="693" type="line"/>
      <point x="470" y="503"/>
      <point x="367" y="285"/>
      <point x="231" y="38" type="curve"/>
      <point x="209" y="291"/>
      <point x="209" y="502"/>
      <point x="222" y="693" type="curve"/>
      <point x="187" y="693" type="line"/>
      <point x="172" y="478"/>
      <point x="179" y="257"/>
    </contour>
  </outline>
</glyph>
<glyph name="W" format="2">
  <advance width="683"/>
  <unicode hex="0057"/>
  <outline>
    <contour>
      <point x="160" y="0" type="curve"/>
      <point x="205" y="0" type="line"/>
      <point x="306" y="176"/>
      <point x="381" y="345"/>
      <point x="478" y="562" type="curve"/>
      <point x="475" y="342"/>
      <point x="481" y="177"/>
      <point x="499" y="0" type="curve"/>
      <point x="544" y="0" type="line"/>
      <point x="659" y="216"/>
      <point x="739" y="441"/>
      <point x="814" y="693" type="curve"/>
      <point x="779" y="693" type="line"/>
      <point x="720" y="482"/>
      <point x="644" y="278"/>
      <point x="526" y="23" type="curve"/>
      <point x="507" y="259"/>
      <point x="504" y="441"/>
      <point x="508" y="604" type="curve"/>
      <point x="465" y="604" type="line"/>
      <point x="393" y="442"/>
      <point x="316" y="260"/>
      <point x="191" y="32" type="curve"/>
      <point x="187" y="285"/>
      <point x="202" y="485"/>
      <point x="236" y="693" type="curve"/>
      <point x="200" y="693" type="line"/>
      <point x="163" y="441"/>
      <point x="149" y="218"/>
    </contour>
  </outline>
</glyph>
<glyph name="X" format="2">
  <advance width="386"/>
  <unicode hex="0058"/>
  <outline>
    <contour>
      <point x="13" y="0" type="line"/>
      <point x="50" y="0" type="line"/>
      <point x="272" y="332" type="line"/>
      <point x="302" y="229"/>
      <point x="320" y="128"/>
      <point x="338" y="0" type="curve"/>
      <point x="373" y="0" type="line"/>
      <point x="354" y="128"/>
      <point x="336" y="227"/>
      <point x="298" y="363" type="curve"/>
      <point x="397" y="501"/>
      <point x="459" y="594"/>
      <point x="519" y="693" type="curve"/>
      <point x="483" y="693" type="line"/>
      <point x="427" y="598"/>
      <point x="364" y="503"/>
      <point x="286" y="394" type="curve"/>
      <point x="219" y="693" type="line"/>
      <point x="184" y="693" type="line"/>
      <point x="260" y="366" type="line"/>
    </contour>
  </outline>
</glyph>
<glyph name="Y" format="2">
  <advance width="416"/>
  <unicode hex="0059"/>
  <anchor x="150" y="0" name="bottom"/>
  <anchor x="297" y="672" name="top"/>
  <anchor x="62" y="693" name="topleft"/>
  <outline>
    <contour>
      <point x="133" y="0" type="line"/>
      <point x="162" y="0" type="line"/>
      <point x="229" y="275" type="line"/>
      <point x="313" y="388"/>
      <point x="405" y="532"/>
      <point x="494" y="693" type="curve"/>
      <point x="464" y="693" type="line"/>
      <point x="405" y="580"/>
      <point x="329" y="456"/>
      <point x="218" y="304" type="curve"/>
      <point x="185" y="457"/>
      <point x="167" y="578"/>
      <point x="161" y="693" type="curve"/>
      <point x="131" y="693" type="line"/>
      <point x="143" y="529"/>
      <point x="171" y="386"/>
      <point x="198" y="272" type="curve"/>
    </contour>
  </outline>
</glyph>
<glyph name="Z" format="2">
  <advance width="404"/>
  <unicode hex="005A"/>
  <anchor x="137" y="0" name="bottom"/>
  <anchor x="161" y="347" name="center"/>
  <anchor x="303" y="672" name="top"/>
  <outline>
    <contour>
      <point x="-6" y="0" type="line"/>
      <point x="306" y="0" type="line"/>
      <point x="312" y="28" type="line"/>
      <point x="35" y="28" type="line"/>
      <point x="184" y="279"/>
      <point x="313" y="476"/>
      <point x="464" y="670" type="curve"/>
      <point x="469" y="693" type="line"/>
      <point x="173" y="693" type="line"/>
      <point x="168" y="665" type="line"/>
      <point x="425" y="665" type="line"/>
      <point x="249" y="430"/>
      <point x="120" y="231"/>
      <point x="0" y="26" type="curve"/>
    </contour>
  </outline>
</glyph>
<glyph name="bracketleft" format="2">
  <advance width="218"/>
  <unicode hex="005B"/>
  <outline>
    <contour>
      <point x="35" y="-185" type="line"/>
      <point x="163" y="-185" type="line"/>
      <point x="170" y="-156" type="line"/>
      <point x="74" y="-156" type="line"/>
      <point x="292" y="753" type="line"/>
      <point x="388" y="753" type="line"/>
      <point x="395" y="783" type="line"/>
      <point x="267" y="783" type="line"/>
    </contour>
  </outline>
</glyph>
<glyph name="backslash" format="2">
  <advance width="241.2"/>
  <unicode hex="005C"/>
  <outline>
    <contour>
      <point x="212" y="-186" type="line"/>
      <point x="239" y="-186" type="line"/>
      <point x="199" y="782" type="line"/>
      <point x="171" y="782" type="line"/>
    </contour>
  </outline>
</glyph>
<glyph name="bracketright" format="2">
  <advance width="212"/>
  <unicode hex="005D"/>
  <outline>
    <contour>
      <point x="-36.0" y="-185.0" type="line"/>
      <point x="92.0" y="-185.0" type="line"/>
      <point x="324.0" y="783.0" type="line"/>
      <point x="196.0" y="783.0" type="line"/>
      <point x="189.0" y="754.0" type="line"/>
      <point x="285.0" y="754.0" type="line"/>
      <point x="67.0" y="-155.0" type="line"/>
      <point x="-29.0" y="-155.0" type="line"/>
    </contour>
  </outline>
</glyph>
<glyph name="asciicircum" format="2">
  <advance width="434.1"/>
  <unicode hex="005E"/>
  <outline>
    <contour>
      <point x="181" y="332" type="line"/>
      <point x="368" y="636" type="line"/>
      <point x="414" y="332" type="line"/>
      <point x="444" y="335" type="line"/>
      <point x="392" y="683" type="line"/>
      <point x="364" y="683" type="line"/>
      <point x="152" y="342" type="line"/>
    </contour>
  </outline>
</glyph>
<glyph name="underscore" format="2">
  <advance width="316.9"/>
  <unicode hex="005F"/>
  <outline>
    <contour>
      <point x="-45" y="-182" type="line"/>
      <point x="273" y="-182" type="line"/>
      <point x="280" y="-159" type="line"/>
      <point x="-38" y="-159" type="line"/>
    </contour>
  </outline>
</glyph>
<glyph name="grave" format="2">
  <advance width="287"/>
  <unicode hex="0060"/>
  <outline>
    <contour>
      <point x="350" y="593.0" type="line"/>
      <point x="369" y="604.0" type="line"/>
      <point x="278" y="774.0" type="line"/>
      <point x="245" y="757.0" type="line"/>
    </contour>
  </outline>
</glyph>
<glyph name="a" format="2">
  <advance width="416"/>
  <unicode hex="0061"/>
  <outline>
    <contour>
      <point x="206" y="-10" type="curve" smooth="yes"/>
      <point x="245" y="-10"/>
      <point x="288" y="13"/>
      <point x="328" y="45" type="curve"/>
      <point x="330" y="27"/>
      <point x="334" y="14"/>
      <point x="339" y="-5" type="curve"/>
      <point x="374" y="1" type="line"/>
      <point x="363" y="41"/>
      <point x="352" y="67"/>
      <point x="375" y="163" type="curve" smooth="yes"/>
      <point x="457" y="505" type="line"/>
      <point x="425" y="520"/>
      <point x="385" y="529"/>
      <point x="352" y="529" type="curve" smooth="yes"/>
      <point x="210" y="529"/>
      <point x="96" y="356"/>
      <point x="96" y="144" type="curve" smooth="yes"/>
      <point x="96" y="41"/>
      <point x="131" y="-10"/>
    </contour>
    <contour>
      <point x="209" y="20" type="curve" smooth="yes"/>
      <point x="152" y="20"/>
      <point x="129" y="58"/>
      <point x="129" y="145" type="curve" smooth="yes"/>
      <point x="129" y="334"/>
      <point x="228" y="499"/>
      <point x="343" y="499" type="curve" smooth="yes"/>
      <point x="371" y="499"/>
      <point x="399" y="494"/>
      <point x="420" y="485" type="curve"/>
      <point x="349" y="192" type="line" smooth="yes"/>
      <point x="337" y="140"/>
      <point x="330" y="106"/>
      <point x="328" y="80" type="curve"/>
      <point x="289" y="44"/>
      <point x="246" y="20"/>
    </contour>
  </outline>
</glyph>
<glyph name="b" format="2">
  <advance width="415"/>
  <unicode hex="0062"/>
  <outline>
    <contour>
      <point x="181" y="-10" type="curve" smooth="yes"/>
      <point x="328" y="-10"/>
      <point x="448" y="163"/>
      <point x="448" y="375" type="curve" smooth="yes"/>
      <point x="448" y="478"/>
      <point x="410" y="529"/>
      <point x="334" y="529" type="curve" smooth="yes"/>
      <point x="301" y="529"/>
      <point x="262" y="517"/>
      <point x="221" y="483" type="curve"/>
      <point x="291" y="776" type="line"/>
      <point x="258" y="769" type="line"/>
      <point x="76" y="14" type="line"/>
      <point x="108" y="-1"/>
      <point x="148" y="-10"/>
    </contour>
    <contour>
      <point x="190" y="20" type="curve" smooth="yes"/>
      <point x="162" y="20"/>
      <point x="134" y="25"/>
      <point x="113" y="34" type="curve"/>
      <point x="210" y="440" type="line"/>
      <point x="249" y="478"/>
      <point x="293" y="499"/>
      <point x="331" y="499" type="curve" smooth="yes"/>
      <point x="389" y="499"/>
      <point x="415" y="461"/>
      <point x="415" y="374" type="curve" smooth="yes"/>
      <point x="415" y="185"/>
      <point x="310" y="20"/>
    </contour>
  </outline>
</glyph>
<glyph name="c" format="2">
  <advance width="331"/>
  <unicode hex="0063"/>
  <outline>
    <contour>
      <point x="212" y="-10" type="curve" smooth="yes"/>
      <point x="251" y="-10"/>
      <point x="284" y="1"/>
      <point x="313" y="21" type="curve"/>
      <point x="307" y="51" type="line"/>
      <point x="284" y="33"/>
      <point x="250" y="20"/>
      <point x="219" y="20" type="curve" smooth="yes"/>
      <point x="151" y="20"/>
      <point x="131" y="56"/>
      <point x="131" y="156" type="curve" smooth="yes"/>
      <point x="131" y="344"/>
      <point x="220" y="499"/>
      <point x="333" y="499" type="curve" smooth="yes"/>
      <point x="357" y="499"/>
      <point x="379" y="495"/>
      <point x="400" y="484" type="curve"/>
      <point x="412" y="515" type="line"/>
      <point x="389" y="525"/>
      <point x="363" y="529"/>
      <point x="339" y="529" type="curve" smooth="yes"/>
      <point x="202" y="529"/>
      <point x="98" y="363"/>
      <point x="98" y="152" type="curve" smooth="yes"/>
      <point x="98" y="40"/>
      <point x="130" y="-10"/>
    </contour>
  </outline>
</glyph>
<glyph name="d" format="2">
  <advance width="413"/>
  <unicode hex="0064"/>
  <outline>
    <contour>
      <point x="200" y="-10" type="curve" smooth="yes"/>
      <point x="241" y="-10"/>
      <point x="287" y="12"/>
      <point x="328" y="45" type="curve"/>
      <point x="330" y="27"/>
      <point x="334" y="14"/>
      <point x="339" y="-5" type="curve"/>
      <point x="374" y="1" type="line"/>
      <point x="363" y="41"/>
      <point x="352" y="67"/>
      <point x="375" y="163" type="curve" smooth="yes"/>
      <point x="522" y="776" type="line"/>
      <point x="489" y="769" type="line"/>
      <point x="428" y="516" type="line"/>
      <point x="407" y="524"/>
      <point x="380" y="529"/>
      <point x="356" y="529" type="curve" smooth="yes"/>
      <point x="210" y="529"/>
      <point x="92" y="356"/>
      <point x="92" y="144" type="curve" smooth="yes"/>
      <point x="92" y="41"/>
      <point x="131" y="-10"/>
    </contour>
    <contour>
      <point x="203" y="20" type="curve" smooth="yes"/>
      <point x="152" y="20"/>
      <point x="125" y="58"/>
      <point x="125" y="145" type="curve" smooth="yes"/>
      <point x="125" y="334"/>
      <point x="228" y="499"/>
      <point x="347" y="499" type="curve" smooth="yes"/>
      <point x="374" y="499"/>
      <point x="400" y="494"/>
      <point x="421" y="488" type="curve"/>
      <point x="349" y="192" type="line" smooth="yes"/>
      <point x="336" y="140"/>
      <point x="330" y="106"/>
      <point x="328" y="80" type="curve"/>
      <point x="288" y="43"/>
      <point x="242" y="20"/>
    </contour>
  </outline>
</glyph>
<glyph name="e" format="2">
  <advance width="376"/>
  <unicode hex="0065"/>
  <outline>
    <contour>
      <point x="215" y="-10" type="curve" smooth="yes"/>
      <point x="261" y="-10"/>
      <point x="310" y="9"/>
      <point x="342" y="37" type="curve"/>
      <point x="335" y="62" type="line"/>
      <point x="304" y="35"/>
      <point x="260" y="16"/>
      <point x="224" y="16" type="curve" smooth="yes"/>
      <point x="155" y="16"/>
      <point x="131" y="46"/>
      <point x="131" y="150" type="curve" smooth="yes"/>
      <point x="131" y="176"/>
      <point x="133" y="204"/>
      <point x="136" y="228" type="curve"/>
      <point x="317" y="235"/>
      <point x="425" y="311"/>
      <point x="425" y="428" type="curve" smooth="yes"/>
      <point x="424" y="488"/>
      <point x="387" y="529"/>
      <point x="331" y="529" type="curve" smooth="yes"/>
      <point x="203" y="529"/>
      <point x="102" y="352"/>
      <point x="102" y="146" type="curve" smooth="yes"/>
      <point x="102" y="34"/>
      <point x="139" y="-10"/>
    </contour>
    <contour>
      <point x="141" y="253" type="curve"/>
      <point x="167" y="396"/>
      <point x="242" y="502"/>
      <point x="328" y="502" type="curve" smooth="yes"/>
      <point x="370" y="502"/>
      <point x="398" y="473"/>
      <point x="398" y="427" type="curve" smooth="yes"/>
      <point x="398" y="323"/>
      <point x="298" y="258"/>
    </contour>
  </outline>
</glyph>
<glyph name="f" format="2">
  <advance width="255"/>
  <unicode hex="0066"/>
  <outline>
    <contour>
      <point x="15" y="-189" type="line"/>
      <point x="67" y="-126"/>
      <point x="92" y="-56"/>
      <point x="115" y="41" type="curve" smooth="yes"/>
      <point x="222" y="488" type="line"/>
      <point x="352" y="488" type="line"/>
      <point x="359" y="517" type="line"/>
      <point x="229" y="517" type="line"/>
      <point x="250" y="605" type="line" smooth="yes"/>
      <point x="277" y="719"/>
      <point x="324" y="747"/>
      <point x="374" y="747" type="curve" smooth="yes"/>
      <point x="400" y="747"/>
      <point x="416" y="743"/>
      <point x="436" y="736" type="curve"/>
      <point x="448" y="766" type="line"/>
      <point x="429" y="772"/>
      <point x="411" y="776"/>
      <point x="383" y="776" type="curve" smooth="yes"/>
      <point x="327" y="776"/>
      <point x="254" y="752"/>
      <point x="219" y="607" type="curve" smooth="yes"/>
      <point x="74" y="6" type="line" smooth="yes"/>
      <point x="55" y="-73"/>
      <point x="33" y="-121"/>
      <point x="-13" y="-183" type="curve"/>
    </contour>
  </outline>
</glyph>
<glyph name="g" format="2">
  <advance width="419.1"/>
  <unicode hex="0067"/>
  <anchor x="132" y="-200" name="bottom"/>
  <anchor x="338" y="516" name="top"/>
  <outline>
    <contour>
      <point x="133" y="-188" type="curve" smooth="yes"/>
      <point x="241" y="-188"/>
      <point x="308" y="-132"/>
      <point x="345" y="24" type="curve" smooth="yes"/>
      <point x="460" y="505" type="line"/>
      <point x="429" y="519"/>
      <point x="393" y="528"/>
      <point x="362" y="528" type="curve" smooth="yes"/>
      <point x="216" y="528"/>
      <point x="96" y="361"/>
      <point x="96" y="156" type="curve" smooth="yes"/>
      <point x="95" y="59"/>
      <point x="133" y="13"/>
      <point x="208" y="13" type="curve" smooth="yes"/>
      <point x="247" y="13"/>
      <point x="287" y="29"/>
      <point x="325" y="55" type="curve"/>
      <point x="317" y="25" type="line" smooth="yes"/>
      <point x="280" y="-113"/>
      <point x="228" y="-163"/>
      <point x="139" y="-163" type="curve" smooth="yes"/>
      <point x="101" y="-163"/>
      <point x="64" y="-150"/>
      <point x="36" y="-130" type="curve"/>
      <point x="21" y="-157" type="line"/>
      <point x="46" y="-176"/>
      <point x="95" y="-188"/>
    </contour>
    <contour>
      <point x="209" y="39" type="curve" smooth="yes"/>
      <point x="151" y="39"/>
      <point x="125" y="74"/>
      <point x="125" y="157" type="curve" smooth="yes"/>
      <point x="125" y="342"/>
      <point x="231" y="502"/>
      <point x="354" y="502" type="curve" smooth="yes"/>
      <point x="381" y="502"/>
      <point x="407" y="496"/>
      <point x="428" y="487" type="curve"/>
      <point x="334" y="93" type="line"/>
      <point x="293" y="59"/>
      <point x="249" y="39"/>
    </contour>
  </outline>
</glyph>
<glyph name="h" format="2">
  <advance width="438"/>
  <unicode hex="0068"/>
  <outline>
    <contour>
      <point x="78" y="0" type="line"/>
      <point x="110" y="0" type="line"/>
      <point x="226" y="482" type="line"/>
      <point x="255" y="492"/>
      <point x="292" y="500"/>
      <point x="322" y="500" type="curve" smooth="yes"/>
      <point x="388" y="500"/>
      <point x="419" y="470"/>
      <point x="419" y="402" type="curve" smooth="yes"/>
      <point x="419" y="377"/>
      <point x="415" y="347"/>
      <point x="406" y="311" type="curve" smooth="yes"/>
      <point x="331" y="0" type="line"/>
      <point x="363" y="0" type="line"/>
      <point x="440" y="319" type="line" smooth="yes"/>
      <point x="448" y="352"/>
      <point x="452" y="381"/>
      <point x="452" y="405" type="curve" smooth="yes"/>
      <point x="452" y="489"/>
      <point x="408" y="528"/>
      <point x="325" y="528" type="curve" smooth="yes"/>
      <point x="297" y="528"/>
      <point x="265" y="521"/>
      <point x="232" y="510" type="curve"/>
      <point x="296" y="776" type="line"/>
      <point x="263" y="769" type="line"/>
    </contour>
  </outline>
</glyph>
<glyph name="i" format="2">
  <advance width="188"/>
  <unicode hex="0069"/>
  <outline>
    <contour>
      <point x="78" y="0" type="line"/>
      <point x="110" y="0" type="line"/>
      <point x="234" y="517" type="line"/>
      <point x="202" y="517" type="line"/>
    </contour>
    <contour>
      <point x="252" y="636" type="curve" smooth="yes"/>
      <point x="269" y="636"/>
      <point x="283" y="651"/>
      <point x="283" y="671" type="curve" smooth="yes"/>
      <point x="283" y="686"/>
      <point x="272" y="698"/>
      <point x="258" y="698" type="curve" smooth="yes"/>
      <point x="237" y="698"/>
      <point x="226" y="680"/>
      <point x="226" y="663" type="curve" smooth="yes"/>
      <point x="226" y="648"/>
      <point x="237" y="636"/>
    </contour>
  </outline>
</glyph>
<glyph name="j" format="2">
  <advance width="197.3"/>
  <unicode hex="006A"/>
  <outline>
    <contour>
      <point x="-31" y="-189" type="curve" smooth="yes"/>
      <point x="50" y="-189"/>
      <point x="85" y="-129"/>
      <point x="114" y="-6" type="curve" smooth="yes"/>
      <point x="238" y="516" type="line"/>
      <point x="210" y="516" type="line"/>
      <point x="84" y="-15" type="line" smooth="yes"/>
      <point x="64" y="-100"/>
      <point x="34" y="-165"/>
      <point x="-22" y="-165" type="curve" smooth="yes"/>
      <point x="-38" y="-165"/>
      <point x="-58" y="-160"/>
      <point x="-72" y="-152" type="curve"/>
      <point x="-79" y="-176" type="line"/>
      <point x="-65" y="-184"/>
      <point x="-49" y="-189"/>
    </contour>
    <contour>
      <point x="258" y="637" type="curve" smooth="yes"/>
      <point x="274" y="637"/>
      <point x="286" y="652"/>
      <point x="286" y="670" type="curve" smooth="yes"/>
      <point x="286" y="684"/>
      <point x="276" y="696"/>
      <point x="264" y="696" type="curve" smooth="yes"/>
      <point x="244" y="696"/>
      <point x="234" y="679"/>
      <point x="234" y="663" type="curve" smooth="yes"/>
      <point x="234" y="649"/>
      <point x="244" y="637"/>
    </contour>
  </outline>
</glyph>
<glyph name="k" format="2">
  <advance width="364"/>
  <unicode hex="006B"/>
  <outline>
    <contour>
      <point x="75" y="0" type="line"/>
      <point x="107" y="0" type="line"/>
      <point x="175" y="284" type="line"/>
      <point x="245" y="229"/>
      <point x="301" y="125"/>
      <point x="336" y="0" type="curve"/>
      <point x="369" y="0" type="line"/>
      <point x="347" y="101"/>
      <point x="283" y="224"/>
      <point x="213" y="292" type="curve"/>
      <point x="284" y="349"/>
      <point x="404" y="473"/>
      <point x="431" y="517" type="curve"/>
      <point x="395" y="517" type="line"/>
      <point x="363" y="472"/>
      <point x="253" y="360"/>
      <point x="178" y="295" type="curve"/>
      <point x="293" y="776" type="line"/>
      <point x="260" y="769" type="line"/>
    </contour>
  </outline>
</glyph>
<glyph name="l" format="2">
  <advance width="225.25"/>
  <unicode hex="006C"/>
  <outline>
    <contour>
      <point x="198" y="-10" type="curve"/>
      <point x="204" y="16" type="line"/>
      <point x="106" y="34"/>
      <point x="138" y="147"/>
      <point x="155" y="216" type="curve" smooth="yes"/>
      <point x="289" y="776" type="line"/>
      <point x="261" y="770" type="line"/>
      <point x="125" y="201" type="line" smooth="yes"/>
      <point x="106" y="126"/>
      <point x="81" y="14"/>
    </contour>
  </outline>
</glyph>
<glyph name="m" format="2">
  <advance width="641"/>
  <unicode hex="006D"/>
  <outline>
    <contour>
      <point x="75" y="0" type="line"/>
      <point x="107" y="0" type="line"/>
      <point x="223" y="484" type="line"/>
      <point x="249" y="493"/>
      <point x="279" y="499"/>
      <point x="304" y="499" type="curve" smooth="yes"/>
      <point x="370" y="499"/>
      <point x="397" y="468"/>
      <point x="397" y="410" type="curve" smooth="yes"/>
      <point x="397" y="388"/>
      <point x="393" y="362"/>
      <point x="386" y="333" type="curve" smooth="yes"/>
      <point x="306" y="0" type="line"/>
      <point x="338" y="0" type="line"/>
      <point x="420" y="341" type="line" smooth="yes"/>
      <point x="427" y="368"/>
      <point x="430" y="392"/>
      <point x="430" y="413" type="curve" smooth="yes"/>
      <point x="430" y="425"/>
      <point x="429" y="436"/>
      <point x="427" y="446" type="curve"/>
      <point x="461" y="478"/>
      <point x="500" y="499"/>
      <point x="542" y="499" type="curve" smooth="yes"/>
      <point x="596" y="499"/>
      <point x="625" y="469"/>
      <point x="625" y="404" type="curve" smooth="yes"/>
      <point x="625" y="378"/>
      <point x="621" y="347"/>
      <point x="612" y="311" type="curve" smooth="yes"/>
      <point x="537" y="0" type="line"/>
      <point x="569" y="0" type="line"/>
      <point x="646" y="319" type="line" smooth="yes"/>
      <point x="654" y="353"/>
      <point x="658" y="382"/>
      <point x="658" y="407" type="curve" smooth="yes"/>
      <point x="658" y="489"/>
      <point x="617" y="527"/>
      <point x="545" y="527" type="curve" smooth="yes"/>
      <point x="504" y="527"/>
      <point x="456" y="507"/>
      <point x="417" y="474" type="curve"/>
      <point x="400" y="508"/>
      <point x="364" y="527"/>
      <point x="307" y="527" type="curve" smooth="yes"/>
      <point x="275" y="527"/>
      <point x="231" y="517"/>
      <point x="196" y="504" type="curve"/>
    </contour>
  </outline>
</glyph>
<glyph name="n" format="2">
  <advance width="438"/>
  <unicode hex="006E"/>
  <outline>
    <contour>
      <point x="78" y="0" type="line"/>
      <point x="110" y="0" type="line"/>
      <point x="226" y="484" type="line"/>
      <point x="255" y="493"/>
      <point x="289" y="499"/>
      <point x="318" y="499" type="curve" smooth="yes"/>
      <point x="415" y="499"/>
      <point x="438" y="442"/>
      <point x="406" y="311" type="curve" smooth="yes"/>
      <point x="331" y="0" type="line"/>
      <point x="363" y="0" type="line"/>
      <point x="440" y="319" type="line" smooth="yes"/>
      <point x="474" y="461"/>
      <point x="436" y="527"/>
      <point x="321" y="527" type="curve" smooth="yes"/>
      <point x="286" y="527"/>
      <point x="237" y="517"/>
      <point x="199" y="504" type="curve"/>
    </contour>
  </outline>
</glyph>
<glyph name="o" format="2">
  <advance width="409.55"/>
  <unicode hex="006F"/>
  <anchor x="202" y="0" name="bottom"/>
  <anchor x="264" y="258" name="center"/>
  <anchor x="309" y="10" name="ogonek"/>
  <anchor x="326" y="516" name="top"/>
  <anchor x="451" y="516" name="topright"/>
  <outline>
    <contour>
      <point x="210" y="-10" type="curve" smooth="yes"/>
      <point x="330" y="-10"/>
      <point x="433" y="169"/>
      <point x="433" y="384" type="curve" smooth="yes"/>
      <point x="433" y="477"/>
      <point x="395" y="529"/>
      <point x="326" y="529" type="curve" smooth="yes"/>
      <point x="204" y="529"/>
      <point x="102" y="353"/>
      <point x="102" y="139" type="curve" smooth="yes"/>
      <point x="102" y="42"/>
      <point x="138" y="-10"/>
    </contour>
    <contour>
      <point x="212" y="16" type="curve" smooth="yes"/>
      <point x="155" y="16"/>
      <point x="131" y="56"/>
      <point x="131" y="144" type="curve" smooth="yes"/>
      <point x="131" y="337"/>
      <point x="220" y="501"/>
      <point x="322" y="501" type="curve" smooth="yes"/>
      <point x="379" y="501"/>
      <point x="404" y="464"/>
      <point x="404" y="379" type="curve" smooth="yes"/>
      <point x="404" y="182"/>
      <point x="315" y="16"/>
    </contour>
  </outline>
</glyph>
<glyph name="p" format="2">
  <advance width="423.45"/>
  <unicode hex="0070"/>
  <outline>
    <contour>
      <point x="37" y="-185" type="line"/>
      <point x="64" y="-185" type="line"/>
      <point x="110" y="3" type="line"/>
      <point x="135" y="-5"/>
      <point x="163" y="-10"/>
      <point x="186" y="-10" type="curve" smooth="yes"/>
      <point x="330" y="-10"/>
      <point x="447" y="161"/>
      <point x="447" y="372" type="curve" smooth="yes"/>
      <point x="447" y="477"/>
      <point x="405" y="528"/>
      <point x="321" y="528" type="curve"/>
      <point x="293" y="528"/>
      <point x="248" y="522"/>
      <point x="202" y="503" type="curve"/>
    </contour>
    <contour>
      <point x="196" y="17" type="curve" smooth="yes"/>
      <point x="167" y="17"/>
      <point x="138" y="21"/>
      <point x="117" y="31" type="curve"/>
      <point x="226" y="485" type="line"/>
      <point x="252" y="497"/>
      <point x="288" y="503"/>
      <point x="318" y="503" type="curve" smooth="yes"/>
      <point x="385" y="503"/>
      <point x="418" y="463"/>
      <point x="418" y="371" type="curve" smooth="yes"/>
      <point x="418" y="181"/>
      <point x="314" y="17"/>
    </contour>
  </outline>
</glyph>
<glyph name="q" format="2">
  <advance width="415"/>
  <unicode hex="0071"/>
  <outline>
    <contour>
      <point x="262" y="-185" type="line"/>
      <point x="294" y="-185" type="line"/>
      <point x="460" y="505" type="line"/>
      <point x="428" y="520"/>
      <point x="388" y="529"/>
      <point x="355" y="529" type="curve" smooth="yes"/>
      <point x="212" y="529"/>
      <point x="95" y="356"/>
      <point x="95" y="144" type="curve" smooth="yes"/>
      <point x="95" y="41"/>
      <point x="131" y="-10"/>
      <point x="206" y="-10" type="curve" smooth="yes"/>
      <point x="241" y="-10"/>
      <point x="280" y="5"/>
      <point x="313" y="28" type="curve"/>
    </contour>
    <contour>
      <point x="209" y="20" type="curve" smooth="yes"/>
      <point x="152" y="20"/>
      <point x="128" y="58"/>
      <point x="128" y="145" type="curve" smooth="yes"/>
      <point x="128" y="334"/>
      <point x="230" y="499"/>
      <point x="346" y="499" type="curve" smooth="yes"/>
      <point x="374" y="499"/>
      <point x="402" y="494"/>
      <point x="423" y="485" type="curve"/>
      <point x="323" y="68" type="line"/>
      <point x="287" y="38"/>
      <point x="245" y="20"/>
    </contour>
  </outline>
</glyph>
<glyph name="r" format="2">
  <advance width="277"/>
  <unicode hex="0072"/>
  <outline>
    <contour>
      <point x="78" y="0" type="line"/>
      <point x="110" y="0" type="line"/>
      <point x="225" y="480" type="line"/>
      <point x="254" y="492"/>
      <point x="284" y="498"/>
      <point x="315" y="498" type="curve" smooth="yes"/>
      <point x="334" y="498"/>
      <point x="352" y="495"/>
      <point x="369" y="490" type="curve"/>
      <point x="377" y="519" type="line"/>
      <point x="362" y="524"/>
      <point x="342" y="527"/>
      <point x="318" y="527" type="curve" smooth="yes"/>
      <point x="282" y="527"/>
      <point x="238" y="517"/>
      <point x="198" y="500" type="curve"/>
    </contour>
  </outline>
</glyph>
<glyph name="s" format="2">
  <advance width="291"/>
  <unicode hex="0073"/>
  <outline>
    <contour>
      <point x="132" y="-10" type="curve" smooth="yes"/>
      <point x="228" y="-10"/>
      <point x="296" y="57"/>
      <point x="296" y="152" type="curve" smooth="yes"/>
      <point x="296" y="208"/>
      <point x="278" y="232"/>
      <point x="221" y="275" type="curve" smooth="yes"/>
      <point x="169" y="314"/>
      <point x="153" y="336"/>
      <point x="153" y="380.0" type="curve" smooth="yes"/>
      <point x="153" y="452"/>
      <point x="201" y="500"/>
      <point x="270" y="500" type="curve" smooth="yes"/>
      <point x="295" y="500"/>
      <point x="324" y="494"/>
      <point x="346" y="484" type="curve"/>
      <point x="357" y="513" type="line"/>
      <point x="334" y="524"/>
      <point x="307" y="529"/>
      <point x="275" y="529" type="curve" smooth="yes"/>
      <point x="185" y="529"/>
      <point x="122" y="466"/>
      <point x="122" y="377" type="curve" smooth="yes"/>
      <point x="122" y="320"/>
      <point x="142" y="295"/>
      <point x="199" y="253" type="curve" smooth="yes"/>
      <point x="250" y="216"/>
      <point x="265" y="193"/>
      <point x="265" y="149" type="curve" smooth="yes"/>
      <point x="265" y="71"/>
      <point x="214" y="19"/>
      <point x="137" y="19" type="curve" smooth="yes"/>
      <point x="108" y="19"/>
      <point x="74" y="26"/>
      <point x="42" y="39" type="curve"/>
      <point x="32" y="10" type="line"/>
      <point x="66" y="-5"/>
      <point x="104" y="-10"/>
    </contour>
  </outline>
</glyph>
<glyph name="t" format="2">
  <advance width="281"/>
  <unicode hex="0074"/>
  <outline>
    <contour>
      <point x="197" y="-11" type="curve" smooth="yes"/>
      <point x="227" y="-11"/>
      <point x="254" y="-5"/>
      <point x="279" y="7" type="curve"/>
      <point x="273" y="36" type="line"/>
      <point x="250" y="24"/>
      <point x="224" y="18"/>
      <point x="201" y="18" type="curve" smooth="yes"/>
      <point x="141" y="18"/>
      <point x="121" y="64"/>
      <point x="143" y="155" type="curve" smooth="yes"/>
      <point x="223" y="488" type="line"/>
      <point x="368" y="488" type="line"/>
      <point x="375" y="517" type="line"/>
      <point x="230" y="517" type="line"/>
      <point x="269" y="681" type="line"/>
      <point x="236" y="674" type="line"/>
      <point x="111" y="156" type="line" smooth="yes"/>
      <point x="86" y="50"/>
      <point x="117" y="-11"/>
    </contour>
  </outline>
</glyph>
<glyph name="u" format="2">
  <advance width="432"/>
  <unicode hex="0075"/>
  <outline>
    <contour>
      <point x="222" y="-10" type="curve" smooth="yes"/>
      <point x="261" y="-10"/>
      <point x="304" y="13"/>
      <point x="344" y="45" type="curve"/>
      <point x="346" y="27"/>
      <point x="350" y="14"/>
      <point x="355" y="-5" type="curve"/>
      <point x="390" y="1" type="line"/>
      <point x="379" y="41"/>
      <point x="368" y="67"/>
      <point x="391" y="163" type="curve" smooth="yes"/>
      <point x="475" y="517" type="line"/>
      <point x="444" y="517" type="line"/>
      <point x="365" y="192" type="line" smooth="yes"/>
      <point x="352" y="140"/>
      <point x="346" y="106"/>
      <point x="344" y="80" type="curve"/>
      <point x="305" y="44"/>
      <point x="262" y="19"/>
      <point x="225" y="19" type="curve" smooth="yes"/>
      <point x="140" y="19"/>
      <point x="120" y="79"/>
      <point x="151" y="206" type="curve" smooth="yes"/>
      <point x="226" y="517" type="line"/>
      <point x="194" y="517" type="line"/>
      <point x="117" y="198" type="line" smooth="yes"/>
      <point x="84" y="61"/>
      <point x="119" y="-10"/>
    </contour>
  </outline>
</glyph>
<glyph name="v" format="2">
  <advance width="348"/>
  <unicode hex="0076"/>
  <outline>
    <contour>
      <point x="100" y="0" type="curve"/>
      <point x="132" y="0" type="line"/>
      <point x="229" y="130"/>
      <point x="335" y="338"/>
      <point x="376" y="516" type="curve"/>
      <point x="348" y="516" type="line"/>
      <point x="305" y="347"/>
      <point x="226" y="182"/>
      <point x="122" y="21" type="curve"/>
      <point x="97" y="181"/>
      <point x="91" y="351"/>
      <point x="106" y="516" type="curve"/>
      <point x="78" y="516" type="line"/>
      <point x="60" y="344"/>
      <point x="72" y="154"/>
    </contour>
  </outline>
</glyph>
<glyph name="w" format="2">
  <advance width="570"/>
  <unicode hex="0077"/>
  <anchor x="236" y="0" name="bottom"/>
  <anchor x="330" y="516" name="top"/>
  <outline>
    <contour>
      <point x="101" y="0" type="curve"/>
      <point x="134" y="0" type="line"/>
      <point x="193" y="90"/>
      <point x="259" y="242"/>
      <point x="323" y="426" type="curve"/>
      <point x="320" y="245"/>
      <point x="329" y="113"/>
      <point x="347" y="0" type="curve"/>
      <point x="380" y="0" type="line"/>
      <point x="462" y="126"/>
      <point x="564" y="358"/>
      <point x="603" y="516" type="curve"/>
      <point x="574" y="516" type="line"/>
      <point x="538" y="382"/>
      <point x="475" y="214"/>
      <point x="368" y="24" type="curve"/>
      <point x="346" y="218"/>
      <point x="345" y="368"/>
      <point x="357" y="516" type="curve"/>
      <point x="322" y="516" type="line"/>
      <point x="284" y="381"/>
      <point x="224" y="213"/>
      <point x="123" y="23" type="curve"/>
      <point x="99" y="217"/>
      <point x="92" y="369"/>
      <point x="106" y="516" type="curve"/>
      <point x="80" y="516" type="line"/>
      <point x="61" y="343"/>
      <point x="73" y="154"/>
    </contour>
  </outline>
</glyph>
<glyph name="x" format="2">
  <advance width="334.85"/>
  <unicode hex="0078"/>
  <outline>
    <contour>
      <point x="13" y="0" type="line"/>
      <point x="45" y="0" type="line"/>
      <point x="223" y="251" type="line"/>
      <point x="258" y="162"/>
      <point x="284" y="78"/>
      <point x="300" y="0" type="curve"/>
      <point x="327" y="0" type="line"/>
      <point x="315" y="72"/>
      <point x="284" y="163"/>
      <point x="242" y="271" type="curve"/>
      <point x="314" y="362"/>
      <point x="373" y="451"/>
      <point x="412" y="516" type="curve"/>
      <point x="383" y="516" type="line"/>
      <point x="348" y="455"/>
      <point x="288" y="369"/>
      <point x="231" y="295" type="curve"/>
      <point x="164" y="516" type="line"/>
      <point x="133" y="516" type="line"/>
      <point x="212" y="276" type="line"/>
    </contour>
  </outline>
</glyph>
<glyph name="y" format="2">
  <advance width="344"/>
  <unicode hex="0079"/>
  <outline>
    <contour>
      <point x="17" y="-188" type="curve" smooth="yes"/>
      <point x="86" y="-188"/>
      <point x="143" y="-129"/>
      <point x="228" y="8" type="curve" smooth="yes"/>
      <point x="318" y="153"/>
      <point x="400" y="342"/>
      <point x="438" y="517" type="curve"/>
      <point x="406" y="517" type="line"/>
      <point x="377" y="382"/>
      <point x="306" y="200"/>
      <point x="209" y="27" type="curve"/>
      <point x="173" y="191"/>
      <point x="158" y="373"/>
      <point x="170" y="517" type="curve"/>
      <point x="138" y="517" type="line"/>
      <point x="128" y="331"/>
      <point x="141" y="172"/>
      <point x="185" y="-8" type="curve"/>
      <point x="120" y="-111"/>
      <point x="65" y="-158"/>
      <point x="18" y="-158" type="curve" smooth="yes"/>
      <point x="7" y="-158"/>
      <point x="-6" y="-156"/>
      <point x="-17" y="-151" type="curve"/>
      <point x="-28" y="-179" type="line"/>
      <point x="-16" y="-185"/>
      <point x="-1" y="-188"/>
    </contour>
  </outline>
</glyph>
<glyph name="z" format="2">
  <advance width="304"/>
  <unicode hex="007A"/>
  <outline>
    <contour>
      <point x="34" y="0" type="line"/>
      <point x="293" y="0" type="line"/>
      <point x="300" y="30" type="line"/>
      <point x="75" y="30" type="line"/>
      <point x="166" y="190"/>
      <point x="286" y="359"/>
      <point x="396" y="490" type="curve"/>
      <point x="401" y="517" type="line"/>
      <point x="161" y="517" type="line"/>
      <point x="154" y="487" type="line"/>
      <point x="357" y="487" type="line"/>
      <point x="231" y="334"/>
      <point x="115" y="163"/>
      <point x="39" y="27" type="curve"/>
    </contour>
  </outline>
</glyph>
<glyph name="braceleft" format="2">
  <advance width="230.5"/>
  <unicode hex="007B"/>
  <outline>
    <contour>
      <point x="164" y="-185" type="curve"/>
      <point x="171" y="-159" type="line"/>
      <point x="124" y="-159"/>
      <point x="96" y="-141"/>
      <point x="118" y="-54" type="curve" smooth="yes"/>
      <point x="170" y="163" type="line" smooth="yes"/>
      <point x="183" y="226"/>
      <point x="179" y="268"/>
      <point x="137" y="296" type="curve"/>
      <point x="193" y="321"/>
      <point x="219" y="367"/>
      <point x="235" y="434" type="curve" smooth="yes"/>
      <point x="289" y="660" type="line" smooth="yes"/>
      <point x="306" y="734"/>
      <point x="336" y="756"/>
      <point x="390" y="756" type="curve"/>
      <point x="396" y="783" type="line"/>
      <point x="325" y="783"/>
      <point x="283" y="749"/>
      <point x="261" y="659" type="curve" smooth="yes"/>
      <point x="207" y="436" type="line" smooth="yes"/>
      <point x="188" y="357"/>
      <point x="157" y="316"/>
      <point x="109" y="312" type="curve"/>
      <point x="103" y="286" type="line"/>
      <point x="143" y="280"/>
      <point x="161" y="240"/>
      <point x="142" y="161" type="curve" smooth="yes"/>
      <point x="91" y="-53" type="line" smooth="yes"/>
      <point x="67" y="-153"/>
      <point x="99" y="-185"/>
    </contour>
  </outline>
</glyph>
<glyph name="bar" format="2">
  <advance width="212"/>
  <unicode hex="007C"/>
  <outline>
    <contour>
      <point x="45.0" y="-185.0" type="line"/>
      <point x="79.0" y="-185.0" type="line"/>
      <point x="311.0" y="783.0" type="line"/>
      <point x="277.0" y="783.0" type="line"/>
    </contour>
  </outline>
</glyph>
<glyph name="braceright" format="2">
  <advance width="225"/>
  <unicode hex="007D"/>
  <outline>
    <contour>
      <point x="-26" y="-185" type="line"/>
      <point x="48" y="-185"/>
      <point x="91" y="-151"/>
      <point x="113" y="-60" type="curve" smooth="yes"/>
      <point x="166" y="161" type="line" smooth="yes"/>
      <point x="185" y="239"/>
      <point x="217" y="280"/>
      <point x="263" y="285" type="curve"/>
      <point x="270" y="314" type="line"/>
      <point x="230" y="319"/>
      <point x="213" y="360"/>
      <point x="232" y="438" type="curve" smooth="yes"/>
      <point x="283" y="650" type="line" smooth="yes"/>
      <point x="307" y="750"/>
      <point x="273" y="783"/>
      <point x="206" y="783" type="curve"/>
      <point x="199" y="754" type="line"/>
      <point x="246" y="754"/>
      <point x="272" y="736"/>
      <point x="252" y="650" type="curve" smooth="yes"/>
      <point x="201" y="436" type="line" smooth="yes"/>
      <point x="186" y="372"/>
      <point x="191" y="331"/>
      <point x="233" y="302" type="curve"/>
      <point x="177" y="277"/>
      <point x="151" y="231"/>
      <point x="135" y="163" type="curve" smooth="yes"/>
      <point x="82" y="-60" type="line" smooth="yes"/>
      <point x="65" y="-132"/>
      <point x="35" y="-155"/>
      <point x="-19" y="-155" type="curve"/>
    </contour>
  </outline>
</glyph>
<glyph name="asciitilde" format="2">
  <advance width="425"/>
  <unicode hex="007E"/>
  <outline>
    <contour>
      <point x="349" y="238.0" type="curve" smooth="yes"/>
      <point x="388" y="238"/>
      <point x="434" y="261"/>
      <point x="465" y="347.0" type="curve"/>
      <point x="437" y="355.0" type="line"/>
      <point x="411" y="279"/>
      <point x="373" y="272"/>
      <point x="356" y="272.0" type="curve" smooth="yes"/>
      <point x="308" y="272"/>
      <point x="283" y="358"/>
      <point x="218" y="358.0" type="curve" smooth="yes"/>
      <point x="179" y="358"/>
      <point x="133" y="335"/>
      <point x="102" y="249.0" type="curve"/>
      <point x="130" y="241.0" type="line"/>
      <point x="156" y="317"/>
      <point x="194" y="324"/>
      <point x="211" y="324.0" type="curve" smooth="yes"/>
      <point x="258" y="324"/>
      <point x="285" y="238"/>
    </contour>
  </outline>
</glyph>
<glyph name="exclamdown" format="2">
  <advance width="216.8"/>
  <unicode hex="00A1"/>
  <outline>
    <contour>
      <point x="53" y="-190" type="line"/>
      <point x="80" y="-190" type="line"/>
      <point x="129" y="11" type="line" smooth="yes"/>
      <point x="156" y="126"/>
      <point x="172" y="208"/>
      <point x="185" y="294" type="curve"/>
      <point x="178" y="294" type="line"/>
      <point x="158" y="238"/>
      <point x="106" y="26"/>
      <point x="100" y="11" type="curve"/>
    </contour>
    <contour>
      <point x="221" y="440" type="curve" smooth="yes"/>
      <point x="243" y="440"/>
      <point x="254" y="467"/>
      <point x="255" y="481" type="curve" smooth="yes"/>
      <point x="255" y="493"/>
      <point x="251" y="515"/>
      <point x="227" y="515" type="curve" smooth="yes"/>
      <point x="205" y="515"/>
      <point x="194" y="488"/>
      <point x="194" y="473" type="curve" smooth="yes"/>
      <point x="193" y="463"/>
      <point x="197" y="440"/>
    </contour>
  </outline>
</glyph>
<glyph name="cent" format="2">
  <advance width="421.3"/>
  <unicode hex="00A2"/>
  <outline>
    <contour>
      <point x="200" y="-100" type="line"/>
      <point x="229" y="-100" type="line"/>
      <point x="260" y="31" type="line"/>
      <point x="295" y="32"/>
      <point x="328" y="41"/>
      <point x="357" y="63" type="curve"/>
      <point x="351" y="90" type="line"/>
      <point x="328" y="71"/>
      <point x="295" y="57"/>
      <point x="263" y="57" type="curve" smooth="yes"/>
      <point x="190" y="57"/>
      <point x="161" y="98"/>
      <point x="161" y="201" type="curve" smooth="yes"/>
      <point x="161" y="392"/>
      <point x="263" y="522"/>
      <point x="378" y="522" type="curve" smooth="yes"/>
      <point x="403" y="522"/>
      <point x="426" y="518"/>
      <point x="446" y="507" type="curve"/>
      <point x="457" y="536" type="line"/>
      <point x="434" y="545"/>
      <point x="409" y="550"/>
      <point x="385" y="550" type="curve"/>
      <point x="417" y="685" type="line"/>
      <point x="388" y="685" type="line"/>
      <point x="355" y="546" type="line"/>
      <point x="231" y="529"/>
      <point x="133" y="394"/>
      <point x="133" y="197" type="curve" smooth="yes"/>
      <point x="133" y="98"/>
      <point x="165" y="44"/>
      <point x="231" y="32" type="curve"/>
    </contour>
  </outline>
</glyph>
<glyph name="sterling" format="2">
  <advance width="440"/>
  <unicode hex="00A3"/>
  <outline>
    <contour>
      <point x="107.97884307479858" y="0.0" type="curve"/>
      <point x="379.29206423568723" y="0.0" type="line"/>
      <point x="388.179559502835" y="29.641910552978516" type="line"/>
      <point x="154.4761700832793" y="29.641910552978516" type="line"/>
      <point x="191.25519285914555" y="131.0567642211914"/>
      <point x="221.66923263228253" y="244.4716178894043"/>
      <point x="238.4328402041154" y="324.32053009033206" type="curve"/>
      <point x="390.7459061983782" y="324.32053009033206" type="line"/>
      <point x="399.5137748711524" y="351.9624406433106" type="line"/>
      <point x="246.44070887688972" y="351.9624406433106" type="line"/>
      <point x="270.55305824172234" y="455.90567642211914" type="line" smooth="yes"/>
      <point x="309.4741281783415" y="622.6035008239746"/>
      <point x="358.81498249796505" y="671.2637658691407"/>
      <point x="427.7707910611975" y="671.2637658691407" type="curve" smooth="yes"/>
      <point x="462.04111448649047" y="671.2637658691407"/>
      <point x="486.6426081089968" y="663.2637658691406"/>
      <point x="507.7129328019306" y="644.1694422912598" type="curve"/>
      <point x="526.6649043014307" y="675.1886471557617" type="line"/>
      <point x="504.2405834676935" y="693.0"/>
      <point x="471.99331804376726" y="706.0"/>
      <point x="441.3188031817067" y="706.0" type="curve" smooth="yes"/>
      <point x="346.836060612737" y="706.0"/>
      <point x="281.88208112511154" y="646.9056764221191"/>
      <point x="234.0648859923534" y="441.7737934875488" type="curve" smooth="yes"/>
      <point x="212.56055371026375" y="351.9624406433106" type="line"/>
      <point x="137.83781114129403" y="351.9624406433106" type="line"/>
      <point x="129.8299424685197" y="324.32053009033206" type="line"/>
      <point x="204.5526850374894" y="324.32053009033206" type="line"/>
      <point x="179.4248885641706" y="206.28297073364257"/>
      <point x="137.27879908520296" y="84.43405853271484"/>
    </contour>
  </outline>
</glyph>
<glyph name="currency" format="2">
  <advance width="420"/>
  <unicode hex="00A4"/>
  <outline>
    <contour>
      <point x="93" y="122" type="line"/>
      <point x="145" y="198" type="line"/>
      <point x="168" y="174"/>
      <point x="199" y="162"/>
      <point x="233" y="162" type="curve" smooth="yes"/>
      <point x="267" y="162"/>
      <point x="298" y="174"/>
      <point x="321" y="196" type="curve"/>
      <point x="372" y="122" type="line"/>
      <point x="397" y="139" type="line"/>
      <point x="341" y="219" type="line"/>
      <point x="363" y="251"/>
      <point x="375" y="293"/>
      <point x="375" y="347" type="curve" smooth="yes"/>
      <point x="375" y="401"/>
      <point x="362" y="446"/>
      <point x="340" y="478" type="curve"/>
      <point x="397" y="559" type="line"/>
      <point x="372" y="576" type="line"/>
      <point x="320" y="500" type="line"/>
      <point x="296" y="521"/>
      <point x="267" y="532"/>
      <point x="233" y="532" type="curve" smooth="yes"/>
      <point x="200" y="532"/>
      <point x="170" y="521"/>
      <point x="146" y="499" type="curve"/>
      <point x="93" y="576" type="line"/>
      <point x="70" y="559" type="line"/>
      <point x="127" y="476" type="line"/>
      <point x="105" y="444"/>
      <point x="92" y="401"/>
      <point x="92" y="347" type="curve" smooth="yes"/>
      <point x="92" y="294"/>
      <point x="105" y="251"/>
      <point x="126" y="220" type="curve"/>
      <point x="70" y="139" type="line"/>
    </contour>
    <contour>
      <point x="233" y="192" type="curve" smooth="yes"/>
      <point x="171" y="192"/>
      <point x="124" y="243"/>
      <point x="124" y="347" type="curve" smooth="yes"/>
      <point x="124" y="454"/>
      <point x="171" y="503"/>
      <point x="233" y="503" type="curve" smooth="yes"/>
      <point x="297" y="503"/>
      <point x="343" y="454"/>
      <point x="343" y="347" type="curve" smooth="yes"/>
      <point x="343" y="243"/>
      <point x="297" y="192"/>
    </contour>
  </outline>
</glyph>
<glyph name="yen" format="2">
  <advance width="440"/>
  <unicode hex="00A5"/>
  <outline>
    <contour>
      <point x="197.38432821273804" y="0.0" type="line"/>
      <point x="226.80657909774777" y="0.0" type="line"/>
      <point x="255.09601847698386" y="117.18864715576171" type="line"/>
      <point x="388.0642461838931" y="117.18864715576171" type="line"/>
      <point x="397.71674588738034" y="152.67946990966797" type="line"/>
      <point x="265.3360990367944" y="152.67946990966797" type="line"/>
      <point x="297.32785175356787" y="292.4716178894043" type="line"/>
      <point x="429.7084986041539" y="292.4716178894043" type="line"/>
      <point x="439.9485791639643" y="327.9624406433106" type="line"/>
      <point x="309.0493811811763" y="327.9624406433106" type="line"/>
      <point x="413.10931410247184" y="457.43405853271486"/>
      <point x="484.5104672013143" y="576.9056764221192"/>
      <point x="558.4047749044611" y="693.0" type="curve"/>
      <point x="529.3976857320978" y="693.0" type="line"/>
      <point x="460.70866174592595" y="584.8113528442383"/>
      <point x="381.38943821648115" y="459.49082275390623"/>
      <point x="295.2929219840277" y="347.92488128662114" type="curve"/>
      <point x="265.2193600674859" y="456.20785202026366"/>
      <point x="246.08284832533388" y="572.3397349548341"/>
      <point x="233.29719404813784" y="693.0" type="curve"/>
      <point x="200.24736230680483" y="693.0" type="line"/>
      <point x="216.58247978686302" y="568.1510877990723"/>
      <point x="238.36515420189153" y="456.43405853271486"/>
      <point x="270.4435857099849" y="327.9624406433106" type="curve"/>
      <point x="145.93745372145943" y="327.9624406433106" type="line"/>
      <point x="136.28495401797215" y="292.4716178894043" type="line"/>
      <point x="267.9056008685581" y="292.4716178894043" type="line"/>
      <point x="235.91384815178463" y="152.67946990966797" type="line"/>
      <point x="103.70562044487545" y="152.67946990966797" type="line"/>
      <point x="94.05312074138817" y="117.18864715576171" type="line"/>
      <point x="225.67376759197413" y="117.18864715576171" type="line"/>
    </contour>
  </outline>
</glyph>
<glyph name="brokenbar" format="2">
  <advance width="219.2"/>
  <unicode hex="00A6"/>
  <outline>
    <contour>
      <point x="194" y="414" type="line"/>
      <point x="224" y="414" type="line"/>
      <point x="312" y="783" type="line"/>
      <point x="283" y="783" type="line"/>
    </contour>
    <contour>
      <point x="51" y="-185" type="line"/>
      <point x="80" y="-185" type="line"/>
      <point x="168" y="182" type="line"/>
      <point x="137" y="182" type="line"/>
    </contour>
  </outline>
</glyph>
<glyph name="section" format="2">
  <advance width="381"/>
  <unicode hex="00A7"/>
  <outline>
    <contour>
      <point x="167.09370854350774" y="-109.0" type="curve" smooth="yes"/>
      <point x="241.39451056071968" y="-109.0"/>
      <point x="334.00152662589755" y="-73.41485366821288"/>
      <point x="341.96458350488933" y="59.717029266357414" type="curve" smooth="yes"/>
      <point x="344.55912250069986" y="103.09432357788086"/>
      <point x="332.89873310928124" y="131.09432357788086"/>
      <point x="314.4236587390356" y="146.81135284423826" type="curve"/>
      <point x="374.6247203152997" y="187.62270568847657"/>
      <point x="419.8206422225786" y="240.33973495483397"/>
      <point x="424.508646619924" y="318.7170292663574" type="curve" smooth="yes"/>
      <point x="430.32406660438966" y="415.94323577880857"/>
      <point x="383.2772637963864" y="436.28297073364257"/>
      <point x="343.2363909556892" y="451.8113528442383" type="curve"/>
      <point x="308.45338437695113" y="462.7737934875488"/>
      <point x="251.38818126732568" y="483.15108779907223"/>
      <point x="256.32332720657723" y="565.660265045166" type="curve" smooth="yes"/>
      <point x="261.0621078416822" y="644.8864715576171"/>
      <point x="323.60855062743804" y="683.2637658691407"/>
      <point x="383.9616166217008" y="683.2637658691407" type="curve" smooth="yes"/>
      <point x="415.5367783343472" y="683.2637658691407"/>
      <point x="447.4462262188033" y="673.2637658691407"/>
      <point x="467.98740440891277" y="652.2637658691407" type="curve"/>
      <point x="485.65509772949923" y="680.2829707336425" type="line"/>
      <point x="458.1901600817333" y="697.0"/>
      <point x="421.85084891975686" y="708.0"/>
      <point x="386.2011723450498" y="708.0" type="curve" smooth="yes"/>
      <point x="316.2176277588682" y="708.0"/>
      <point x="229.10927810496568" y="674.2262065124512"/>
      <point x="221.4452877119075" y="546.0943235778809" type="curve" smooth="yes"/>
      <point x="220.02105218781745" y="522.2829707336425"/>
      <point x="226.39592977226502" y="489.09432357788086"/>
      <point x="240.62272309753828" y="463.0" type="curve"/>
      <point x="173.89553290027447" y="415.90567642211914"/>
      <point x="130.5806012126509" y="362.28297073364257"/>
      <point x="125.83278351811879" y="282.90567642211914" type="curve" smooth="yes"/>
      <point x="120.20244522940874" y="188.77379348754883"/>
      <point x="167.82416634165637" y="165.339734954834"/>
      <point x="208.4399574865979" y="146.7170292663574" type="curve" smooth="yes"/>
      <point x="250.75458305969644" y="129.37729431152343"/>
      <point x="310.7606163551955" y="114.28297073364259"/>
      <point x="306.582722611553" y="44.43405853271484" type="curve" smooth="yes"/>
      <point x="301.2943386933767" y="-43.98079513549804"/>
      <point x="233.08598352452455" y="-77.07511871337891"/>
      <point x="173.21840266820132" y="-77.07511871337891" type="curve" smooth="yes"/>
      <point x="134.2156600992316" y="-77.07511871337891"/>
      <point x="94.41067709650238" y="-65.07511871337891"/>
      <point x="70.48681304301213" y="-39.98079513549805" type="curve"/>
      <point x="48.86852621969888" y="-76.28297073364259" type="line"/>
      <point x="84.45907900262874" y="-98.09432357788086"/>
      <point x="125.53645111247745" y="-109.0"/>
    </contour>
    <contour>
      <point x="279.56119755058614" y="161.67946990966797" type="curve"/>
      <point x="212.8361798761332" y="200.1510877990723" type="line"/>
      <point x="174.03182900583874" y="219.0567642211914"/>
      <point x="158.85431218061427" y="241.96244064331052"/>
      <point x="161.57411957499374" y="287.43405853271486" type="curve" smooth="yes"/>
      <point x="165.69220002144954" y="356.28297073364257"/>
      <point x="211.77624233966426" y="412.8489122009277"/>
      <point x="257.38741000159604" y="443.0375593566894" type="curve"/>
      <point x="339.0174560337414" y="397.2829707336426" type="line" smooth="yes"/>
      <point x="382.8969119110936" y="374.2829707336426"/>
      <point x="390.81224627578814" y="348.3772943115234"/>
      <point x="388.7074972658623" y="313.1886471557617" type="curve" smooth="yes"/>
      <point x="385.3241017982335" y="256.6227056884766"/>
      <point x="340.26462768993866" y="191.77379348754883"/>
    </contour>
  </outline>
</glyph>
<glyph name="dieresis" format="2">
  <advance width="224"/>
  <unicode hex="00A8"/>
  <outline>
    <contour>
      <point x="312.33914091850744" y="634.8489122009277" type="curve" smooth="yes"/>
      <point x="335.483979205861" y="634.8489122009277"/>
      <point x="344.82639095689655" y="660.5659414672851"/>
      <point x="345.73262747412434" y="675.7170292663574" type="curve" smooth="yes"/>
      <point x="346.5305210053698" y="689.0567642211913"/>
      <point x="340.5411751814658" y="707.8681170654296"/>
      <point x="320.2639177504354" y="707.8681170654296" type="curve" smooth="yes"/>
      <point x="297.70666031940516" y="707.8681170654296"/>
      <point x="287.0110259078509" y="682.0567642211914"/>
      <point x="286.11043119481855" y="667.0" type="curve" smooth="yes"/>
      <point x="285.1872692650042" y="651.5659414672851"/>
      <point x="291.3018834874772" y="634.8489122009277"/>
    </contour>
    <contour>
      <point x="191.43559633232582" y="634.8489122009277" type="curve" smooth="yes"/>
      <point x="215.16801547600255" y="634.8489122009277"/>
      <point x="225.27042722703808" y="660.5659414672851"/>
      <point x="226.17666374426594" y="675.7170292663574" type="curve" smooth="yes"/>
      <point x="226.97455727551136" y="689.0567642211913"/>
      <point x="220.9852114516073" y="707.8681170654296"/>
      <point x="199.94795402057701" y="707.8681170654296" type="curve" smooth="yes"/>
      <point x="177.39069658954676" y="707.8681170654296"/>
      <point x="166.86748132166926" y="682.0567642211914"/>
      <point x="165.96688660863688" y="667.0" type="curve" smooth="yes"/>
      <point x="165.04372467882254" y="651.5659414672851"/>
      <point x="171.74591975761876" y="634.8489122009277"/>
    </contour>
  </outline>
</glyph>
<glyph name="copyright" format="2">
  <advance width="576"/>
  <unicode hex="00A9"/>
  <outline>
    <contour>
      <point x="348.7230924847958" y="-14.999999999999998" type="curve" smooth="yes"/>
      <point x="483.5879307721494" y="-14.999999999999998"/>
      <point x="612.6153317388453" y="118.99999999999999"/>
      <point x="626.2527634974151" y="347.0" type="curve" smooth="yes"/>
      <point x="639.890195255985" y="575.0"/>
      <point x="526.8329446381407" y="708.0"/>
      <point x="391.96810635078714" y="708.0" type="curve" smooth="yes"/>
      <point x="257.10326806343363" y="708.0"/>
      <point x="128.13568039392442" y="575.0"/>
      <point x="114.49824863535453" y="347.0" type="curve" smooth="yes"/>
      <point x="100.86081687678464" y="118.99999999999999"/>
      <point x="213.85825419744228" y="-14.999999999999998"/>
    </contour>
    <contour>
      <point x="359.10527100814085" y="134.339734954834" type="curve" smooth="yes"/>
      <point x="409.68043272078734" y="134.339734954834"/>
      <point x="446.48409281803146" y="155.33973495483397"/>
      <point x="460.0022257898986" y="165.339734954834" type="curve"/>
      <point x="451.2563058580382" y="195.83055770874023" type="line"/>
      <point x="440.4931478960043" y="186.83055770874023"/>
      <point x="414.61024992841936" y="167.64191055297852"/>
      <point x="367.7647647904799" y="167.64191055297852" type="curve" smooth="yes"/>
      <point x="301.50411793989394" y="167.64191055297852"/>
      <point x="257.48195684584323" y="227.01920486450194"/>
      <point x="264.5873068964028" y="345.8113528442383" type="curve" smooth="yes"/>
      <point x="271.3168517512557" y="458.32053009033206"/>
      <point x="322.87148757219705" y="523.1694422912598"/>
      <point x="384.8148769917527" y="523.1694422912598" type="curve" smooth="yes"/>
      <point x="428.62036212969224" y="523.1694422912598"/>
      <point x="451.2697266395279" y="503.8864715576172"/>
      <point x="465.8117803704741" y="492.8864715576172" type="curve"/>
      <point x="479.5457736964677" y="520.3772943115234" type="line"/>
      <point x="468.86917506690367" y="532.4716178894042"/>
      <point x="438.5571133430615" y="556.4716178894043"/>
      <point x="388.56953248673824" y="556.4716178894043" type="curve" smooth="yes"/>
      <point x="316.43985591203125" y="556.4716178894043"/>
      <point x="239.30988242600083" y="479.28297073364257"/>
      <point x="231.4574150819553" y="348.0" type="curve" smooth="yes"/>
      <point x="223.36005274496745" y="212.62270568847657"/>
      <point x="283.00317528975705" y="134.339734954834"/>
    </contour>
    <contour>
      <point x="350.84591561357604" y="20.49082275390625" type="curve" smooth="yes"/>
      <point x="222.85284961931333" y="20.49082275390625"/>
      <point x="138.2823990422014" y="152.15108779907226"/>
      <point x="149.93695493418264" y="347.0" type="curve" smooth="yes"/>
      <point x="161.5915108261639" y="541.8489122009278"/>
      <point x="261.85221722774423" y="672.5091772460938"/>
      <point x="389.8452832220069" y="672.5091772460938" type="curve" smooth="yes"/>
      <point x="517.8383492162695" y="672.5091772460938"/>
      <point x="602.468613090568" y="541.8489122009278"/>
      <point x="590.8140571985869" y="347.0" type="curve" smooth="yes"/>
      <point x="579.1595013066055" y="152.15108779907226"/>
      <point x="478.8389816078388" y="20.49082275390625"/>
    </contour>
  </outline>
</glyph>
<glyph name="ordfeminine" format="2">
  <advance width="345"/>
  <unicode hex="00AA"/>
  <outline>
    <contour>
      <point x="198" y="335" type="curve" smooth="yes"/>
      <point x="222" y="335"/>
      <point x="251" y="350"/>
      <point x="277" y="371" type="curve"/>
      <point x="277" y="358"/>
      <point x="281" y="350"/>
      <point x="283" y="338" type="curve"/>
      <point x="314" y="342" type="line"/>
      <point x="307" y="368"/>
      <point x="300" y="384"/>
      <point x="317" y="450" type="curve" smooth="yes"/>
      <point x="373" y="685" type="line"/>
      <point x="351" y="696"/>
      <point x="321" y="701"/>
      <point x="297" y="701" type="curve" smooth="yes"/>
      <point x="198" y="701"/>
      <point x="119" y="584"/>
      <point x="119" y="439" type="curve" smooth="yes"/>
      <point x="119" y="369"/>
      <point x="144" y="335"/>
    </contour>
    <contour>
      <point x="197" y="361" type="curve" smooth="yes"/>
      <point x="164" y="361"/>
      <point x="148" y="385"/>
      <point x="148" y="439" type="curve" smooth="yes"/>
      <point x="148" y="565"/>
      <point x="219" y="674"/>
      <point x="290" y="674" type="curve" smooth="yes"/>
      <point x="307" y="674"/>
      <point x="325" y="672"/>
      <point x="338" y="666" type="curve"/>
      <point x="291" y="472" type="line" smooth="yes"/>
      <point x="284" y="437"/>
      <point x="279" y="415"/>
      <point x="278" y="400" type="curve"/>
      <point x="251" y="374"/>
      <point x="223" y="361"/>
    </contour>
  </outline>
</glyph>
<glyph name="logicalnot" format="2">
  <advance width="434.1"/>
  <unicode hex="00AC"/>
  <outline>
    <contour>
      <point x="375" y="140" type="line"/>
      <point x="406" y="140" type="line"/>
      <point x="463" y="383" type="line"/>
      <point x="135" y="383" type="line"/>
      <point x="129" y="356" type="line"/>
      <point x="427" y="356" type="line"/>
    </contour>
  </outline>
</glyph>
<glyph name="registered" format="2">
  <advance width="705.9"/>
  <unicode hex="00AE"/>
  <outline>
    <contour>
      <point x="436" y="-15" type="curve" smooth="yes"/>
      <point x="617" y="-15"/>
      <point x="722" y="140"/>
      <point x="722" y="345" type="curve" smooth="yes"/>
      <point x="722" y="549"/>
      <point x="617" y="706"/>
      <point x="436" y="706" type="curve" smooth="yes"/>
      <point x="255" y="706"/>
      <point x="149" y="549"/>
      <point x="149" y="345" type="curve" smooth="yes"/>
      <point x="149" y="140"/>
      <point x="255" y="-15"/>
    </contour>
    <contour>
      <point x="436" y="10" type="curve" smooth="yes"/>
      <point x="278" y="10"/>
      <point x="177" y="143"/>
      <point x="177" y="345" type="curve" smooth="yes"/>
      <point x="177" y="545"/>
      <point x="278" y="680"/>
      <point x="436" y="680" type="curve" smooth="yes"/>
      <point x="589" y="680"/>
      <point x="695" y="548"/>
      <point x="695" y="345" type="curve" smooth="yes"/>
      <point x="695" y="145"/>
      <point x="591" y="10"/>
    </contour>
    <contour>
      <point x="336" y="148" type="line"/>
      <point x="365" y="148" type="line"/>
      <point x="365" y="316" type="line"/>
      <point x="395" y="316" type="line" smooth="yes"/>
      <point x="407" y="316"/>
      <point x="420" y="316"/>
      <point x="432" y="316" type="curve"/>
      <point x="470" y="263"/>
      <point x="502" y="205"/>
      <point x="529" y="148" type="curve"/>
      <point x="563" y="148" type="line"/>
      <point x="524" y="224"/>
      <point x="492" y="278"/>
      <point x="464" y="321" type="curve"/>
      <point x="512" y="338"/>
      <point x="542" y="374"/>
      <point x="542" y="429" type="curve" smooth="yes"/>
      <point x="542" y="503"/>
      <point x="506" y="546"/>
      <point x="420" y="546" type="curve" smooth="yes"/>
      <point x="390" y="546"/>
      <point x="361" y="541"/>
      <point x="336" y="534" type="curve"/>
    </contour>
    <contour>
      <point x="365" y="341" type="line"/>
      <point x="365" y="516" type="line"/>
      <point x="384" y="518"/>
      <point x="400" y="521"/>
      <point x="419" y="521" type="curve" smooth="yes"/>
      <point x="482" y="521"/>
      <point x="512" y="490"/>
      <point x="512" y="429" type="curve"/>
      <point x="512" y="371"/>
      <point x="481" y="341"/>
      <point x="419" y="341" type="curve" smooth="yes"/>
    </contour>
  </outline>
</glyph>
<glyph name="macron" format="2">
  <advance width="294.75"/>
  <unicode hex="00AF"/>
  <outline>
    <contour>
      <point x="217" y="665" type="line"/>
      <point x="397" y="665" type="line"/>
      <point x="404" y="691" type="line"/>
      <point x="222" y="691" type="line"/>
    </contour>
  </outline>
</glyph>
<glyph name="degree" format="2">
  <advance width="231"/>
  <unicode hex="00B0"/>
  <outline>
    <contour>
      <point x="257.3888090441222" y="527.4148536682128" type="curve" smooth="yes"/>
      <point x="307.0633239061828" y="527.4148536682128"/>
      <point x="352.33463748399987" y="571.0375593566895"/>
      <point x="356.9718656435857" y="648.5659414672851" type="curve" smooth="yes"/>
      <point x="361.60909380317156" y="726.0943235778808"/>
      <point x="321.55621594422104" y="769.7170292663574"/>
      <point x="271.8817010821604" y="769.7170292663574" type="curve" smooth="yes"/>
      <point x="222.20718622009989" y="769.7170292663574"/>
      <point x="177.5234534986061" y="726.0943235778808"/>
      <point x="172.88622533902023" y="648.5659414672851" type="curve" smooth="yes"/>
      <point x="168.24899717943435" y="571.0375593566895"/>
      <point x="207.71429418206168" y="527.4148536682128"/>
    </contour>
    <contour>
      <point x="258.7713053898799" y="550.5283821105957" type="curve" smooth="yes"/>
      <point x="220.28582025194046" y="550.5283821105957"/>
      <point x="192.8111560393378" y="587.9056764221191"/>
      <point x="196.4394464999089" y="648.5659414672851" type="curve" smooth="yes"/>
      <point x="200.06773696048003" y="709.2262065124512"/>
      <point x="232.01371959846327" y="746.6035008239746"/>
      <point x="270.4992047364027" y="746.6035008239746" type="curve" smooth="yes"/>
      <point x="309.5722707306654" y="746.6035008239746"/>
      <point x="337.0469349432681" y="709.2262065124512"/>
      <point x="333.418644482697" y="648.5659414672851" type="curve" smooth="yes"/>
      <point x="329.7903540221259" y="587.9056764221191"/>
      <point x="297.8443713841426" y="550.5283821105957"/>
    </contour>
  </outline>
</glyph>
<glyph name="plusminus" format="2">
  <advance width="434.1"/>
  <unicode hex="00B1"/>
  <outline>
    <contour>
      <point x="234" y="124" type="line"/>
      <point x="263" y="124" type="line"/>
      <point x="304" y="290" type="line"/>
      <point x="451" y="290" type="line"/>
      <point x="459" y="318" type="line"/>
      <point x="311" y="318" type="line"/>
      <point x="349" y="484" type="line"/>
      <point x="320" y="484" type="line"/>
      <point x="280" y="318" type="line"/>
      <point x="129" y="318" type="line"/>
      <point x="123" y="290" type="line"/>
      <point x="272" y="290" type="line"/>
    </contour>
    <contour>
      <point x="55" y="10" type="line"/>
      <point x="384" y="10" type="line"/>
      <point x="391" y="38" type="line"/>
      <point x="63" y="38" type="line"/>
    </contour>
  </outline>
</glyph>
<glyph name="twosuperior" format="2">
  <advance width="288"/>
  <unicode hex="00B2"/>
  <outline>
    <contour>
      <point x="133.65513146024864" y="323.5659414672852" type="curve"/>
      <point x="306.2386760464303" y="323.5659414672852" type="line"/>
      <point x="315.41969012030734" y="354.05676422119143" type="line"/>
      <point x="166.31904326972133" y="354.05676422119143" type="line"/>
      <point x="177.5480652231396" y="404.90567642211914"/>
      <point x="220.69630361328834" y="436.09432357788086"/>
      <point x="266.61217956534915" y="471.3772943115235" type="curve" smooth="yes"/>
      <point x="313.39858283181786" y="505.0943235778808"/>
      <point x="371.3040240472929" y="545.0"/>
      <point x="375.62750685732254" y="617.2829707336426" type="curve" smooth="yes"/>
      <point x="379.9938775519524" y="690.2829707336425"/>
      <point x="341.36117234504985" y="708.0"/>
      <point x="301.1514957703428" y="708.0" type="curve" smooth="yes"/>
      <point x="271.2369809082823" y="708.0"/>
      <point x="244.54125848694113" y="698.2829707336426"/>
      <point x="214.35875999375952" y="669.5659414672853" type="curve"/>
      <point x="223.51988362570393" y="650.075118713379" type="line"/>
      <point x="238.26527127112652" y="660.4148536682128"/>
      <point x="268.0607750852016" y="678.6035008239746"/>
      <point x="302.74626022314106" y="678.6035008239746" type="curve" smooth="yes"/>
      <point x="327.3090027921108" y="678.6035008239746"/>
      <point x="346.75158996246523" y="659.4148536682129"/>
      <point x="344.3850205470105" y="619.8489122009278" type="curve" smooth="yes"/>
      <point x="340.86507307242186" y="561.0"/>
      <point x="298.66974251064966" y="529.6227056884766"/>
      <point x="265.8384276651919" y="505.0943235778808" type="curve" smooth="yes"/>
      <point x="222.33822444346293" y="474.8489122009277"/>
      <point x="146.89451689137067" y="436.320530090332"/>
    </contour>
  </outline>
</glyph>
<glyph name="acute" format="2">
  <advance width="279"/>
  <unicode hex="00B4"/>
  <outline>
    <contour>
      <point x="227.6808755008577" y="586.2829707336425" type="line"/>
      <point x="367.55303138028677" y="711.0" type="line"/>
      <point x="350.5406176368893" y="762.0567642211913" type="line"/>
      <point x="214.8654451432764" y="622.6227056884766" type="line"/>
    </contour>
  </outline>
</glyph>
<glyph name="micro" format="2">
  <advance width="449.8"/>
  <unicode hex="00B5"/>
  <outline>
    <contour>
      <point x="40" y="-185" type="line"/>
      <point x="68" y="-185" type="line"/>
      <point x="115" y="23" type="line" smooth="yes"/>
      <point x="118" y="36"/>
      <point x="121" y="49"/>
      <point x="124" y="61" type="curve"/>
      <point x="141" y="8"/>
      <point x="177" y="-10"/>
      <point x="234" y="-10" type="curve" smooth="yes"/>
      <point x="273" y="-9"/>
      <point x="317" y="14"/>
      <point x="357" y="46" type="curve"/>
      <point x="359" y="27"/>
      <point x="363" y="15"/>
      <point x="369" y="-5" type="curve"/>
      <point x="400" y="1" type="line"/>
      <point x="389" y="39"/>
      <point x="378" y="63"/>
      <point x="401" y="160" type="curve" smooth="yes"/>
      <point x="486" y="516" type="line"/>
      <point x="459" y="516" type="line"/>
      <point x="380" y="191" type="line" smooth="yes"/>
      <point x="367" y="138"/>
      <point x="360" y="103"/>
      <point x="358" y="77" type="curve"/>
      <point x="318" y="40"/>
      <point x="273" y="15"/>
      <point x="236" y="15" type="curve" smooth="yes"/>
      <point x="151" y="15"/>
      <point x="131" y="82"/>
      <point x="157" y="192" type="curve" smooth="yes"/>
      <point x="235" y="516" type="line"/>
      <point x="208" y="516" type="line"/>
    </contour>
  </outline>
</glyph>
<glyph name="mu" format="2">
  <advance width="423"/>
  <unicode hex="00B5"/>
  <outline>
    <contour>
      <point x="22.59455053499581" y="-192.660265045166" type="line"/>
      <point x="53.779543988975306" y="-192.660265045166" type="line"/>
      <point x="102.15919320686605" y="16.641060180664063" type="line"/>
      <point x="103.66781547348386" y="20.50917724609375"/>
      <point x="108.94131217921677" y="35.320530090332035"/>
      <point x="113.78056933574402" y="45.75458862304687" type="curve"/>
      <point x="128.80185085404628" y="14.471617889404298"/>
      <point x="158.44881953150727" y="-12.0"/>
      <point x="209.75220895106295" y="-12.0" type="curve" smooth="yes"/>
      <point x="256.9425323763559" y="-12.0"/>
      <point x="305.14404004962745" y="4.90567642211914"/>
      <point x="349.2605748031546" y="52.28297073364258" type="curve"/>
      <point x="356.58616580456845" y="3.8113528442382814"/>
      <point x="407.46810425644145" y="-9.0"/>
      <point x="415.1267805187123" y="-7.905676422119141" type="curve"/>
      <point x="422.06860394510727" y="22.73623413085938" type="line"/>
      <point x="360.1947745535447" y="40.01920486450195"/>
      <point x="374.4862796817385" y="113.77379348754883"/>
      <point x="391.66430739038594" y="184.96244064331057" type="curve" smooth="yes"/>
      <point x="473.1309458701606" y="513.7170292663574" type="line"/>
      <point x="441.9459524161811" y="513.7170292663574" type="line"/>
      <point x="374.9418172771516" y="244.81135284423831" type="line" smooth="yes"/>
      <point x="357.21973396463704" y="168.5851463317871"/>
      <point x="347.52488961941435" y="130.67946990966797"/>
      <point x="344.6059691164973" y="94.58514633178712" type="curve"/>
      <point x="309.3898644741856" y="49.30217559814453"/>
      <point x="270.01556948703194" y="21.736234130859376"/>
      <point x="210.7991140732136" y="21.736234130859376" type="curve" smooth="yes"/>
      <point x="97.03507780307196" y="21.736234130859376"/>
      <point x="137.57187022816348" y="153.62270568847657"/>
      <point x="173.86745442658838" y="307.6035008239746" type="curve" smooth="yes"/>
      <point x="225.05787987589784" y="513.7170292663574" type="line"/>
      <point x="194.46046727824157" y="513.7170292663574" type="line"/>
    </contour>
  </outline>
</glyph>
<glyph name="paragraph" format="2">
  <advance width="432.55"/>
  <unicode hex="00B6"/>
  <outline>
    <contour>
      <point x="172" y="-185" type="line"/>
      <point x="202" y="-185" type="line"/>
      <point x="408" y="670" type="line"/>
      <point x="433" y="674"/>
      <point x="460" y="672"/>
      <point x="479" y="668" type="curve"/>
      <point x="276" y="-185" type="line"/>
      <point x="305" y="-185" type="line"/>
      <point x="514" y="686" type="line"/>
      <point x="503" y="692"/>
      <point x="471" y="697"/>
      <point x="445" y="697" type="curve" smooth="yes"/>
      <point x="284" y="697"/>
      <point x="139" y="589"/>
      <point x="139" y="417" type="curve" smooth="yes"/>
      <point x="139" y="330"/>
      <point x="186" y="272"/>
      <point x="281" y="266" type="curve"/>
    </contour>
  </outline>
</glyph>
<glyph name="cedilla" format="2">
  <advance width="270"/>
  <unicode hex="00B8"/>
  <outline>
    <contour>
      <point x="75.29160682458986" y="-172.77379348754883" type="curve" smooth="yes"/>
      <point x="121.40886425562016" y="-172.77379348754883"/>
      <point x="155.56455537276327" y="-142.8681170654297"/>
      <point x="158.2053775084057" y="-98.71702926635741" type="curve" smooth="yes"/>
      <point x="160.25031322114484" y="-64.5283821105957"/>
      <point x="151.59327312973986" y="-53.90567642211914"/>
      <point x="128.52797342697292" y="-35.81135284423828" type="curve"/>
      <point x="136.49740532563703" y="-19.81135284423828"/>
      <point x="152.65368658777726" y="6.0"/>
      <point x="161.85107274839118" y="20.0" type="curve"/>
      <point x="136.70752816220954" y="20.0" type="line"/>
      <point x="127.80218773964577" y="8.0"/>
      <point x="97.63096277187041" y="-39.0"/>
      <point x="85.96358460415249" y="-66.0" type="curve"/>
      <point x="112.01122343370535" y="-81.0"/>
      <point x="119.07290375902495" y="-90.0"/>
      <point x="117.74572761252634" y="-112.18864715576173" type="curve" smooth="yes"/>
      <point x="116.2989248716543" y="-136.37729431152346"/>
      <point x="99.38544348432741" y="-145.37729431152343"/>
      <point x="74.65028177168094" y="-145.37729431152343" type="curve" smooth="yes"/>
      <point x="62.31786262800418" y="-145.37729431152343"/>
      <point x="51.27458998715181" y="-143.47161788940429"/>
      <point x="40.755595525213096" y="-138.56594146728517" type="curve"/>
      <point x="29.598516261180446" y="-165.15108779907226" type="line"/>
      <point x="48.23825753437232" y="-174.05676422119143"/>
      <point x="60.749511106206086" y="-172.77379348754883"/>
    </contour>
  </outline>
</glyph>
<glyph name="onesuperior" format="2">
  <advance width="288"/>
  <unicode hex="00B9"/>
  <outline>
    <contour>
      <point x="241.02610173612757" y="323.5659414672852" type="line"/>
      <point x="268.551742040693" y="323.5659414672852" type="line"/>
      <point x="359.5146550000175" y="697.9056764221192" type="line"/>
      <point x="343.31869127015915" y="697.9056764221192" type="line"/>
      <point x="311.3600141756442" y="664.9056764221191"/>
      <point x="280.0754352824848" y="642.0"/>
      <point x="228.83741698943612" y="621.0943235778809" type="curve"/>
      <point x="232.93041437476867" y="597.6978244018555" type="line"/>
      <point x="241.3594327482642" y="598.320530090332"/>
      <point x="285.782734158033" y="614.4148536682128"/>
      <point x="318.3677112579549" y="646.8864715576171" type="curve"/>
    </contour>
  </outline>
</glyph>
<glyph name="ordmasculine" format="2">
  <advance width="351"/>
  <unicode hex="00BA"/>
  <outline>
    <contour>
      <point x="253.28065521810007" y="340.8489122009277" type="curve" smooth="yes"/>
      <point x="357.33033179280716" y="340.8489122009277"/>
      <point x="424.266433832706" y="468.8489122009277"/>
      <point x="430.8718589952578" y="579.2829707336426" type="curve" smooth="yes"/>
      <point x="434.4809774942786" y="639.6227056884765"/>
      <point x="414.0762773521076" y="703.9056764221192"/>
      <point x="358.5645050590167" y="703.9056764221192" type="curve" smooth="yes"/>
      <point x="254.51482848430962" y="703.9056764221192"/>
      <point x="187.57872644441073" y="575.9056764221191"/>
      <point x="180.97330128185894" y="465.4716178894043" type="curve" smooth="yes"/>
      <point x="177.36418278283813" y="405.13188293457034"/>
      <point x="197.76888292500925" y="340.8489122009277"/>
    </contour>
    <contour>
      <point x="266.45726111583895" y="373.43405853271486" type="curve" smooth="yes"/>
      <point x="224.51661426525297" y="373.43405853271486"/>
      <point x="211.8773965608817" y="412.1886471557617"/>
      <point x="215.60274639904424" y="474.4716178894043" type="curve" smooth="yes"/>
      <point x="220.49051135576795" y="556.1886471557617"/>
      <point x="272.04450974172215" y="671.320530090332"/>
      <point x="345.3878991612778" y="671.320530090332" type="curve" smooth="yes"/>
      <point x="387.32854601186375" y="671.320530090332"/>
      <point x="400.03321881761724" y="633.660265045166"/>
      <point x="396.2424138780725" y="570.2829707336425" type="curve" smooth="yes"/>
      <point x="391.35464892134877" y="488.5659414672852"/>
      <point x="339.8006505353946" y="373.43405853271486"/>
    </contour>
  </outline>
</glyph>
<glyph name="questiondown" format="2">
  <advance width="295"/>
  <unicode hex="00BF"/>
  <outline>
    <contour>
      <point x="180.87514679519725" y="-184.7170292663574" type="curve" smooth="yes"/>
      <point x="214.00208080093455" y="-184.7170292663574"/>
      <point x="249.99022236595246" y="-175.0"/>
      <point x="278.3924054267371" y="-159.28297073364257" type="curve"/>
      <point x="276.9691186204493" y="-130.5467366027832" type="line"/>
      <point x="251.94828446679526" y="-142.26376586914063"/>
      <point x="218.98183854550302" y="-155.16944229125977"/>
      <point x="188.23700025814946" y="-155.16944229125977" type="curve" smooth="yes"/>
      <point x="148.05909597653329" y="-155.16944229125977"/>
      <point x="114.46855454422897" y="-133.98079513549803"/>
      <point x="118.52682169349805" y="-66.13188293457031" type="curve" smooth="yes"/>
      <point x="121.89893355273583" y="-9.754588623046875"/>
      <point x="143.02413934290868" y="32.71702926635742"/>
      <point x="199.83476281506137" y="84.43405853271484" type="curve"/>
      <point x="270.78065617561697" y="157.0"/>
      <point x="315.05621602789483" y="211.09432357788086"/>
      <point x="323.29296221824" y="313.56594146728514" type="curve"/>
      <point x="298.53280705161404" y="313.56594146728514" type="line"/>
      <point x="294.9375838529464" y="233.8113528442383"/>
      <point x="246.30682090083923" y="181.43405853271483"/>
      <point x="196.5712196613786" y="129.0567642211914" type="curve" smooth="yes"/>
      <point x="143.0686957668062" y="76.0567642211914"/>
      <point x="87.51061008492913" y="19.868117065429686"/>
      <point x="82.90159094632077" y="-57.18864715576172" type="curve" smooth="yes"/>
      <point x="76.91461942345425" y="-157.28297073364257"/>
      <point x="124.94821278945996" y="-184.7170292663574"/>
    </contour>
    <contour>
      <point x="327.2807782572736" y="455.8297073364258" type="curve" smooth="yes"/>
      <point x="351.7028739756574" y="455.8297073364258"/>
      <point x="362.91714476192976" y="484.54673660278314"/>
      <point x="363.8662691637578" y="500.41485366821286" type="curve" smooth="yes"/>
      <point x="364.576140376839" y="512.2829707336426"/>
      <point x="359.1870379613371" y="534.1886471557617"/>
      <point x="334.9373613866301" y="534.1886471557617" type="curve" smooth="yes"/>
      <point x="311.10284652456954" y="534.1886471557617"/>
      <point x="299.36644998335606" y="506.56594146728514"/>
      <point x="298.417325581528" y="490.6978244018555" type="curve" smooth="yes"/>
      <point x="297.6419992670646" y="477.73538375854497"/>
      <point x="303.6186825388898" y="455.8297073364258"/>
    </contour>
  </outline>
</glyph>
<glyph name="Aring" format="2">
  <advance width="452.55"/>
  <unicode hex="00C5"/>
  <outline>
    <contour>
      <point x="29" y="0" type="curve"/>
      <point x="58" y="0" type="line"/>
      <point x="80" y="62"/>
      <point x="110" y="131"/>
      <point x="142" y="203" type="curve"/>
      <point x="401" y="203" type="line"/>
      <point x="400" y="131"/>
      <point x="398" y="65"/>
      <point x="396" y="0" type="curve"/>
      <point x="426" y="0" type="line"/>
      <point x="436" y="206"/>
      <point x="427" y="430"/>
      <point x="405" y="672" type="curve"/>
      <point x="439" y="677"/>
      <point x="468" y="702"/>
      <point x="468" y="748" type="curve" smooth="yes"/>
      <point x="468" y="792"/>
      <point x="438" y="826"/>
      <point x="395" y="826" type="curve" smooth="yes"/>
      <point x="350" y="826"/>
      <point x="318" y="794"/>
      <point x="318" y="748" type="curve" smooth="yes"/>
      <point x="318" y="713"/>
      <point x="335" y="690"/>
      <point x="358" y="679" type="curve"/>
      <point x="235" y="467"/>
      <point x="104" y="207"/>
    </contour>
    <contour>
      <point x="155" y="231" type="line"/>
      <point x="220" y="375"/>
      <point x="301" y="529"/>
      <point x="379" y="661" type="curve"/>
      <point x="393" y="509"/>
      <point x="398" y="365"/>
      <point x="401" y="231" type="curve"/>
    </contour>
    <contour>
      <point x="394" y="695" type="curve" smooth="yes"/>
      <point x="363" y="695"/>
      <point x="345" y="717"/>
      <point x="345" y="748" type="curve" smooth="yes"/>
      <point x="345" y="778"/>
      <point x="366" y="800"/>
      <point x="394" y="800" type="curve" smooth="yes"/>
      <point x="421" y="800"/>
      <point x="441" y="778"/>
      <point x="441" y="748" type="curve" smooth="yes"/>
      <point x="441" y="717"/>
      <point x="421" y="695"/>
    </contour>
  </outline>
</glyph>
<glyph name="AE" format="2">
  <advance width="671"/>
  <unicode hex="00C6"/>
  <outline>
    <contour>
      <point x="22.443681362152102" y="0.0" type="curve"/>
      <point x="59.881093959808354" y="0.0" type="line"/>
      <point x="96.9465005035597" y="66.37729431152343"/>
      <point x="136.56000662489137" y="131.47161788940429"/>
      <point x="179.71807572072157" y="200.9432357788086" type="curve"/>
      <point x="409.83243541615616" y="200.9432357788086" type="line"/>
      <point x="362.4381962242127" y="0.0" type="line"/>
      <point x="643.9059322471619" y="0.0" type="line"/>
      <point x="650.6745630495952" y="29.453263397216798" type="line"/>
      <point x="403.25940133694894" y="29.453263397216798" type="line"/>
      <point x="481.35491993670723" y="350.32053009033206" type="line"/>
      <point x="682.5825007930304" y="350.32053009033206" type="line"/>
      <point x="690.1167733996593" y="379.8681170654297" type="line"/>
      <point x="486.7816116870129" y="379.8681170654297" type="line"/>
      <point x="555.052754682472" y="663.5467366027832" type="line"/>
      <point x="784.4003355387952" y="663.5467366027832" type="line"/>
      <point x="791.9289663412286" y="693.0" type="line"/>
      <point x="498.37155374357246" y="693.0" type="line"/>
      <point x="319.0864997414965" y="466.71702926635743"/>
      <point x="173.19145306493053" y="259.24541137695314"/>
    </contour>
    <contour>
      <point x="206.52199486550035" y="231.58514633178712" type="line"/>
      <point x="332.86618375638375" y="433.79214797973634"/>
      <point x="453.08878131984693" y="597.8297073364257"/>
      <point x="525.1204452141816" y="684.4899723815918" type="curve"/>
      <point x="418.77974398049065" y="231.58514633178712" type="line"/>
    </contour>
  </outline>
</glyph>
<glyph name="Ccedilla" format="2">
  <advance width="470"/>
  <unicode hex="00C7"/>
  <outline>
    <contour>
      <point x="239.76467281885257" y="-172.77379348754883" type="curve" smooth="yes"/>
      <point x="286.4695111062061" y="-172.77379348754883"/>
      <point x="320.03762136702596" y="-142.8681170654297"/>
      <point x="322.6784435026684" y="-98.71702926635741" type="curve" smooth="yes"/>
      <point x="324.7233792154076" y="-64.5283821105957"/>
      <point x="316.0663391240026" y="-53.90567642211914"/>
      <point x="293.00103942123565" y="-35.81135284423828" type="curve"/>
      <point x="296.45973250154265" y="-28.811352844238282"/>
      <point x="300.0852029213308" y="-21.905676422119143"/>
      <point x="304.4706733411191" y="-14.999999999999998" type="curve"/>
      <point x="347.46709721875004" y="-14.0"/>
      <point x="406.1418275525404" y="3.0"/>
      <point x="446.74901901744505" y="31.000000000000004" type="curve"/>
      <point x="443.6241818830621" y="63.641910552978516" type="line"/>
      <point x="425.75641372367073" y="51.924881286621094"/>
      <point x="383.2892841997762" y="15.358939819335937"/>
      <point x="291.8079904986043" y="15.358939819335937" type="curve" smooth="yes"/>
      <point x="193.97218193537188" y="15.358939819335937"/>
      <point x="153.6668450255996" y="98.11352844238282"/>
      <point x="162.19982585548092" y="240.7737934875488" type="curve" smooth="yes"/>
      <point x="178.77484882309105" y="517.8864715576171"/>
      <point x="315.36404039074785" y="676.5467366027832"/>
      <point x="445.8095255286873" y="676.5467366027832" type="curve" smooth="yes"/>
      <point x="486.6771063850105" y="676.5467366027832"/>
      <point x="526.8191334469251" y="660.3580894470215"/>
      <point x="561.0241177172952" y="629.2637658691407" type="curve"/>
      <point x="580.97672134923" y="667.1886471557618" type="line"/>
      <point x="543.7781143436831" y="695.0"/>
      <point x="506.03842977608014" y="708.0"/>
      <point x="458.91842977608013" y="708.0" type="curve" smooth="yes"/>
      <point x="309.3776277588682" y="708.0"/>
      <point x="146.53911461572758" y="559.7921479797363"/>
      <point x="127.53431368024438" y="242.05676422119137" type="curve" smooth="yes"/>
      <point x="116.65733065169036" y="60.20785202026368"/>
      <point x="180.1118729172997" y="-10.943235778808592"/>
      <point x="277.48764747619447" y="-16.28297073364258" type="curve"/>
      <point x="267.2438573817259" y="-32.18864715576172"/>
      <point x="254.76019728448168" y="-53.18864715576172"/>
      <point x="250.43665059841518" y="-66.0" type="curve"/>
      <point x="277.0718702842913" y="-81.0"/>
      <point x="284.1335506096109" y="-90.0"/>
      <point x="282.80637446311226" y="-112.18864715576173" type="curve" smooth="yes"/>
      <point x="281.3595717222402" y="-136.37729431152346"/>
      <point x="263.8585094785901" y="-145.37729431152343"/>
      <point x="239.71092862226686" y="-145.37729431152343" type="curve" smooth="yes"/>
      <point x="227.3785094785901" y="-145.37729431152343"/>
      <point x="216.33523683773777" y="-143.47161788940429"/>
      <point x="205.22866151947582" y="-138.56594146728517" type="curve"/>
      <point x="194.0715822554431" y="-165.15108779907226" type="line"/>
      <point x="212.711323528635" y="-174.05676422119143"/>
      <point x="225.22257710046878" y="-172.77379348754883"/>
    </contour>
  </outline>
</glyph>
<glyph name="Eth" format="2">
  <advance width="532"/>
  <unicode hex="00D0"/>
  <outline>
    <contour>
      <point x="197.08412469188863" y="-4.90567642211914" type="curve" smooth="yes"/>
      <point x="471.20816096203026" y="-4.90567642211914"/>
      <point x="562.7925521752674" y="240.16944229125974"/>
      <point x="573.9731456512544" y="427.09432357788086" type="curve" smooth="yes"/>
      <point x="585.4369780432846" y="618.7545886230469"/>
      <point x="508.5064272931084" y="697.9056764221192"/>
      <point x="364.3491698620781" y="697.9056764221192" type="curve" smooth="yes"/>
      <point x="325.4167507184013" y="697.9056764221192"/>
      <point x="291.0583310830537" y="692.9056764221191"/>
      <point x="243.23672344911492" y="680.0" type="curve"/>
      <point x="171.6211545385004" y="379.05676422119143" type="line"/>
      <point x="111.40873539482364" y="379.05676422119143" type="line"/>
      <point x="102.61692056157948" y="348.13188293457034" type="line"/>
      <point x="163.41692056157945" y="348.13188293457034" type="line"/>
      <point x="83.08883508190256" y="13.0" type="line"/>
      <point x="106.43859629887082" y="3.1886471557617186"/>
      <point x="157.3917055482119" y="-4.90567642211914"/>
    </contour>
    <contour>
      <point x="201.15759378167567" y="24.54758697509766" type="curve" smooth="yes"/>
      <point x="177.7700129253524" y="24.54758697509766"/>
      <point x="150.2165735254631" y="26.54758697509766"/>
      <point x="121.45348421989841" y="33.73623413085937" type="curve"/>
      <point x="195.70675230291246" y="348.13188293457034" type="line"/>
      <point x="295.85433315923575" y="348.13188293457034" type="line"/>
      <point x="304.64614799247994" y="379.05676422119143" type="line"/>
      <point x="204.49856713615665" y="379.05676422119143" type="line"/>
      <point x="270.10477375149054" y="660.3580894470215" type="line"/>
      <point x="299.2471996204225" y="666.4524130249024"/>
      <point x="329.0299988949811" y="670.5467366027832"/>
      <point x="357.0479031765973" y="670.5467366027832" type="curve" smooth="yes"/>
      <point x="457.61064574556707" y="670.5467366027832"/>
      <point x="549.9863710013102" y="616.7353837585449"/>
      <point x="539.2098426055792" y="436.56594146728514" type="curve" smooth="yes"/>
      <point x="524.2745924277561" y="186.8681170654297"/>
      <point x="396.7271151897568" y="24.54758697509766"/>
    </contour>
  </outline>
</glyph>
<glyph name="multiply" format="2">
  <advance width="434.1"/>
  <unicode hex="00D7"/>
  <outline>
    <contour>
      <point x="154" y="173" type="line"/>
      <point x="284" y="278" type="line"/>
      <point x="373" y="163" type="line"/>
      <point x="395" y="180" type="line"/>
      <point x="308" y="297" type="line"/>
      <point x="444" y="406" type="line"/>
      <point x="425" y="428" type="line"/>
      <point x="290" y="320" type="line"/>
      <point x="204" y="432" type="line"/>
      <point x="182" y="415" type="line"/>
      <point x="269" y="302" type="line"/>
      <point x="135" y="195" type="line"/>
    </contour>
  </outline>
</glyph>
<glyph name="Oslash" format="2">
  <advance width="579"/>
  <unicode hex="00D8"/>
  <outline>
    <contour>
      <point x="127.87843693247511" y="-22.434058532714843" type="line"/>
      <point x="175.41985592857375" y="42.377294311523436" type="line"/>
      <point x="206.51021192570556" y="3.0943235778808593"/>
      <point x="248.57551162847255" y="-14.999999999999998"/>
      <point x="292.82793077214933" y="-14.999999999999998" type="curve" smooth="yes"/>
      <point x="430.6238945020077" y="-14.999999999999998"/>
      <point x="602.7793784126981" y="138.2078520202637"/>
      <point x="621.0494943693542" y="443.660265045166" type="curve" smooth="yes"/>
      <point x="625.6009467597397" y="519.7545886230469"/>
      <point x="613.9770820388634" y="576.6602650451659"/>
      <point x="593.5709928700197" y="619.5659414672853" type="curve"/>
      <point x="648.5090358970731" y="696.5659414672853" type="line"/>
      <point x="626.3138955704981" y="721.6227056884766" type="line"/>
      <point x="574.0618830716727" y="648.5283821105957" type="line"/>
      <point x="542.9715270745409" y="687.8113528442382"/>
      <point x="500.44391491401956" y="708.0"/>
      <point x="455.6039149140196" y="708.0" type="curve" smooth="yes"/>
      <point x="317.8079511841612" y="708.0"/>
      <point x="146.24004812979405" y="554.7921479797363"/>
      <point x="128.02974547032457" y="250.339734954834" type="curve" smooth="yes"/>
      <point x="123.4782930799391" y="174.24541137695314"/>
      <point x="133.62930854592318" y="115.24541137695313"/>
      <point x="154.6229785710902" y="72.33973495483397" type="curve"/>
      <point x="104.39552904676341" y="3.6227056884765627" type="line"/>
    </contour>
    <contour>
      <point x="298.74712840827794" y="17.547586975097655" type="curve" smooth="yes"/>
      <point x="259.50164327033843" y="17.547586975097655"/>
      <point x="224.5023287408363" y="34.83055770874024"/>
      <point x="199.246472287359" y="68.30217559814453" type="curve"/>
      <point x="570.4903031110149" y="595.1126780700685" type="line"/>
      <point x="582.9444072151776" y="560.7353837585449"/>
      <point x="588.8160587813769" y="515.075118713379"/>
      <point x="585.5353644955351" y="460.2262065124512" type="curve" smooth="yes"/>
      <point x="567.5395012590666" y="159.35893981933594"/>
      <point x="430.09326039680326" y="17.547586975097655"/>
    </contour>
    <contour>
      <point x="177.70366833009498" y="96.79299835205079" type="line"/>
      <point x="164.72743847099116" y="132.2646162414551"/>
      <point x="160.1435544639284" y="176.9248812866211"/>
      <point x="163.48406204695698" y="232.77379348754883" type="curve" smooth="yes"/>
      <point x="181.47992528342542" y="533.6410601806641"/>
      <point x="318.86071104430664" y="674.3580894470215"/>
      <point x="450.20684303283207" y="674.3580894470215" type="curve" smooth="yes"/>
      <point x="489.27990902709473" y="674.3580894470215"/>
      <point x="524.5170978016557" y="658.1694422912598"/>
      <point x="549.6476858565642" y="622.6035008239746" type="curve"/>
    </contour>
  </outline>
</glyph>
<glyph name="Thorn" format="2">
  <advance width="388"/>
  <unicode hex="00DE"/>
  <outline>
    <contour>
      <point x="69.49335793685913" y="0.0" type="line"/>
      <point x="102.37077053451536" y="0.0" type="line"/>
      <point x="138.99417348271612" y="157.75458862304686" type="line"/>
      <point x="191.43417348271612" y="157.75458862304686" type="line" smooth="yes"/>
      <point x="364.3307840631604" y="157.75458862304686"/>
      <point x="463.83895031464414" y="230.77379348754883"/>
      <point x="473.34586931209935" y="389.71702926635743" type="curve" smooth="yes"/>
      <point x="481.71633566300704" y="529.660265045166"/>
      <point x="420.58187132419977" y="566.2454113769531"/>
      <point x="298.6370330368463" y="566.2454113769531" type="curve" smooth="yes"/>
      <point x="273.65912875523003" y="566.2454113769531"/>
      <point x="262.9275431649525" y="565.2454113769531"/>
      <point x="239.76517400160935" y="563.2454113769531" type="curve"/>
      <point x="270.74138548490544" y="693.0" type="line"/>
      <point x="238.45155374357242" y="693.0" type="line"/>
    </contour>
    <contour>
      <point x="147.50022174996158" y="181.01920486450194" type="line"/>
      <point x="230.19441744423483" y="534.8864715576171" type="line"/>
      <point x="231.70390731612855" y="535.8864715576171"/>
      <point x="255.91832221752188" y="539.8864715576173"/>
      <point x="311.8520350623706" y="539.8864715576173" type="curve" smooth="yes"/>
      <point x="405.3705861945727" y="539.8864715576173"/>
      <point x="446.2493885058798" y="492.1318829345703"/>
      <point x="440.0750887382938" y="388.90567642211914" type="curve" smooth="yes"/>
      <point x="433.6039690337381" y="280.71702926635743"/>
      <point x="369.7082942902448" y="181.01920486450194"/>
      <point x="204.05328774422426" y="181.01920486450194" type="curve" smooth="yes"/>
    </contour>
  </outline>
</glyph>
<glyph name="germandbls" format="2">
  <advance width="439.4"/>
  <unicode hex="00DF"/>
  <outline>
    <contour>
      <point x="19" y="-189" type="line"/>
      <point x="71" y="-126"/>
      <point x="95" y="-56"/>
      <point x="117" y="38" type="curve" smooth="yes"/>
      <point x="252" y="605" type="line" smooth="yes"/>
      <point x="274" y="693"/>
      <point x="317" y="752"/>
      <point x="389" y="752" type="curve" smooth="yes"/>
      <point x="443" y="752"/>
      <point x="468" y="717"/>
      <point x="468" y="665" type="curve" smooth="yes"/>
      <point x="467" y="522"/>
      <point x="305" y="504"/>
      <point x="305" y="359" type="curve" smooth="yes"/>
      <point x="305" y="310"/>
      <point x="329" y="285"/>
      <point x="355" y="259" type="curve" smooth="yes"/>
      <point x="389" y="228"/>
      <point x="421" y="201"/>
      <point x="421" y="150" type="curve"/>
      <point x="421" y="84"/>
      <point x="375" y="17"/>
      <point x="286" y="17" type="curve" smooth="yes"/>
      <point x="256" y="17"/>
      <point x="230" y="23"/>
      <point x="206" y="32" type="curve"/>
      <point x="195" y="5" type="line"/>
      <point x="220" y="-5"/>
      <point x="249" y="-11"/>
      <point x="280" y="-11" type="curve" smooth="yes"/>
      <point x="393" y="-11"/>
      <point x="448" y="77"/>
      <point x="448" y="155" type="curve" smooth="yes"/>
      <point x="448" y="214"/>
      <point x="408" y="248"/>
      <point x="374" y="281" type="curve" smooth="yes"/>
      <point x="353" y="302"/>
      <point x="333" y="323"/>
      <point x="333" y="363" type="curve" smooth="yes"/>
      <point x="333" y="490"/>
      <point x="496" y="507"/>
      <point x="496" y="668" type="curve" smooth="yes"/>
      <point x="496" y="735"/>
      <point x="456" y="776"/>
      <point x="390" y="776" type="curve" smooth="yes"/>
      <point x="306" y="776"/>
      <point x="250" y="709"/>
      <point x="224" y="603" type="curve" smooth="yes"/>
      <point x="81" y="2" type="line" smooth="yes"/>
      <point x="62" y="-77"/>
      <point x="40" y="-122"/>
      <point x="-6" y="-183" type="curve"/>
    </contour>
  </outline>
</glyph>
<glyph name="ae" format="2">
  <advance width="586"/>
  <unicode hex="00E6"/>
  <outline>
    <contour>
      <point x="140.03153206391977" y="-10.905676422119141" type="curve" smooth="yes"/>
      <point x="213.30459805818248" y="-10.905676422119141"/>
      <point x="267.9331485132026" y="39.56594146728516"/>
      <point x="307.9281016344365" y="111.03755935668946" type="curve"/>
      <point x="315.7492403723898" y="40.84891220092773"/>
      <point x="349.99572350068735" y="-10.905676422119141"/>
      <point x="431.1115320639198" y="-10.905676422119141" type="curve" smooth="yes"/>
      <point x="477.2991129202429" y="-10.905676422119141"/>
      <point x="525.856742489259" y="6.188647155761719"/>
      <point x="555.1083268118958" y="26.28297073364258" type="curve"/>
      <point x="553.1777292267185" y="63.30217559814453" type="line"/>
      <point x="512.7753346619845" y="37.01920486450195"/>
      <point x="476.20666489297963" y="22.830557708740237"/>
      <point x="446.39424574930285" y="22.830557708740237" type="curve" smooth="yes"/>
      <point x="349.1777903354845" y="22.830557708740237"/>
      <point x="334.20366964527483" y="70.49082275390624"/>
      <point x="344.22514032393815" y="208.56594146728514" type="curve"/>
      <point x="537.9362807165835" y="220.8489122009277"/>
      <point x="624.5832493269132" y="238.90567642211911"/>
      <point x="634.1104889921866" y="398.1886471557617" type="curve" smooth="yes"/>
      <point x="639.2916786306483" y="484.8113528442383"/>
      <point x="593.8632503350188" y="524.6227056884766"/>
      <point x="537.6935737603118" y="524.6227056884766" type="curve" smooth="yes"/>
      <point x="478.1708311913421" y="524.6227056884766"/>
      <point x="413.3815605941005" y="483.33973495483394"/>
      <point x="369.80264599399067" y="402.77379348754886" type="curve"/>
      <point x="362.08847129833185" y="471.8681170654297"/>
      <point x="327.72938232354426" y="524.6227056884766"/>
      <point x="247.96115461663504" y="524.6227056884766" type="curve" smooth="yes"/>
      <point x="201.7735737603118" y="524.6227056884766"/>
      <point x="153.80352504761896" y="507.5283821105957"/>
      <point x="123.37677901233576" y="487.4340585327149" type="curve"/>
      <point x="126.08003914959201" y="453.50917724609377" type="line"/>
      <point x="165.89485285800268" y="479.7921479797363"/>
      <point x="203.05110348333085" y="493.9807951354981"/>
      <point x="232.86352262700763" y="493.9807951354981" type="curve" smooth="yes"/>
      <point x="331.599978040826" y="493.9807951354981"/>
      <point x="346.6718896014742" y="438.1318829345703"/>
      <point x="336.55262805237237" y="308.24541137695314" type="curve"/>
      <point x="142.65640596397128" y="292.86811706542966"/>
      <point x="54.489437353641506" y="274.8113528442383"/>
      <point x="44.96219768836811" y="115.5283821105957" type="curve" smooth="yes"/>
      <point x="40.03154484704419" y="33.09432357788086"/>
      <point x="82.5142746328895" y="-10.905676422119141"/>
    </contour>
    <contour>
      <point x="146.78260008591076" y="24.01920486450195" type="curve" smooth="yes"/>
      <point x="103.1495340916481" y="24.01920486450195"/>
      <point x="76.18295413821967" y="54.30217559814454"/>
      <point x="79.75707310579958" y="114.0567642211914" type="curve" smooth="yes"/>
      <point x="85.89976859717632" y="216.75458862304689"/>
      <point x="135.84986139719163" y="257.660265045166"/>
      <point x="324.92560003631405" y="260.56594146728514" type="curve"/>
      <point x="290.4638452294518" y="89.30217559814453"/>
      <point x="211.280504367527" y="24.01920486450195"/>
    </contour>
    <contour>
      <point x="355.48200494848516" y="250.05676422119143" type="curve"/>
      <point x="390.0035730525341" y="422.320530090332"/>
      <point x="469.8997631693511" y="489.69782440185554"/>
      <point x="532.290086594644" y="489.69782440185554" type="curve" smooth="yes"/>
      <point x="575.3355717325834" y="489.69782440185554"/>
      <point x="602.8242774409529" y="458.32053009033206"/>
      <point x="599.3156135747552" y="399.66026504516606" type="curve" smooth="yes"/>
      <point x="592.9878363876228" y="293.8681170654297"/>
      <point x="543.0377435876076" y="252.96244064331054"/>
    </contour>
  </outline>
</glyph>
<glyph name="ccedilla" format="2">
  <advance width="353"/>
  <unicode hex="00E7"/>
  <outline>
    <contour>
      <point x="146.17579826135744" y="-172.77379348754883" type="curve" smooth="yes"/>
      <point x="192.29305569238772" y="-172.77379348754883"/>
      <point x="226.4487468095308" y="-142.8681170654297"/>
      <point x="229.08956894517323" y="-98.71702926635741" type="curve" smooth="yes"/>
      <point x="231.13450465791237" y="-64.5283821105957"/>
      <point x="221.88988371018422" y="-53.90567642211914"/>
      <point x="199.4121648637405" y="-35.81135284423828" type="curve"/>
      <point x="202.28327708772423" y="-28.811352844238282"/>
      <point x="207.3759549582091" y="-19.90567642211914"/>
      <point x="213.23427463288948" y="-10.905676422119141" type="curve"/>
      <point x="263.69118869485044" y="-10.0"/>
      <point x="311.10949178348403" y="12.282970733642578"/>
      <point x="328.7816362145607" y="29.377294311523436" type="curve"/>
      <point x="326.72577023081436" y="64.30217559814453" type="line"/>
      <point x="313.96548483497463" y="50.20785202026367"/>
      <point x="261.9618566421833" y="21.736234130859376"/>
      <point x="214.5287906479206" y="21.736234130859376" type="curve" smooth="yes"/>
      <point x="144.53846722262765" y="21.736234130859376"/>
      <point x="115.38684629324038" y="79.01920486450196"/>
      <point x="121.17405725672856" y="175.77379348754883" type="curve" smooth="yes"/>
      <point x="130.8716997541349" y="337.90567642211914"/>
      <point x="218.57841089469477" y="491.9807951354981"/>
      <point x="335.8997045958667" y="491.9807951354981" type="curve" smooth="yes"/>
      <point x="354.24180031425044" y="491.9807951354981"/>
      <point x="377.5210381845913" y="490.1694422912598"/>
      <point x="401.5384403309972" y="478.1694422912597" type="curve"/>
      <point x="418.8591849276953" y="513.0943235778809" type="line"/>
      <point x="395.41592760524895" y="520.8113528442383"/>
      <point x="371.3942206108977" y="524.6227056884766"/>
      <point x="350.67002917413015" y="524.6227056884766" type="curve" smooth="yes"/>
      <point x="196.90728660516044" y="524.6227056884766"/>
      <point x="99.72033697089321" y="354.05676422119143"/>
      <point x="88.83431688291198" y="172.05676422119143" type="curve" smooth="yes"/>
      <point x="82.30338388116958" y="62.868117065429686"/>
      <point x="116.739263703284" y="-3.6602650451660153"/>
      <point x="187.0710620651516" y="-11.18864715576172" type="curve"/>
      <point x="175.36006451998634" y="-29.094323577880857"/>
      <point x="162.5787168804965" y="-52.188647155761714"/>
      <point x="156.2601951845968" y="-66.0" type="curve"/>
      <point x="182.8954148704729" y="-81.0"/>
      <point x="189.95709519579253" y="-90.0"/>
      <point x="188.6299190492939" y="-112.18864715576173" type="curve" smooth="yes"/>
      <point x="187.18311630842186" y="-136.37729431152346"/>
      <point x="170.26963492109502" y="-145.37729431152343"/>
      <point x="145.5344732084485" y="-145.37729431152343" type="curve" smooth="yes"/>
      <point x="133.20205406477174" y="-145.37729431152343"/>
      <point x="122.15878142391941" y="-143.47161788940429"/>
      <point x="111.63978696198069" y="-138.56594146728517" type="curve"/>
      <point x="99.8951268416248" y="-165.15108779907226" type="line"/>
      <point x="119.12244897113987" y="-174.05676422119143"/>
      <point x="131.63370254297365" y="-172.77379348754883"/>
    </contour>
  </outline>
</glyph>
<glyph name="eth" format="2">
  <advance width="434.05"/>
  <unicode hex="00F0"/>
  <outline>
    <contour>
      <point x="200" y="-4" type="curve" smooth="yes"/>
      <point x="343" y="-4"/>
      <point x="452" y="201"/>
      <point x="452" y="473" type="curve" smooth="yes"/>
      <point x="452" y="534"/>
      <point x="443" y="591"/>
      <point x="421" y="644" type="curve"/>
      <point x="523" y="689" type="line"/>
      <point x="516" y="716" type="line"/>
      <point x="410" y="669" type="line"/>
      <point x="392" y="706"/>
      <point x="370" y="743"/>
      <point x="341" y="775" type="curve"/>
      <point x="315" y="759" type="line"/>
      <point x="343" y="725"/>
      <point x="365" y="691"/>
      <point x="382" y="655" type="curve"/>
      <point x="272" y="607" type="line"/>
      <point x="278" y="580" type="line"/>
      <point x="393" y="632" type="line"/>
      <point x="413" y="581"/>
      <point x="422" y="528"/>
      <point x="421" y="469" type="curve" smooth="yes"/>
      <point x="421" y="462"/>
      <point x="421" y="455"/>
      <point x="421" y="448" type="curve"/>
      <point x="397" y="470"/>
      <point x="366" y="482"/>
      <point x="332" y="482" type="curve" smooth="yes"/>
      <point x="201" y="482"/>
      <point x="93" y="327"/>
      <point x="93" y="137" type="curve" smooth="yes"/>
      <point x="93" y="49"/>
      <point x="134" y="-4"/>
    </contour>
    <contour>
      <point x="204" y="21" type="curve" smooth="yes"/>
      <point x="152" y="21"/>
      <point x="125" y="60"/>
      <point x="125" y="137" type="curve" smooth="yes"/>
      <point x="125" y="315"/>
      <point x="218" y="459"/>
      <point x="331" y="459" type="curve" smooth="yes"/>
      <point x="366" y="459"/>
      <point x="399" y="444"/>
      <point x="420" y="417" type="curve"/>
      <point x="407" y="197"/>
      <point x="314" y="21"/>
    </contour>
  </outline>
</glyph>
<glyph name="divide" format="2">
  <advance width="440"/>
  <unicode hex="00F7"/>
  <outline>
    <contour>
      <point x="120.29192881063751" y="278.0375593566895" type="line"/>
      <point x="459.6988628163748" y="278.0375593566895" type="line"/>
      <point x="467.1135088286304" y="305.5851463317871" type="line"/>
      <point x="127.70657482289306" y="305.5851463317871" type="line"/>
    </contour>
    <contour>
      <point x="236.83838187178222" y="74.6035008239746" type="curve" smooth="yes"/>
      <point x="254.00531587751956" y="74.6035008239746"/>
      <point x="270.5155985158845" y="89.03755935668946"/>
      <point x="277.14007133317233" y="103.90567642211914" type="curve" smooth="yes"/>
      <point x="285.43375870949893" y="124.15108779907227"/>
      <point x="278.7498679869771" y="144.0567642211914"/>
      <point x="260.99535312491656" y="144.0567642211914" type="curve" smooth="yes"/>
      <point x="245.17599997550244" y="144.0567642211914"/>
      <point x="229.42571733713754" y="129.62270568847657"/>
      <point x="221.39385036633973" y="113.75458862304689" type="curve"/>
      <point x="214.5075571435231" y="94.50917724609376"/>
      <point x="219.84386700972166" y="74.6035008239746"/>
    </contour>
    <contour>
      <point x="326.5930137861344" y="438.56594146728514" type="curve" smooth="yes"/>
      <point x="343.7599477918717" y="438.56594146728514"/>
      <point x="358.98810467529563" y="454.09432357788086"/>
      <point x="367.0199716460934" y="469.9624406433106" type="curve"/>
      <point x="373.90626486891006" y="489.20785202026366"/>
      <point x="368.5699550027115" y="509.11352844238274"/>
      <point x="350.22785928432774" y="509.11352844238274" type="curve" smooth="yes"/>
      <point x="334.40850613491364" y="509.11352844238274"/>
      <point x="317.8327683951664" y="493.5851463317871"/>
      <point x="311.2082955778787" y="478.71702926635743" type="curve" smooth="yes"/>
      <point x="303.5676441592575" y="459.56594146728514"/>
      <point x="309.59849892407385" y="438.56594146728514"/>
    </contour>
  </outline>
</glyph>
<glyph name="oslash" format="2">
  <advance width="426"/>
  <unicode hex="00F8"/>
  <anchor x="271" y="516" name="top"/>
  <outline>
    <contour>
      <point x="7" y="-19" type="line"/>
      <point x="60" y="49" type="line"/>
      <point x="77" y="11"/>
      <point x="109" y="-10"/>
      <point x="155" y="-10" type="curve" smooth="yes"/>
      <point x="275" y="-10"/>
      <point x="378" y="169"/>
      <point x="378" y="384" type="curve" smooth="yes"/>
      <point x="378" y="406"/>
      <point x="376" y="425"/>
      <point x="372" y="442" type="curve"/>
      <point x="439" y="526" type="line"/>
      <point x="417" y="539" type="line"/>
      <point x="364" y="470" type="line"/>
      <point x="346" y="508"/>
      <point x="315" y="529"/>
      <point x="271" y="529" type="curve" smooth="yes"/>
      <point x="149" y="529"/>
      <point x="47" y="353"/>
      <point x="47" y="139" type="curve" smooth="yes"/>
      <point x="47" y="116"/>
      <point x="49" y="96"/>
      <point x="53" y="78" type="curve"/>
      <point x="-13" y="-6" type="line"/>
    </contour>
    <contour>
      <point x="157" y="17" type="curve" smooth="yes"/>
      <point x="117" y="17"/>
      <point x="94" y="35"/>
      <point x="83" y="77" type="curve"/>
      <point x="347" y="411" type="line"/>
      <point x="349" y="402"/>
      <point x="349" y="392"/>
      <point x="349" y="381" type="curve" smooth="yes"/>
      <point x="350" y="188"/>
      <point x="260" y="17"/>
    </contour>
    <contour>
      <point x="77" y="109" type="line"/>
      <point x="76" y="117"/>
      <point x="76" y="129"/>
      <point x="76" y="141" type="curve" smooth="yes"/>
      <point x="76" y="334"/>
      <point x="164" y="501"/>
      <point x="267" y="501" type="curve" smooth="yes"/>
      <point x="306" y="501"/>
      <point x="331" y="482"/>
      <point x="342" y="443" type="curve"/>
    </contour>
  </outline>
</glyph>
<glyph name="thorn" format="2">
  <advance width="423.45"/>
  <unicode hex="00FE"/>
  <outline>
    <contour>
      <point x="38" y="-185" type="line"/>
      <point x="67" y="-185" type="line"/>
      <point x="111" y="4" type="line"/>
      <point x="137" y="-5"/>
      <point x="165" y="-10"/>
      <point x="189" y="-10" type="curve" smooth="yes"/>
      <point x="332" y="-10"/>
      <point x="449" y="161"/>
      <point x="449" y="372" type="curve" smooth="yes"/>
      <point x="449" y="477"/>
      <point x="406" y="528"/>
      <point x="324" y="528" type="curve"/>
      <point x="301" y="528"/>
      <point x="269" y="525"/>
      <point x="234" y="514" type="curve"/>
      <point x="297" y="776" type="line"/>
      <point x="269" y="770" type="line"/>
    </contour>
    <contour>
      <point x="198" y="17" type="curve" smooth="yes"/>
      <point x="169" y="17"/>
      <point x="141" y="22"/>
      <point x="119" y="31" type="curve"/>
      <point x="227" y="485" type="line"/>
      <point x="254" y="497"/>
      <point x="290" y="503"/>
      <point x="321" y="503" type="curve" smooth="yes"/>
      <point x="387" y="503"/>
      <point x="421" y="463"/>
      <point x="421" y="371" type="curve" smooth="yes"/>
      <point x="421" y="181"/>
      <point x="316" y="17"/>
    </contour>
  </outline>
</glyph>
<glyph name="Aogonek" format="2">
  <advance width="452.55"/>
  <unicode hex="0104"/>
  <outline>
    <contour>
      <point x="357" y="-185" type="curve" smooth="yes"/>
      <point x="371" y="-185"/>
      <point x="384" y="-183"/>
      <point x="396" y="-179" type="curve"/>
      <point x="397" y="-156" type="line"/>
      <point x="384" y="-160"/>
      <point x="375" y="-161"/>
      <point x="365" y="-161" type="curve" smooth="yes"/>
      <point x="344" y="-161"/>
      <point x="334" y="-148"/>
      <point x="334" y="-127" type="curve" smooth="yes"/>
      <point x="334" y="-87"/>
      <point x="365" y="-45"/>
      <point x="426" y="0" type="curve"/>
      <point x="435" y="212"/>
      <point x="428" y="445"/>
      <point x="403" y="693" type="curve"/>
      <point x="366" y="693" type="line"/>
      <point x="241" y="479"/>
      <point x="106" y="211"/>
      <point x="29" y="0" type="curve"/>
      <point x="58" y="0" type="line"/>
      <point x="80" y="62"/>
      <point x="110" y="131"/>
      <point x="142" y="203" type="curve"/>
      <point x="401" y="203" type="line"/>
      <point x="400" y="131"/>
      <point x="398" y="65"/>
      <point x="396" y="0" type="curve"/>
      <point x="393" y="0" type="line"/>
      <point x="334" y="-43"/>
      <point x="307" y="-88"/>
      <point x="307" y="-131" type="curve" smooth="yes"/>
      <point x="307" y="-164"/>
      <point x="325" y="-185"/>
    </contour>
    <contour>
      <point x="155" y="231" type="line"/>
      <point x="220" y="375"/>
      <point x="301" y="529"/>
      <point x="379" y="661" type="curve"/>
      <point x="393" y="509"/>
      <point x="398" y="365"/>
      <point x="401" y="231" type="curve"/>
    </contour>
  </outline>
</glyph>
<glyph name="aogonek" format="2">
  <advance width="423"/>
  <unicode hex="0105"/>
  <outline>
    <contour>
      <point x="243" y="-185" type="curve" smooth="yes"/>
      <point x="256" y="-185"/>
      <point x="270" y="-183"/>
      <point x="282" y="-179" type="curve"/>
      <point x="284" y="-156" type="line"/>
      <point x="271" y="-160"/>
      <point x="260" y="-161"/>
      <point x="250" y="-161" type="curve" smooth="yes"/>
      <point x="231" y="-161"/>
      <point x="221" y="-148"/>
      <point x="221" y="-127" type="curve" smooth="yes"/>
      <point x="221" y="-86"/>
      <point x="252" y="-44"/>
      <point x="314" y="1" type="curve"/>
      <point x="307" y="24"/>
      <point x="300" y="40"/>
      <point x="300" y="69" type="curve" smooth="yes"/>
      <point x="300" y="90"/>
      <point x="304" y="119"/>
      <point x="315" y="160" type="curve" smooth="yes"/>
      <point x="396" y="505" type="line"/>
      <point x="365" y="520"/>
      <point x="326" y="529"/>
      <point x="294" y="529" type="curve" smooth="yes"/>
      <point x="153" y="529"/>
      <point x="39" y="356"/>
      <point x="39" y="143" type="curve" smooth="yes"/>
      <point x="39" y="41"/>
      <point x="74" y="-10"/>
      <point x="149" y="-10" type="curve" smooth="yes"/>
      <point x="187" y="-10"/>
      <point x="231" y="13"/>
      <point x="271" y="46" type="curve"/>
      <point x="273" y="29"/>
      <point x="276" y="17"/>
      <point x="280" y="0" type="curve"/>
      <point x="221" y="-43"/>
      <point x="194" y="-89"/>
      <point x="194" y="-131" type="curve" smooth="yes"/>
      <point x="194" y="-164"/>
      <point x="211" y="-185"/>
    </contour>
    <contour>
      <point x="150" y="17" type="curve" smooth="yes"/>
      <point x="91" y="17"/>
      <point x="67" y="55"/>
      <point x="67" y="144" type="curve" smooth="yes"/>
      <point x="67" y="335"/>
      <point x="168" y="502"/>
      <point x="286" y="502" type="curve" smooth="yes"/>
      <point x="315" y="502"/>
      <point x="344" y="497"/>
      <point x="365" y="488" type="curve"/>
      <point x="294" y="191" type="line" smooth="yes"/>
      <point x="281" y="139"/>
      <point x="273" y="103"/>
      <point x="272" y="78" type="curve"/>
      <point x="231" y="41"/>
      <point x="187" y="17"/>
    </contour>
  </outline>
</glyph>
<glyph name="dcroat" format="2">
  <advance width="429.1"/>
  <unicode hex="0111"/>
  <outline>
    <contour>
      <point x="208" y="-10" type="curve" smooth="yes"/>
      <point x="247" y="-10"/>
      <point x="295" y="12"/>
      <point x="335" y="46" type="curve"/>
      <point x="337" y="27"/>
      <point x="342" y="14"/>
      <point x="347" y="-5" type="curve"/>
      <point x="378" y="1" type="line"/>
      <point x="367" y="39"/>
      <point x="357" y="64"/>
      <point x="379" y="160" type="curve" smooth="yes"/>
      <point x="496" y="649" type="line"/>
      <point x="577" y="649" type="line"/>
      <point x="583" y="675" type="line"/>
      <point x="502" y="675" type="line"/>
      <point x="526" y="776" type="line"/>
      <point x="498" y="770" type="line"/>
      <point x="477" y="675" type="line"/>
      <point x="350" y="675" type="line"/>
      <point x="344" y="649" type="line"/>
      <point x="470" y="649" type="line"/>
      <point x="437" y="515" type="line"/>
      <point x="416" y="523"/>
      <point x="388" y="529"/>
      <point x="364" y="529" type="curve" smooth="yes"/>
      <point x="218" y="529"/>
      <point x="100" y="356"/>
      <point x="100" y="144" type="curve" smooth="yes"/>
      <point x="100" y="41"/>
      <point x="139" y="-10"/>
    </contour>
    <contour>
      <point x="208" y="17" type="curve" smooth="yes"/>
      <point x="157" y="17"/>
      <point x="128" y="55"/>
      <point x="128" y="144" type="curve" smooth="yes"/>
      <point x="128" y="335"/>
      <point x="234" y="502"/>
      <point x="355" y="502" type="curve" smooth="yes"/>
      <point x="383" y="502"/>
      <point x="410" y="496"/>
      <point x="431" y="491" type="curve"/>
      <point x="358" y="191" type="line" smooth="yes"/>
      <point x="345" y="139"/>
      <point x="339" y="103"/>
      <point x="337" y="78" type="curve"/>
      <point x="295" y="39"/>
      <point x="249" y="17"/>
    </contour>
  </outline>
</glyph>
<glyph name="Eogonek" format="2">
  <advance width="395"/>
  <unicode hex="0118"/>
  <outline>
    <contour>
      <point x="303.9707732711907" y="-171.77379348754886" type="curve" smooth="yes"/>
      <point x="314.1252881332512" y="-171.77379348754886"/>
      <point x="323.5683326841075" y="-170.96244064331054"/>
      <point x="334.9408971434147" y="-170.24541137695311" type="curve"/>
      <point x="341.36052092297825" y="-142.03755935668946" type="line"/>
      <point x="334.46634942998696" y="-142.9432357788086"/>
      <point x="328.2955373199942" y="-142.75458862304686"/>
      <point x="320.93827988896396" y="-142.75458862304686" type="curve" smooth="yes"/>
      <point x="303.0431181763175" y="-142.75458862304686"/>
      <point x="283.7440936778215" y="-136.75458862304689"/>
      <point x="285.2619933242713" y="-111.37729431152343" type="curve" smooth="yes"/>
      <point x="287.0789594566546" y="-81.0"/>
      <point x="308.8127982638161" y="-48.0"/>
      <point x="368.51141738510137" y="0.0" type="curve"/>
      <point x="375.3455032889171" y="30.547586975097655" type="line"/>
      <point x="108.61727558200782" y="30.547586975097655" type="line"/>
      <point x="186.64733908038392" y="350.32053009033206" type="line"/>
      <point x="407.1879859309699" y="350.32053009033206" type="line"/>
      <point x="414.72225853759886" y="379.8681170654297" type="line"/>
      <point x="192.07403083068965" y="379.8681170654297" type="line"/>
      <point x="259.69213786844324" y="662.4524130249024" type="line"/>
      <point x="508.9403655753525" y="662.4524130249024" type="line"/>
      <point x="516.5344514791682" y="693.0" type="line"/>
      <point x="237.10397288724917" y="693.0" type="line"/>
      <point x="69.49335793685913" y="0.0" type="line"/>
      <point x="329.3430345115662" y="0.0" type="line"/>
      <point x="304.66265990543" y="-23.434058532714843"/>
      <point x="257.29374402788335" y="-66.24541137695311"/>
      <point x="254.2861537559613" y="-116.5283821105957" type="curve" smooth="yes"/>
      <point x="251.62276440353685" y="-161.05676422119143"/>
      <point x="275.5762584091301" y="-171.77379348754886"/>
    </contour>
  </outline>
</glyph>
<glyph name="eogonek" format="2">
  <advance width="374"/>
  <unicode hex="0119"/>
  <outline>
    <contour>
      <point x="251.6010966964836" y="-171.77379348754886" type="curve" smooth="yes"/>
      <point x="261.16803070222096" y="-171.77379348754886"/>
      <point x="270.6110752530772" y="-170.96244064331054"/>
      <point x="282.5712205687077" y="-170.24541137695311" type="curve"/>
      <point x="288.9908443482712" y="-142.03755935668946" type="line"/>
      <point x="282.09667285527996" y="-142.9432357788086"/>
      <point x="275.9258607452872" y="-142.75458862304686"/>
      <point x="267.9810224579337" y="-142.75458862304686" type="curve" smooth="yes"/>
      <point x="250.67344160161042" y="-142.75458862304686"/>
      <point x="230.7868362467912" y="-136.75458862304689"/>
      <point x="232.30473589324097" y="-111.37729431152343" type="curve" smooth="yes"/>
      <point x="234.8563870044513" y="-68.71702926635743"/>
      <point x="271.58818679881784" y="-31.622705688476564"/>
      <point x="342.70653120750296" y="33.47161788940429" type="curve"/>
      <point x="340.7759336223256" y="70.49082275390624" type="line"/>
      <point x="306.32611823505016" y="38.01920486450195"/>
      <point x="266.24247345621205" y="22.830557708740237"/>
      <point x="230.69489259988876" y="22.830557708740237" type="curve" smooth="yes"/>
      <point x="126.39569461710065" y="22.830557708740237"/>
      <point x="110.26825802116416" y="99.15108779907227"/>
      <point x="121.2579629097987" y="205.47161788940429" type="curve"/>
      <point x="301.51646741939686" y="219.84891220092774"/>
      <point x="420.52663874646896" y="238.90567642211911"/>
      <point x="430.05387841174235" y="398.1886471557617" type="curve" smooth="yes"/>
      <point x="434.5116666797681" y="472.71702926635743"/>
      <point x="402.79696317986753" y="524.6227056884766"/>
      <point x="332.11696317986747" y="524.6227056884766" type="curve" smooth="yes"/>
      <point x="187.7169631798675" y="524.6227056884766"/>
      <point x="98.82313751309255" y="339.0567642211914"/>
      <point x="88.53525039697843" y="167.0567642211914" type="curve" smooth="yes"/>
      <point x="81.84180291626241" y="55.15108779907227"/>
      <point x="114.06253237635592" y="-12.0"/>
      <point x="223.49766405244517" y="-10.905676422119141" type="curve" smooth="yes"/>
      <point x="238.59556833406137" y="-10.905676422119141"/>
      <point x="255.16068006637423" y="-8.90567642211914"/>
      <point x="270.44366604374613" y="-5.811352844238281" type="curve"/>
      <point x="243.27154768144626" y="-30.434058532714847"/>
      <point x="203.96632320534178" y="-72.43405853271484"/>
      <point x="201.32889632493104" y="-116.5283821105957" type="curve" smooth="yes"/>
      <point x="198.6655069725066" y="-161.05676422119143"/>
      <point x="222.61900097809982" y="-171.77379348754886"/>
    </contour>
    <contour>
      <point x="132.05953582447475" y="252.05676422119143" type="curve"/>
      <point x="162.3545964540791" y="376.1886471557617"/>
      <point x="238.09976316935106" y="489.69782440185554"/>
      <point x="328.9934760141997" y="489.69782440185554" type="curve" smooth="yes"/>
      <point x="370.5189611521392" y="489.69782440185554"/>
      <point x="398.89293525907755" y="460.4148536682129"/>
      <point x="395.2590029943109" y="399.66026504516606" type="curve" smooth="yes"/>
      <point x="389.05649420574747" y="295.9624406433106"/>
      <point x="320.44072956497945" y="256.05676422119143"/>
    </contour>
  </outline>
</glyph>
<glyph name="Hbar" format="2">
  <advance width="543.7"/>
  <unicode hex="0126"/>
  <outline>
    <contour>
      <point x="93" y="0" type="line"/>
      <point x="123" y="0" type="line"/>
      <point x="206" y="348" type="line"/>
      <point x="505" y="348" type="line"/>
      <point x="421" y="0" type="line"/>
      <point x="451" y="0" type="line"/>
      <point x="578" y="537" type="line"/>
      <point x="649" y="537" type="line"/>
      <point x="655" y="563" type="line"/>
      <point x="585" y="563" type="line"/>
      <point x="617" y="693" type="line"/>
      <point x="587" y="693" type="line"/>
      <point x="556" y="563" type="line"/>
      <point x="257" y="563" type="line"/>
      <point x="289" y="693" type="line"/>
      <point x="259" y="693" type="line"/>
      <point x="226" y="563" type="line"/>
      <point x="158" y="563" type="line"/>
      <point x="152" y="537" type="line"/>
      <point x="221" y="537" type="line"/>
    </contour>
    <contour>
      <point x="212" y="377" type="line"/>
      <point x="250" y="537" type="line"/>
      <point x="549" y="537" type="line"/>
      <point x="512" y="377" type="line"/>
    </contour>
  </outline>
</glyph>
<glyph name="hbar" format="2">
  <advance width="447"/>
  <unicode hex="0127"/>
  <outline>
    <contour>
      <point x="22" y="0" type="line"/>
      <point x="49" y="0" type="line"/>
      <point x="165" y="485" type="line"/>
      <point x="195" y="494"/>
      <point x="233" y="504"/>
      <point x="265" y="504" type="curve" smooth="yes"/>
      <point x="333" y="504"/>
      <point x="364" y="474"/>
      <point x="364" y="405" type="curve" smooth="yes"/>
      <point x="364" y="380"/>
      <point x="360" y="349"/>
      <point x="350" y="311" type="curve" smooth="yes"/>
      <point x="276" y="0" type="line"/>
      <point x="303" y="0" type="line"/>
      <point x="380" y="319" type="line" smooth="yes"/>
      <point x="388" y="353"/>
      <point x="392" y="384"/>
      <point x="392" y="409" type="curve" smooth="yes"/>
      <point x="392" y="492"/>
      <point x="347" y="528"/>
      <point x="265" y="528" type="curve" smooth="yes"/>
      <point x="237" y="528"/>
      <point x="205" y="520"/>
      <point x="172" y="510" type="curve"/>
      <point x="205" y="649" type="line"/>
      <point x="331" y="649" type="line"/>
      <point x="337" y="675" type="line"/>
      <point x="211" y="675" type="line"/>
      <point x="235" y="776" type="line"/>
      <point x="207" y="770" type="line"/>
      <point x="185" y="675" type="line"/>
      <point x="109" y="675" type="line"/>
      <point x="102" y="649" type="line"/>
      <point x="179" y="649" type="line"/>
    </contour>
  </outline>
</glyph>
<glyph name="Iogonek" format="2">
  <advance width="169"/>
  <unicode hex="012E"/>
  <outline>
    <contour>
      <point x="40.940449845897675" y="-171.77379348754886" type="curve" smooth="yes"/>
      <point x="51.682545564281455" y="-171.77379348754886"/>
      <point x="58.840721791226954" y="-169.8681170654297"/>
      <point x="70.27874135191641" y="-168.0567642211914" type="curve"/>
      <point x="76.11078427515667" y="-139.84891220092774" type="line"/>
      <point x="72.74209792010492" y="-140.75458862304689"/>
      <point x="64.09005218205476" y="-142.75458862304686"/>
      <point x="54.97005218205476" y="-142.75458862304686" type="curve" smooth="yes"/>
      <point x="37.66247132573152" y="-142.75458862304686"/>
      <point x="17.77586597091232" y="-136.75458862304689"/>
      <point x="19.293765617362077" y="-111.37729431152343" type="curve" smooth="yes"/>
      <point x="20.718001141452113" y="-87.56594146728516"/>
      <point x="35.85754032629346" y="-56.75458862304688"/>
      <point x="103.13077053451538" y="0.0" type="curve"/>
      <point x="269.39380462858225" y="693.0" type="line"/>
      <point x="237.10397288724917" y="693.0" type="line"/>
      <point x="69.49335793685913" y="0.0" type="line"/>
      <point x="63.96238766098021" y="0.0" type="line"/>
      <point x="32.622258331141765" y="-26.71702926635742"/>
      <point x="-8.870848983172516" y="-69.5283821105957"/>
      <point x="-11.485708646801253" y="-113.24541137695313" type="curve" smooth="yes"/>
      <point x="-14.607283708901178" y="-165.43405853271486"/>
      <point x="13.133515840160365" y="-171.77379348754886"/>
    </contour>
  </outline>
</glyph>
<glyph name="iogonek" format="2">
  <advance width="194"/>
  <unicode hex="012F"/>
  <outline>
    <contour>
      <point x="-20" y="-185" type="curve" smooth="yes"/>
      <point x="-8" y="-185"/>
      <point x="6" y="-183"/>
      <point x="19" y="-179" type="curve"/>
      <point x="20" y="-156" type="line"/>
      <point x="6" y="-160"/>
      <point x="-4" y="-161"/>
      <point x="-14" y="-161" type="curve" smooth="yes"/>
      <point x="-33" y="-161"/>
      <point x="-43" y="-148"/>
      <point x="-43" y="-127" type="curve" smooth="yes"/>
      <point x="-43" y="-87"/>
      <point x="-12" y="-45"/>
      <point x="49" y="0" type="curve"/>
      <point x="173" y="516" type="line"/>
      <point x="145" y="516" type="line"/>
      <point x="23" y="3" type="line"/>
      <point x="22" y="3" type="line"/>
      <point x="-40" y="-42"/>
      <point x="-71" y="-88"/>
      <point x="-71" y="-131" type="curve" smooth="yes"/>
      <point x="-71" y="-164"/>
      <point x="-52" y="-185"/>
    </contour>
    <contour>
      <point x="193" y="637" type="curve" smooth="yes"/>
      <point x="210" y="637"/>
      <point x="223" y="652"/>
      <point x="223" y="670" type="curve" smooth="yes"/>
      <point x="223" y="684"/>
      <point x="211" y="696"/>
      <point x="199" y="696" type="curve" smooth="yes"/>
      <point x="179" y="696"/>
      <point x="170" y="679"/>
      <point x="170" y="663" type="curve" smooth="yes"/>
      <point x="170" y="649"/>
      <point x="179" y="637"/>
    </contour>
  </outline>
</glyph>
<glyph name="dotlessi" format="2">
  <advance width="180"/>
  <unicode hex="0131"/>
  <outline>
    <contour>
      <point x="70.66851964950561" y="0.0" type="line"/>
      <point x="101.8535131034851" y="0.0" type="line"/>
      <point x="226.9930415885443" y="513.7170292663574" type="line"/>
      <point x="196.39562899088807" y="513.7170292663574" type="line"/>
    </contour>
  </outline>
</glyph>
<glyph name="kgreenlandic" format="2">
  <advance width="376.4"/>
  <unicode hex="0138"/>
  <outline>
    <contour>
      <point x="82" y="0" type="line"/>
      <point x="111" y="0" type="line"/>
      <point x="174" y="269" type="line"/>
      <point x="230" y="218"/>
      <point x="295" y="134"/>
      <point x="344" y="0" type="curve"/>
      <point x="372" y="0" type="line"/>
      <point x="345" y="79"/>
      <point x="286" y="195"/>
      <point x="207" y="278" type="curve"/>
      <point x="273" y="329"/>
      <point x="408" y="463"/>
      <point x="439" y="516" type="curve"/>
      <point x="408" y="516" type="line"/>
      <point x="376" y="469"/>
      <point x="264" y="354"/>
      <point x="177" y="284" type="curve"/>
      <point x="234" y="516" type="line"/>
      <point x="207" y="516" type="line"/>
    </contour>
  </outline>
</glyph>
<glyph name="Lslash" format="2">
  <advance width="365.6"/>
  <unicode hex="0141"/>
  <outline>
    <contour>
      <point x="86" y="0" type="line"/>
      <point x="346" y="0" type="line"/>
      <point x="353" y="28" type="line"/>
      <point x="123" y="28" type="line"/>
      <point x="195" y="333" type="line"/>
      <point x="355" y="426" type="line"/>
      <point x="344" y="447" type="line"/>
      <point x="204" y="365" type="line"/>
      <point x="282" y="693" type="line"/>
      <point x="252" y="693" type="line"/>
      <point x="170" y="345" type="line"/>
      <point x="67" y="286" type="line"/>
      <point x="79" y="264" type="line"/>
      <point x="160" y="312" type="line"/>
    </contour>
  </outline>
</glyph>
<glyph name="lslash" format="2">
  <advance width="223.15"/>
  <unicode hex="0142"/>
  <outline>
    <contour>
      <point x="196" y="-10" type="curve"/>
      <point x="203" y="16" type="line"/>
      <point x="105" y="34"/>
      <point x="137" y="147"/>
      <point x="153" y="216" type="curve" smooth="yes"/>
      <point x="199" y="400" type="line"/>
      <point x="276" y="441" type="line"/>
      <point x="267" y="464" type="line"/>
      <point x="205" y="430" type="line"/>
      <point x="288" y="776" type="line"/>
      <point x="259" y="770" type="line"/>
      <point x="173" y="412" type="line"/>
      <point x="95" y="368" type="line"/>
      <point x="103" y="348" type="line"/>
      <point x="166" y="381" type="line"/>
      <point x="124" y="201" type="line" smooth="yes"/>
      <point x="105" y="126"/>
      <point x="80" y="14"/>
    </contour>
  </outline>
</glyph>
<glyph name="Eng" format="2">
  <advance width="543"/>
  <unicode hex="014A"/>
  <outline>
    <contour>
      <point x="263" y="-187" type="curve" smooth="yes"/>
      <point x="331" y="-187"/>
      <point x="360" y="-134"/>
      <point x="380" y="-55" type="curve" smooth="yes"/>
      <point x="558" y="693" type="line"/>
      <point x="528" y="693" type="line"/>
      <point x="379" y="71" type="line"/>
      <point x="337" y="297"/>
      <point x="281" y="521"/>
      <point x="227" y="693" type="curve"/>
      <point x="192" y="693" type="line"/>
      <point x="26" y="0" type="line"/>
      <point x="56" y="0" type="line"/>
      <point x="210" y="646" type="line"/>
      <point x="268" y="451"/>
      <point x="321" y="226"/>
      <point x="361" y="-2" type="curve"/>
      <point x="347" y="-59" type="line" smooth="yes"/>
      <point x="333" y="-115"/>
      <point x="316" y="-160"/>
      <point x="267" y="-160" type="curve" smooth="yes"/>
      <point x="253" y="-160"/>
      <point x="234" y="-158"/>
      <point x="223" y="-154" type="curve"/>
      <point x="214" y="-177" type="line"/>
      <point x="224" y="-184"/>
      <point x="248" y="-187"/>
    </contour>
  </outline>
</glyph>
<glyph name="eng" format="2">
  <advance width="446.25"/>
  <unicode hex="014B"/>
  <outline>
    <contour>
      <point x="221" y="-189" type="curve" smooth="yes"/>
      <point x="302" y="-189"/>
      <point x="336" y="-129"/>
      <point x="364" y="-6" type="curve" smooth="yes"/>
      <point x="442" y="319" type="line" smooth="yes"/>
      <point x="476" y="461"/>
      <point x="438" y="526"/>
      <point x="324" y="526" type="curve" smooth="yes"/>
      <point x="290" y="526"/>
      <point x="241" y="517"/>
      <point x="205" y="503" type="curve"/>
      <point x="84" y="0" type="line"/>
      <point x="111" y="0" type="line"/>
      <point x="227" y="486" type="line"/>
      <point x="257" y="496"/>
      <point x="292" y="502"/>
      <point x="322" y="502" type="curve" smooth="yes"/>
      <point x="422" y="502"/>
      <point x="445" y="445"/>
      <point x="412" y="311" type="curve" smooth="yes"/>
      <point x="336" y="-11" type="line" smooth="yes"/>
      <point x="315" y="-95"/>
      <point x="285" y="-165"/>
      <point x="229" y="-165" type="curve" smooth="yes"/>
      <point x="212" y="-165"/>
      <point x="194" y="-159"/>
      <point x="180" y="-151" type="curve"/>
      <point x="172" y="-176" type="line"/>
      <point x="186" y="-184"/>
      <point x="202" y="-189"/>
    </contour>
  </outline>
</glyph>
<glyph name="OE" format="2">
  <advance width="713.3"/>
  <unicode hex="0152"/>
  <outline>
    <contour>
      <point x="304" y="-9" type="curve" smooth="yes"/>
      <point x="332" y="-9"/>
      <point x="370" y="-6"/>
      <point x="399" y="0" type="curve"/>
      <point x="687" y="0" type="line"/>
      <point x="692" y="27" type="line"/>
      <point x="435" y="27" type="line"/>
      <point x="513" y="351" type="line"/>
      <point x="726" y="351" type="line"/>
      <point x="731" y="380" type="line"/>
      <point x="520" y="380" type="line"/>
      <point x="589" y="667" type="line"/>
      <point x="828" y="667" type="line"/>
      <point x="835" y="693" type="line"/>
      <point x="565" y="693" type="line"/>
      <point x="542" y="699"/>
      <point x="517" y="704"/>
      <point x="483" y="704" type="curve" smooth="yes"/>
      <point x="307" y="704"/>
      <point x="134" y="474"/>
      <point x="134" y="200" type="curve" smooth="yes"/>
      <point x="134" y="63"/>
      <point x="191" y="-9"/>
    </contour>
    <contour>
      <point x="308" y="18" type="curve" smooth="yes"/>
      <point x="207" y="18"/>
      <point x="166" y="75"/>
      <point x="166" y="205" type="curve" smooth="yes"/>
      <point x="166" y="454"/>
      <point x="322" y="676"/>
      <point x="477" y="676" type="curve" smooth="yes"/>
      <point x="509" y="676"/>
      <point x="538" y="673"/>
      <point x="559" y="668" type="curve"/>
      <point x="407" y="27" type="line"/>
      <point x="378" y="21"/>
      <point x="334" y="18"/>
    </contour>
  </outline>
</glyph>
<glyph name="oe" format="2">
  <advance width="650"/>
  <unicode hex="0153"/>
  <outline>
    <contour>
      <point x="203.07975977082896" y="-10.905676422119141" type="curve" smooth="yes"/>
      <point x="257.9721789145057" y="-10.905676422119141"/>
      <point x="317.8833051892546" y="21.0"/>
      <point x="369.7243970144731" y="117.22620651245117" type="curve"/>
      <point x="378.6684902132032" y="13.811352844238282"/>
      <point x="438.30314919038466" y="-10.905676422119141"/>
      <point x="495.06040662141487" y="-10.905676422119141" type="curve" smooth="yes"/>
      <point x="538.8976640524452" y="-10.905676422119141"/>
      <point x="586.2801319088147" y="6.188647155761719"/>
      <point x="618.4696205130676" y="26.28297073364258" type="curve"/>
      <point x="616.5390229278903" y="63.30217559814453" type="line"/>
      <point x="576.1366283631564" y="37.01920486450195"/>
      <point x="539.5679585941514" y="22.830557708740237"/>
      <point x="509.7555394504747" y="22.830557708740237" type="curve" smooth="yes"/>
      <point x="410.43150318033315" y="22.830557708740237"/>
      <point x="397.8696716365758" y="75.58514633178712"/>
      <point x="407.40135232935444" y="205.47161788940429" type="curve"/>
      <point x="601.2975744177554" y="220.8489122009277"/>
      <point x="696.7197047407317" y="238.90567642211911"/>
      <point x="706.246944406005" y="398.1886471557617" type="curve" smooth="yes"/>
      <point x="711.4394176528579" y="485.0"/>
      <point x="666.9321248925139" y="524.6227056884766"/>
      <point x="611.1776100304535" y="524.6227056884766" type="curve" smooth="yes"/>
      <point x="550.5500291741301" y="524.6227056884766"/>
      <point x="482.9354601417624" y="482.339734954834"/>
      <point x="434.6586145910047" y="396.58514633178714" type="curve"/>
      <point x="426.2978293051056" y="484.339734954834"/>
      <point x="395.1651908867766" y="524.6227056884766"/>
      <point x="324.93212489251397" y="524.6227056884766" type="curve" smooth="yes"/>
      <point x="198.32519088677662" y="524.6227056884766"/>
      <point x="99.6458448100838" y="352.8113528442383"/>
      <point x="88.9110555926852" y="173.339734954834" type="curve" smooth="yes"/>
      <point x="82.59905511187144" y="67.81135284423829"/>
      <point x="113.8852449087684" y="-10.905676422119141"/>
    </contour>
    <contour>
      <point x="205.53677494642764" y="18.641910552978516" type="curve" smooth="yes"/>
      <point x="141.5561280958417" y="18.641910552978516"/>
      <point x="116.57329161427786" y="79.20785202026367"/>
      <point x="121.93052588906806" y="168.77379348754883" type="curve" smooth="yes"/>
      <point x="131.67894462423394" y="331.75458862304686"/>
      <point x="218.3038960326342" y="491.9807951354981"/>
      <point x="322.2900280211596" y="491.9807951354981" type="curve" smooth="yes"/>
      <point x="369.8251897338061" y="491.9807951354981"/>
      <point x="403.755617154678" y="449.8864715576172"/>
      <point x="398.82835956858577" y="367.5091772460937" type="curve" smooth="yes"/>
      <point x="383.5556989817285" y="112.17029266357422"/>
      <point x="278.9119366590742" y="18.641910552978516"/>
    </contour>
    <contour>
      <point x="418.96292524403043" y="252.05676422119143" type="curve"/>
      <point x="456.99244761002916" y="422.320530090332"/>
      <point x="542.0362185831693" y="489.69782440185554"/>
      <point x="604.4265420084624" y="489.69782440185554" type="curve" smooth="yes"/>
      <point x="647.4720271464017" y="489.69782440185554"/>
      <point x="674.9607328547713" y="458.32053009033206"/>
      <point x="671.4520689885736" y="399.66026504516606" type="curve" smooth="yes"/>
      <point x="665.3093734971969" y="296.9624406433106"/>
      <point x="606.584118984535" y="256.05676422119143"/>
    </contour>
  </outline>
</glyph>
